<?xml version="1.0" standalone="no"?>
<!DOCTYPE svg PUBLIC "-//W3C//DTD SVG 1.1//EN" "http://www.w3.org/Graphics/SVG/1.1/DTD/svg11.dtd" >
<svg xmlns="http://www.w3.org/2000/svg">
<metadata></metadata>
<defs>
<font id="estandarregular" horiz-adv-x="581" >
<font-face units-per-em="1000" ascent="750" descent="-250" />
<missing-glyph horiz-adv-x="229" />
<glyph horiz-adv-x="0" />
<glyph horiz-adv-x="333" />
<glyph unicode=" "  horiz-adv-x="229" />
<glyph unicode="&#x09;" horiz-adv-x="229" />
<glyph unicode="&#xa0;" horiz-adv-x="229" />
<glyph unicode="!" horiz-adv-x="238" d="M82 175l-9 351v174h93v-174l-9 -351h-75zM118 -10q-49 0 -49 56q0 52 49 52q52 0 52 -52q0 -56 -52 -56z" />
<glyph unicode="&#x22;" horiz-adv-x="283" d="M45 557l-12 193h90l-12 -193h-66zM173 557l-12 193h90l-12 -193h-66z" />
<glyph unicode="#" horiz-adv-x="626" d="M91 0l40 197h-112l17 78h110l31 150h-113l18 77h111l41 198h83l-40 -198h130l40 198h85l-42 -198h117l-17 -77h-114l-33 -150h118l-17 -78h-116l-41 -197h-83l40 197h-131l-39 -197h-83zM230 275h131l30 150h-130z" />
<glyph unicode="$" horiz-adv-x="561" d="M251 -100v99q-77 8 -128 48.5t-68 101.5l87 27q11 -35 40 -60t69 -31v223q-189 32 -189 185v19q0 81 47 131.5t142 57.5v99h64v-100q69 -8 113.5 -45.5t61.5 -94.5l-86 -24q-9 29 -32.5 51t-56.5 27v-221q198 -28 198 -178v-23q0 -85 -50.5 -136t-147.5 -58v-98h-64z M315 298v-215q53 4 80 34t27 77v9q0 76 -107 95zM251 403v214q-49 -4 -73.5 -32.5t-24.5 -71.5v-10q0 -46 25 -68t73 -32z" />
<glyph unicode="%" horiz-adv-x="876" d="M51 435v127q0 69 42 109.5t112 40.5t111.5 -40.5t41.5 -109.5v-127q0 -69 -42 -109.5t-111 -40.5t-111.5 40.5t-42.5 109.5zM134 553v-110q0 -42 19 -64t52 -22q32 0 51.5 22t19.5 64v110q0 42 -19.5 64.5t-51.5 22.5q-33 0 -52 -22.5t-19 -64.5zM520 140v127 q0 69 42 109.5t112 40.5q68 0 109.5 -40.5t41.5 -109.5v-127q0 -69 -41.5 -110t-109.5 -41q-70 0 -112 41t-42 110zM601 258v-111q0 -41 19.5 -63.5t53.5 -22.5q32 0 51 22.5t19 63.5v111q0 42 -19 64.5t-51 22.5q-34 0 -53.5 -22.5t-19.5 -64.5zM148 0l513 746l68 -46 l-516 -746z" />
<glyph unicode="&#x26;" horiz-adv-x="656" d="M55 163v12q0 97 136 196q-90 100 -90 173q0 74 47.5 122t132.5 48q181 0 181 -159q0 -32 -9.5 -58t-33.5 -51t-42 -40t-57 -43l140 -161q40 67 38 134l88 -15q-8 -100 -66 -189l80 -88l-69 -57l-69 76q-79 -77 -188 -77q-104 0 -161.5 44.5t-57.5 132.5zM152 168v-3 q0 -96 126 -96q75 0 128 58l-159 182q-48 -37 -71.5 -70t-23.5 -71zM265 426q3 2 17.5 12.5t17.5 13t15 12t16 13.5l12.5 12.5t11.5 14.5t7.5 14.5t6 16.5t1.5 17q0 40 -20 60.5t-69 20.5q-87 0 -87 -85q0 -21 11 -43.5t19.5 -33t33.5 -37.5q5 -5 7 -8z" />
<glyph unicode="'" horiz-adv-x="155" d="M45 557l-12 193h90l-12 -193h-66z" />
<glyph unicode="(" horiz-adv-x="298" d="M62 129v382q0 97 52.5 165t141.5 82l17 -80q-54 -8 -87 -58t-33 -122v-356q0 -72 33 -122t87 -58l-17 -80q-89 14 -141.5 82t-52.5 165z" />
<glyph unicode=")" horiz-adv-x="298" d="M43 758q89 -14 141.5 -82t52.5 -165v-382q0 -97 -52.5 -165t-141.5 -82l-18 80q55 8 88 57.5t33 122.5v356q0 73 -33 122.5t-88 57.5z" />
<glyph unicode="*" horiz-adv-x="438" d="M84 407l83 110l-128 37l24 78l124 -47l-4 138h76l-3 -136l121 45l24 -78l-127 -38l81 -110l-62 -47l-72 116l-74 -116z" />
<glyph unicode="+" horiz-adv-x="562" d="M238 44v215h-187v88h187v215h87v-215h188v-88h-188v-215h-87z" />
<glyph unicode="," horiz-adv-x="194" d="M42 -105l-22 49q43 20 43 56q-21 15 -21 49q0 62 55 62q26 0 41.5 -15.5t15.5 -46.5q0 -46 -25 -91t-87 -63z" />
<glyph unicode="-" horiz-adv-x="381" d="M51 259v86h280v-86h-280z" />
<glyph unicode="." horiz-adv-x="194" d="M97 -11q-55 0 -55 59q0 63 55 63q57 0 57 -63q0 -59 -57 -59z" />
<glyph unicode="/" horiz-adv-x="470" d="M8 -110l378 892l78 -32l-380 -890z" />
<glyph unicode="0" horiz-adv-x="554" d="M56 206v288q0 101 61 160.5t161 59.5t160.5 -59.5t60.5 -160.5v-288q0 -101 -60.5 -160.5t-160.5 -59.5t-161 59.5t-61 160.5zM152 480v-260q0 -71 33.5 -108.5t92.5 -37.5q58 0 91.5 37.5t33.5 108.5v260q0 71 -33.5 108.5t-91.5 37.5q-59 0 -92.5 -37.5t-33.5 -108.5z " />
<glyph unicode="1" horiz-adv-x="277" d="M135 700h82v-700h-96v583l-88 -59l-46 71z" />
<glyph unicode="2" horiz-adv-x="549" d="M52 0v62l276 322q67 77 67 134q0 47 -30.5 78t-87.5 31q-82 0 -110 -71l-93 27q20 59 73 95t130 36q105 0 161 -53.5t56 -140.5q0 -57 -27.5 -105.5t-77.5 -105.5l-192 -222h308v-87h-453z" />
<glyph unicode="3" horiz-adv-x="539" d="M261 -14q-80 0 -133.5 37.5t-72.5 97.5l89 29q30 -77 117 -77q121 0 121 117v17q0 124 -113 124h-76v80h76q50 0 76.5 30t26.5 81q-1 48 -27.5 78t-80.5 30q-43 0 -73 -19.5t-41 -53.5l-87 26q19 58 71.5 94.5t129.5 36.5q101 0 152 -52.5t51 -137.5q0 -42 -18 -82.5 t-51 -67.5q37 -18 61.5 -63t24.5 -92v-31q0 -93 -57.5 -147.5t-165.5 -54.5z" />
<glyph unicode="4" horiz-adv-x="558" d="M33 135v61l247 514l98 -13l-226 -475h217v253l96 13v-266h70v-87h-70v-135h-96v135h-336z" />
<glyph unicode="5" horiz-adv-x="538" d="M61 123l90 30q27 -79 113 -79q59 0 90 30t31 84v50q0 69 -29 97t-86 28q-71 0 -132 -42l-72 46l43 333h350v-87h-265l-24 -192q46 29 110 29q98 0 152.5 -49.5t54.5 -151.5v-62q0 -92 -58.5 -146t-164.5 -54q-81 0 -132 37t-71 99z" />
<glyph unicode="6" horiz-adv-x="563" d="M56 187v307q0 100 61.5 160t163.5 60q85 0 139.5 -36.5t73.5 -103.5l-92 -27q-22 80 -121 80q-60 0 -94 -38.5t-34 -108.5v-104q62 45 151 45q94 0 149 -48.5t55 -147.5v-31q0 -100 -61.5 -154t-163.5 -54q-103 0 -165 50.5t-62 150.5zM153 286v-83q0 -129 130 -129 q129 0 129 136q0 67 -28 95t-88 28q-88 0 -143 -47z" />
<glyph unicode="7" horiz-adv-x="449" d="M77 3l250 610h-311v87h423v-61l-263 -649z" />
<glyph unicode="8" horiz-adv-x="573" d="M265 410h40q51 0 79 32t28 81q0 47 -32 76.5t-93 29.5t-93 -29.5t-32 -76.5q0 -50 26 -81.5t77 -31.5zM54 188v34q0 47 23 89.5t59 65.5q-32 28 -50.5 68.5t-18.5 80.5q0 86 56 137t164 51q109 0 165 -51t56 -137q0 -40 -18.5 -80.5t-50.5 -68.5q37 -22 59.5 -65 t22.5 -90v-34q0 -94 -58.5 -148t-175.5 -54t-175 54t-58 148zM155 212v-22q0 -116 132 -116t132 116v22q0 56 -28 89t-78 33h-51q-51 0 -79 -33t-28 -89z" />
<glyph unicode="9" horiz-adv-x="560" d="M68 127l92 26q24 -79 122 -79q59 0 93 38t34 108v98q-53 -32 -148 -32t-150 48t-55 146v28q0 100 61 153t163 53q103 0 164 -49.5t61 -149.5v-309q0 -100 -61.5 -160t-161.5 -60q-83 0 -140 38t-74 103zM409 406v92q0 128 -129 128q-127 0 -127 -132q0 -65 28 -92.5 t88 -27.5q86 0 140 32z" />
<glyph unicode=":" horiz-adv-x="214" d="M107 -10q-55 0 -55 60q0 62 55 62q57 0 57 -62q0 -60 -57 -60zM107 448q-55 0 -55 59q0 63 55 63q57 0 57 -63q0 -59 -57 -59z" />
<glyph unicode=";" horiz-adv-x="217" d="M109 448q-55 0 -54 60q0 31 14.5 46.5t39.5 15.5q58 0 58 -62q0 -60 -58 -60zM54 -105l-21 49q42 22 42 56q-21 15 -21 49q0 30 15 46t40 16q26 0 41.5 -16t15.5 -46q0 -46 -25 -91t-87 -63z" />
<glyph unicode="&#x3c;" horiz-adv-x="355" d="M137 280l168 -170l-52 -61l-202 195v72l202 196l52 -62z" />
<glyph unicode="=" horiz-adv-x="557" d="M51 134v86h456v-86h-456zM51 360v86h456v-86h-456z" />
<glyph unicode="&#x3e;" horiz-adv-x="355" d="M103 49l-52 61l168 170l-168 170l52 62l202 -196v-72z" />
<glyph unicode="?" horiz-adv-x="491" d="M177 167v36q0 20 2.5 38t4 30t9.5 27t10 21t15.5 21.5t16 18.5t20.5 21l21 21q34 34 50.5 64.5t16.5 70.5v8q0 39 -25.5 62t-77.5 23q-87 0 -105 -72l-89 26q16 59 65 95t129 36q96 0 149 -47t53 -121v-16q0 -59 -23 -99.5t-70 -86.5q-45 -45 -62 -73.5t-17 -69.5v-34 h-93zM224 -13q-24 0 -38.5 14.5t-14.5 42.5q0 27 15 41.5t38 14.5q24 0 39 -14.5t15 -41.5q0 -28 -15 -42.5t-39 -14.5z" />
<glyph unicode="@" horiz-adv-x="718" d="M287 400l-13 -104q-14 -91 57 -91q25 0 52.5 16.5t42.5 38.5l30 233h-85q-70 0 -84 -93zM53 202l39 295q13 97 105 155.5t210 58.5q117 0 194 -59.5t64 -156.5l-29 -220q-16 -123 -120 -123q-64 0 -82 56q-20 -23 -52.5 -39.5t-59.5 -16.5q-62 0 -89.5 35.5t-19.5 101.5 l16 120q8 66 44 100t96 34h154l-35 -273q-5 -34 2.5 -48.5t30.5 -14.5q46 0 55 66l29 216q10 78 -51.5 121t-153.5 43t-165.5 -43.5t-83.5 -122.5l-38 -278q-11 -78 50.5 -121.5t153.5 -43.5q68 0 137 24l16 -53q-71 -29 -158 -29q-118 0 -195 59.5t-64 156.5z" />
<glyph unicode="A" d="M474 -10l-64 205h-239l-60 -195h-107l240 700h94l239 -697zM290 584l-93 -303h187z" />
<glyph unicode="B" horiz-adv-x="567" d="M61 0v700h240q209 0 209 -173v-40q0 -34 -16.5 -70t-49.5 -55q36 -15 59 -54.5t23 -86.5l-1 -48q0 -78 -50.5 -125.5t-148.5 -47.5h-265zM158 397h167q42 0 65 25t23 75v16q0 57 -25 77.5t-85 20.5h-145v-214zM158 88h166q52 0 78 26.5t26 70.5v26q0 47 -24 74.5 t-70 27.5h-176v-225z" />
<glyph unicode="C" horiz-adv-x="535" d="M154 222q0 -70 36.5 -108.5t97.5 -38.5q47 0 80 20.5t47 57.5l92 -25q-18 -66 -76 -104t-143 -38q-102 0 -167 61t-65 161v284q0 101 65 161.5t167 60.5q85 0 143 -38t76 -104l-92 -25q-14 37 -47 57.5t-80 20.5q-61 0 -97.5 -38.5t-36.5 -107.5v-257z" />
<glyph unicode="D" d="M61 0v700h246q101 0 159.5 -60t58.5 -162v-256q0 -102 -58.5 -162t-159.5 -60h-246zM158 88h149q59 0 90 38t31 109v230q0 71 -31 108.5t-90 37.5h-149v-523z" />
<glyph unicode="E" horiz-adv-x="497" d="M61 0v700h397v-89h-300v-210h250v-88h-250v-225h307v-88h-404z" />
<glyph unicode="F" horiz-adv-x="484" d="M61 0v700h398v-89h-301v-234h251v-88h-251v-289h-97z" />
<glyph unicode="G" horiz-adv-x="570" d="M433 58q-76 -72 -171 -72q-97 0 -151.5 59t-54.5 162v285q0 101 66 161.5t170 60.5q85 0 144 -38t77 -104l-93 -25q-13 36 -46.5 57t-81.5 21q-62 0 -100 -38.5t-38 -107.5v-258q0 -70 33.5 -109t92.5 -39q92 0 146 74v140h-141v88h237v-385h-69z" />
<glyph unicode="H" horiz-adv-x="585" d="M61 0v700h97v-293h270v293h97v-700h-97v318h-270v-318h-97z" />
<glyph unicode="I" horiz-adv-x="218" d="M61 0v700h97v-700h-97z" />
<glyph unicode="J" horiz-adv-x="286" d="M20 -10l-13 84q122 15 122 152v474h97v-489q1 -95 -55 -154t-151 -67z" />
<glyph unicode="K" horiz-adv-x="533" d="M430 -10l-192 318l-80 -107v-201h-97v700h97v-344l253 344h119l-232 -311l237 -386z" />
<glyph unicode="L" horiz-adv-x="472" d="M61 0v700h97v-612h305v-88h-402z" />
<glyph unicode="M" horiz-adv-x="693" d="M61 0v700h85l201 -414l201 414h85v-700h-97l4 488l-150 -302h-93l-142 285l3 -471h-97z" />
<glyph unicode="N" horiz-adv-x="602" d="M61 0v700h104l284 -526l-3 526h96v-700h-106l-282 524l3 -524h-96z" />
<glyph unicode="O" horiz-adv-x="594" d="M56 208v284q0 101 69.5 161.5t172.5 60.5t172.5 -60.5t69.5 -161.5v-284q0 -100 -69.5 -161t-172.5 -61t-172.5 61t-69.5 161zM154 479v-257q0 -70 41 -108.5t104 -38.5q62 0 102.5 38.5t40.5 108.5v257q0 69 -40.5 108t-102.5 39q-63 0 -104 -39t-41 -108z" />
<glyph unicode="P" horiz-adv-x="568" d="M61 0v700h246q101 0 159.5 -60t58.5 -162v-47q0 -102 -58.5 -162t-159.5 -60h-149v-209h-97zM158 298h149q59 0 90 37.5t31 108.5v21q0 71 -31 108.5t-90 37.5h-149v-313z" />
<glyph unicode="Q" horiz-adv-x="594" d="M550 -8l-64 -55l-66 77q-54 -28 -122 -28q-103 0 -172.5 61t-69.5 161v284q0 101 69.5 161.5t172.5 60.5t172.5 -60.5t69.5 -161.5v-284q0 -86 -53 -145zM154 479v-257q0 -70 41 -108.5t104 -38.5q30 0 58 11l-59 68l63 54l59 -67q22 33 22 81v257q0 69 -40.5 108 t-102.5 39q-63 0 -104 -39t-41 -108z" />
<glyph unicode="R" horiz-adv-x="568" d="M434 -10l-154 284h-122v-274h-97v700h246q99 0 159 -55t60 -140v-36q0 -66 -38.5 -115.5t-105.5 -68.5l156 -282zM158 611v-249h149q57 0 89 33t32 86v11q0 54 -32 86.5t-89 32.5h-149z" />
<glyph unicode="S" horiz-adv-x="539" d="M127 159q16 -36 53 -59.5t87 -23.5q68 0 103.5 29t35.5 81v9q0 100 -138 113q-220 23 -220 191v21q0 89 54 141t164 52q88 0 142.5 -38t75.5 -102l-94 -27q-28 78 -124 78q-62 0 -92 -29t-30 -77v-8q0 -55 34.5 -78t103.5 -32q45 -5 80.5 -16t69.5 -32t52.5 -57.5 t18.5 -86.5v-26q0 -92 -60.5 -144t-174.5 -52q-89 0 -151.5 40.5t-82.5 103.5z" />
<glyph unicode="T" horiz-adv-x="485" d="M195 0v612h-186v88h469v-88h-186v-612h-97z" />
<glyph unicode="U" horiz-adv-x="580" d="M274 72q49 0 88 21.5t62 53.5v553h98v-517q0 -99 27 -160l-87 -33q-13 19 -25 71q-30 -31 -77.5 -53t-97.5 -22q-203 0 -203 208v503l97 13v-503q0 -71 28 -103t90 -32z" />
<glyph unicode="V" horiz-adv-x="562" d="M110 710l173 -593l169 583h106l-229 -700h-93l-230 697z" />
<glyph unicode="W" horiz-adv-x="881" d="M206 0l-200 697l102 13l148 -591l135 581h101l137 -581l143 581h104l-200 -700h-100l-136 569l-134 -569h-100z" />
<glyph unicode="X" horiz-adv-x="543" d="M415 700h121l-201 -345l205 -355h-122l-146 284l-146 -284h-122l204 353l-199 344l115 13l146 -287z" />
<glyph unicode="Y" horiz-adv-x="531" d="M218 0v237l-212 460l109 13l152 -372l147 362h113l-212 -461v-239h-97z" />
<glyph unicode="Z" horiz-adv-x="526" d="M31 0v90l335 522h-324v88h439v-91l-333 -521h348v-88h-465z" />
<glyph unicode="[" horiz-adv-x="269" d="M68 -110v860h173v-82h-88v-696h88v-82h-173z" />
<glyph unicode="\" horiz-adv-x="471" d="M8 750l77 32l379 -892l-77 -30z" />
<glyph unicode="]" horiz-adv-x="269" d="M30 -110v82h87v696h-87v82h173v-860h-173z" />
<glyph unicode="^" horiz-adv-x="381" d="M40 527l110 211h82l110 -211l-74 -27l-78 167l-77 -167z" />
<glyph unicode="_" horiz-adv-x="482" d="M8 -121v70h467v-70h-467z" />
<glyph unicode="`" horiz-adv-x="281" d="M55 737l74 44l82 -143l-50 -32z" />
<glyph unicode="a" horiz-adv-x="511" d="M130 152q0 -86 97 -86q80 0 126 66v106h-124q-50 0 -74.5 -19.5t-24.5 -66.5zM445 386v-211q0 -98 27 -153l-79 -32q-18 27 -26 59q-61 -59 -150 -59q-86 0 -133.5 40t-47.5 120q0 86 49 122t141 36h127v64q0 62 -25.5 88.5t-80.5 26.5q-45 0 -73 -20t-36 -53l-87 25 q14 57 66 94t130 37q97 0 148 -46.5t50 -137.5z" />
<glyph unicode="b" horiz-adv-x="538" d="M161 413v-319q42 -21 111 -21q112 0 112 136v149q0 65 -23 96.5t-77 31.5q-34 0 -67.5 -22t-55.5 -51zM68 46v674l93 13l-1 -226q61 63 139 63q177 0 177 -200v-173q0 -97 -54.5 -152t-149.5 -55q-122 0 -204 56z" />
<glyph unicode="c" horiz-adv-x="495" d="M464 125q-17 -61 -66.5 -98t-128.5 -37q-96 0 -151.5 55t-55.5 152v166q0 97 55.5 152t151.5 55q78 0 129 -35.5t67 -97.5l-87 -25q-18 75 -109 75q-55 0 -84.5 -34.5t-29.5 -101.5v-142q0 -67 29.5 -101.5t84.5 -34.5q89 0 109 75z" />
<glyph unicode="d" horiz-adv-x="538" d="M499 22l-80 -32q-17 28 -26 58q-60 -58 -145 -58q-90 0 -137.5 54.5t-47.5 152.5v173q0 97 45.5 148.5t132.5 51.5q77 0 138 -28v178l93 13v-558q0 -100 27 -153zM379 135v325q-56 26 -124 26q-100 0 -100 -128v-149q0 -69 24.5 -102.5t79.5 -33.5q80 0 120 62z" />
<glyph unicode="e" horiz-adv-x="534" d="M62 197v166q0 97 55.5 152t151.5 55t151.5 -55t55.5 -152v-114h-321v-44q-1 -133 114 -133q90 0 109 76l86 -23q-16 -61 -66.5 -98t-128.5 -37q-96 0 -151.5 55t-55.5 152zM154 322h229v32q0 134 -114 134q-115 0 -115 -134v-32z" />
<glyph unicode="f" horiz-adv-x="345" d="M68 0v401h-60v79h60v71q-1 90 46 134.5t136 44.5q47 0 84 -13l-15 -74q-30 7 -61 7q-98 0 -98 -100l1 -70h149v-79h-149v-401h-93z" />
<glyph unicode="g" horiz-adv-x="538" d="M380 186l-1 273q-55 27 -123 27q-101 0 -101 -128l1 -110q-1 -64 22.5 -94.5t76.5 -30.5q69 0 125 63zM409 560h63v-534q0 -91 -54.5 -138.5t-147.5 -47.5q-189 0 -200 133l87 15q6 -36 31.5 -50.5t81.5 -14.5q109 0 109 115v59q-58 -58 -138 -58q-177 0 -177 197v134 q0 97 45 148.5t132 51.5q76 0 143 -30z" />
<glyph unicode="h" horiz-adv-x="534" d="M68 0v720l93 13l-1 -226q61 63 139 63q89 0 130 -47t41 -142v-381h-92v368q0 63 -22 91.5t-75 28.5q-34 0 -66 -20.5t-55 -49.5v-418h-92z" />
<glyph unicode="i" horiz-adv-x="227" d="M170 665q0 -58 -58 -58q-56 0 -56 58q0 61 56 61q58 0 58 -61zM7 560h153v-560h-92v481h-61v79z" />
<glyph unicode="j" horiz-adv-x="234" d="M119 608q-55 0 -55 57q0 60 55 60q57 0 57 -60q0 -57 -57 -57zM13 560h154v-524q0 -92 -50 -141.5t-143 -54.5l-13 75q61 3 87 34.5t26 97.5v434h-61v79z" />
<glyph unicode="k" horiz-adv-x="486" d="M389 -10l-157 254l-72 -91v-153h-92v720l92 13v-438l202 265h116l-187 -239l200 -319z" />
<glyph unicode="l" horiz-adv-x="227" d="M105 -10q-37 58 -37 153v577l93 13v-558q0 -100 27 -153z" />
<glyph unicode="m" horiz-adv-x="808" d="M359 363q0 60 -22 92.5t-60 32.5q-34 0 -65 -21t-51 -53v-414h-93v557l91 13v-66q57 66 134 66q94 0 127 -82q53 82 152 82q168 0 168 -193v-377h-91v362q0 64 -20.5 94.5t-68.5 30.5q-51 0 -80 -32t-29 -83v-372h-92v363z" />
<glyph unicode="n" horiz-adv-x="537" d="M68 0v557l91 13v-66q64 66 141 66q170 0 170 -193v-377h-92v364q0 64 -21.5 94t-73.5 30q-34 0 -67 -22t-55 -52v-414h-93z" />
<glyph unicode="o" horiz-adv-x="536" d="M155 351v-142q0 -136 114 -136q55 0 84.5 34.5t29.5 101.5v142q0 67 -29.5 101.5t-84.5 34.5q-114 0 -114 -136zM62 197v166q0 96 55.5 151.5t151.5 55.5t151.5 -55t55.5 -152v-166q0 -97 -55.5 -152t-151.5 -55t-151.5 55.5t-55.5 151.5z" />
<glyph unicode="p" horiz-adv-x="538" d="M159 570v-64q62 64 140 64q177 0 177 -200v-173q0 -97 -52.5 -152t-146.5 -55q-62 0 -116 17v-144l-93 -13v707zM384 209v149q0 65 -23 96.5t-77 31.5q-34 0 -67.5 -21t-55.5 -50v-321q42 -21 111 -21q112 0 112 136z" />
<glyph unicode="q" horiz-adv-x="538" d="M378 147v320q-40 20 -111 20q-112 0 -112 -136v-149q0 -65 23 -96.5t76 -31.5q33 0 67 22t57 51zM471 519v-656l-93 -13v203q-60 -63 -138 -63q-178 0 -178 200v173q0 97 54.5 152t150.5 55q120 0 204 -51z" />
<glyph unicode="r" horiz-adv-x="324" d="M68 0v557l91 13v-73q63 73 149 73l7 -86q-94 0 -154 -77v-407h-93z" />
<glyph unicode="s" horiz-adv-x="471" d="M32 120l87 25q8 -33 38.5 -55t78.5 -22q52 0 79.5 24t27.5 61v6q0 39 -29 56.5t-92 25.5q-174 22 -174 154v18q0 72 47.5 114.5t139.5 42.5q81 0 130 -36.5t61 -95.5l-85 -25q-12 79 -106 79q-95 0 -95 -83v-5q0 -36 27.5 -53.5t87.5 -26.5q87 -13 133.5 -45t46.5 -106 v-23q-1 -70 -53.5 -115t-145.5 -45q-83 0 -136 35.5t-68 94.5z" />
<glyph unicode="t" horiz-adv-x="333" d="M69 165v316h-56v79h59l20 90l69 13l1 -103h154v-79h-154l-1 -305q0 -62 16 -86t65 -24q43 0 73 8l14 -73q-48 -14 -96 -14q-90 0 -127 40.5t-37 137.5z" />
<glyph unicode="u" horiz-adv-x="527" d="M384 50q-62 -60 -149 -60q-170 0 -170 202v365l93 13v-367q0 -69 19.5 -100t69.5 -31q83 0 123 63v422l93 13v-395q0 -100 27 -153l-80 -32q-15 22 -26 60z" />
<glyph unicode="v" horiz-adv-x="473" d="M191 0l-185 557l98 13l134 -459l130 449h100l-186 -560h-91z" />
<glyph unicode="w" horiz-adv-x="747" d="M169 0l-163 557l95 13l116 -453l105 443h101l108 -441l113 441h98l-164 -560h-98l-108 440l-105 -440h-98z" />
<glyph unicode="x" horiz-adv-x="486" d="M355 560h119l-169 -272l178 -288h-119l-121 222l-120 -222h-119l177 286l-167 271l113 13l116 -218z" />
<glyph unicode="y" horiz-adv-x="539" d="M74 -27l88 15q6 -36 32 -50.5t80 -14.5q109 0 109 115v63q-60 -62 -145 -62q-171 0 -171 184l1 334l92 13v-326q-1 -63 22 -92t76 -29q35 0 68.5 18.5t53.5 45.5v370l93 13v-543q0 -91 -53 -139t-146 -48q-186 0 -200 133z" />
<glyph unicode="z" horiz-adv-x="449" d="M34 0v86l262 393h-256v81h368v-79l-266 -400h278v-81h-386z" />
<glyph unicode="{" horiz-adv-x="338" d="M143 34v138q0 51 -21.5 77.5t-56.5 26.5h-29v88h29q35 0 56.5 26.5t21.5 77.5v138q0 76 34.5 110t102.5 34h15l10 -81h-9q-38 0 -51 -17t-13 -59v-131q0 -106 -71 -142q71 -35 71 -143v-130q0 -42 13 -59t51 -17h9l-11 -81h-14q-68 0 -102.5 34.5t-34.5 109.5z" />
<glyph unicode="|" horiz-adv-x="217" d="M68 -170v940h81v-940h-81z" />
<glyph unicode="}" horiz-adv-x="338" d="M274 276q-34 0 -55.5 -26.5t-21.5 -77.5v-138q0 -144 -137 -144h-14l-11 81h9q38 0 51 17t13 59v130q0 108 71 143q-71 36 -71 142v131q0 42 -13 59t-51 17h-10l11 81h15q68 0 102.5 -34.5t34.5 -109.5v-138q0 -51 21.5 -77.5t55.5 -26.5h29v-88h-29z" />
<glyph unicode="~" horiz-adv-x="572" d="M126 272l-73 14q8 51 43.5 84.5t90.5 33.5q41 0 108.5 -32.5t92.5 -32.5t40 16t19 42l74 -12q-7 -55 -41 -88t-93 -33q-40 0 -105.5 33t-96.5 33q-26 0 -41 -16t-18 -42z" />
<glyph unicode="&#xa1;" horiz-adv-x="238" d="M73 0v174l9 351h75l9 -351v-174h-93zM118 602q-49 0 -49 52q0 56 49 56q52 0 52 -56q0 -52 -52 -52z" />
<glyph unicode="&#xa2;" horiz-adv-x="534" d="M246 0v83q-84 8 -132 62.5t-48 143.5v122q0 89 48 143t132 62v84h56v-83q66 -7 109 -39.5t57 -84.5l-85 -24q-17 55 -81 64v-367q69 10 84 70l85 -22q-14 -54 -57.5 -89t-111.5 -42v-83h-56zM246 166v367q-89 -14 -89 -133v-100q0 -119 89 -134z" />
<glyph unicode="&#xa3;" horiz-adv-x="545" d="M35 0v74q35 21 56 59t21 83v87h-77v85h77v106q0 104 49.5 162t148.5 58q156 0 186 -136l-90 -26q-14 75 -96 75q-56 0 -78.5 -35.5t-22.5 -109.5v-94h136v-85h-136v-72q0 -43 -12.5 -79t-24.5 -50l-13 -15h353v-87h-477z" />
<glyph unicode="&#xa4;" horiz-adv-x="576" d="M49 151l67 71q-21 44 -21 98v44q0 52 21 96l-67 72l59 62l66 -69q44 32 115 32q69 0 115 -32l66 69l59 -62l-69 -72q21 -40 21 -96v-44q0 -54 -21 -98l69 -71l-59 -62l-66 69q-46 -32 -115 -32q-71 0 -117 32l-64 -69zM177 354v-25q0 -61 29.5 -93t82.5 -32q52 0 81.5 32 t29.5 93v25q0 62 -29.5 94t-81.5 32q-53 0 -82.5 -32t-29.5 -94z" />
<glyph unicode="&#xa5;" horiz-adv-x="532" d="M40 94v79h180v73h-180v79h164l-195 372l103 13l157 -315l152 305h105l-195 -375h165v-79h-179v-73h179v-79h-179v-94h-97v94h-180z" />
<glyph unicode="&#xa6;" horiz-adv-x="217" d="M68 -170v346h81v-346h-81zM68 423v347h81v-347h-81z" />
<glyph unicode="&#xa7;" horiz-adv-x="507" d="M61 28l87 25q18 -72 106 -72q49 0 72.5 22t23.5 58v8q0 31 -29.5 48.5t-83.5 28.5q-39 8 -68.5 18.5t-58 28.5t-44 47t-15.5 68v11q0 34 20 68t51 54q-58 39 -58 107v13q0 69 46.5 111t136.5 42q75 0 119.5 -35t56.5 -91l-85 -24q-10 70 -91 70q-88 0 -88 -75v-9 q0 -34 30.5 -52t85.5 -29q29 -6 51.5 -12.5t48.5 -19t42.5 -28.5t28 -40.5t11.5 -55.5v-13q0 -31 -23.5 -65.5t-54.5 -54.5q65 -39 65 -109v-14q0 -68 -50 -112t-140 -44q-76 0 -126.5 35t-66.5 92zM146 321v-6q0 -41 34.5 -60t121.5 -39q25 15 42.5 38.5t17.5 44.5v6 q0 22 -11.5 38t-32 25t-40.5 14.5t-45 10.5t-37 9q-21 -12 -35.5 -34t-14.5 -47z" />
<glyph unicode="&#xa8;" horiz-adv-x="407" d="M312 611q-52 0 -52 60q0 62 52 62q54 0 54 -62q0 -60 -54 -60zM94 611q-51 0 -51 60q0 62 51 62q54 0 54 -62q0 -60 -54 -60z" />
<glyph unicode="&#xa9;" horiz-adv-x="683" d="M202 276v146q0 63 39 100.5t102 37.5q62 0 100 -33.5t38 -85.5l-69 -11q0 28 -19 44t-50 16q-32 0 -51 -19t-19 -55v-135q0 -36 19 -55t51 -19t50.5 16t18.5 44l69 -7q0 -53 -38 -88t-100 -35q-63 0 -102 38t-39 101zM56 205v287q0 99 84 158.5t202 59.5t201.5 -59.5 t83.5 -158.5v-287q0 -100 -83.5 -159.5t-201.5 -59.5q-119 0 -202.5 59.5t-83.5 159.5zM127 488v-279q0 -72 64.5 -112.5t150.5 -40.5q87 0 151 40.5t64 112.5v279q0 71 -64 111.5t-151 40.5q-86 0 -150.5 -40.5t-64.5 -111.5z" />
<glyph unicode="&#xaa;" horiz-adv-x="395" d="M333 257q-17 17 -25 46q-50 -43 -114 -43t-98.5 32.5t-34.5 95.5q0 122 151 122h92v40q0 95 -78 95q-62 0 -78 -49l-67 27q14 39 52.5 64t93.5 25q74 0 113 -40t39 -113v-199q0 -47 20 -76zM304 376v72h-97q-72 0 -72 -59q0 -30 18 -46t49 -16q62 0 102 49z" />
<glyph unicode="&#xab;" horiz-adv-x="419" d="M104 279l112 -121l-44 -57l-142 149v59l142 149l44 -57zM276 279l113 -121l-45 -57l-142 149v59l142 149l45 -57z" />
<glyph unicode="&#xac;" horiz-adv-x="628" d="M58 355v87h513v-239h-89v152h-424z" />
<glyph unicode="&#xad;" horiz-adv-x="379" d="M58 259v86h280v-86h-280z" />
<glyph unicode="&#xae;" horiz-adv-x="683" d="M205 145v407h150q63 0 98.5 -31t35.5 -90v-24q0 -41 -20 -70.5t-55 -41.5l90 -146l-87 -7l-82 144h-58v-141h-72zM277 349h72q68 0 68 65v9q0 35 -17 49.5t-51 14.5h-72v-138zM56 205v287q0 99 84 158.5t202 59.5t201.5 -59.5t83.5 -158.5v-287q0 -100 -83.5 -159.5 t-201.5 -59.5q-119 0 -202.5 59.5t-83.5 159.5zM127 488v-279q0 -72 64.5 -112.5t150.5 -40.5q87 0 151 40.5t64 112.5v279q0 71 -64 111.5t-151 40.5q-86 0 -150.5 -40.5t-64.5 -111.5z" />
<glyph unicode="&#xaf;" horiz-adv-x="379" d="M50 623v86h280v-86h-280z" />
<glyph unicode="&#xb0;" horiz-adv-x="345" d="M45 569v16q0 59 34.5 94.5t91.5 35.5q60 0 95 -35.5t35 -94.5v-16q0 -62 -34.5 -96t-95.5 -34q-58 0 -92 34.5t-34 95.5zM170 498q68 0 68 77q0 78 -68 78q-61 0 -61 -78q0 -77 61 -77z" />
<glyph unicode="&#xb1;" horiz-adv-x="577" d="M58 320v83h189v157h83v-157h190v-83h-190v-157h-83v157h-189zM58 31v82h462v-82h-462z" />
<glyph unicode="&#xb2;" horiz-adv-x="409" d="M166 307h193v-68h-307v49l183 207q41 48 41 84q0 28 -18 46t-52 18q-33 0 -51.5 -20.5t-21.5 -50.5l-72 21q8 51 45.5 84.5t99.5 33.5q71 0 108.5 -36t37.5 -95q0 -63 -70 -141z" />
<glyph unicode="&#xb3;" horiz-adv-x="402" d="M54 346l73 24q2 -31 19.5 -51t50.5 -20q36 0 55.5 18.5t19.5 51.5v12q0 34 -12.5 54t-33.5 20h-72v60h71q20 0 31.5 22t11.5 44q0 27 -17.5 45.5t-49.5 18.5q-61 0 -69 -68l-71 21q8 50 44 81.5t96 31.5q68 0 104.5 -35.5t36.5 -92.5t-40 -95q21 -13 35 -42.5t14 -58.5 v-19q0 -63 -41 -100.5t-113 -37.5q-61 0 -98 32.5t-45 83.5z" />
<glyph unicode="&#xb4;" horiz-adv-x="281" d="M65 638l82 143l73 -44l-105 -131z" />
<glyph unicode="&#xb5;" horiz-adv-x="539" d="M383 557l93 13l-1 -373q0 -96 -52 -151.5t-140 -55.5q-71 0 -113 52v-56q0 -36 -4.5 -70t-9.5 -50l-4 -16l-92 13q18 43 18 124v570l93 13l-1 -361q0 -136 107 -136q51 0 78.5 34.5t27.5 101.5v348z" />
<glyph unicode="&#xb6;" horiz-adv-x="561" d="M296 -110v381h-31q-94 0 -147 52t-53 149v27q0 97 53.5 149t154.5 52h221v-810h-62v737h-73v-737h-63z" />
<glyph unicode="&#xb7;" horiz-adv-x="194" d="M97 254q-55 0 -55 59q0 63 55 63q57 0 57 -63q0 -59 -57 -59z" />
<glyph unicode="&#xb8;" horiz-adv-x="257" d="M50 -155l6 40q15 -5 32 -5q40 0 40 27q0 15 -14.5 22t-29.5 7h-14l25 64h66l-12 -35q60 -9 60 -61q0 -37 -29.5 -52.5t-71.5 -15.5q-34 0 -58 9z" />
<glyph unicode="&#xb9;" horiz-adv-x="236" d="M111 243v367l-66 -44l-36 55l117 83h60v-461h-75z" />
<glyph unicode="&#xba;" horiz-adv-x="397" d="M51 445v118q0 69 40 109t108 40q69 0 108.5 -40t39.5 -109v-118q0 -68 -39.5 -107.5t-108.5 -39.5q-68 0 -108 40t-40 107zM122 555v-101q0 -93 77 -93q79 0 79 93v101q0 94 -79 94q-77 0 -77 -94z" />
<glyph unicode="&#xbb;" horiz-adv-x="420" d="M248 101l-45 57l113 121l-113 122l45 57l142 -149v-59zM75 101l-45 57l113 121l-113 122l45 57l142 -149v-59z" />
<glyph unicode="&#xbc;" horiz-adv-x="785" d="M389 87v47l159 340l72 -12l-138 -308h129v158l75 13v-171h42v-67h-42v-87h-75v87h-222zM102 0l474 744l69 -44l-478 -746zM128 243v367l-65 -44l-36 55l116 83h60v-461h-75z" />
<glyph unicode="&#xbd;" horiz-adv-x="834" d="M567 744l69 -44l-478 -746l-66 46zM128 243v367l-65 -44l-36 55l116 83h60v-461h-75zM582 68h192v-68h-307v49l183 207q42 46 42 83q0 28 -18 46t-52 18t-52.5 -20t-21.5 -50l-72 20q8 51 45.5 85t100.5 34q70 0 108 -36.5t38 -95.5q0 -64 -70 -140z" />
<glyph unicode="&#xbe;" horiz-adv-x="890" d="M206 0l474 744l70 -44l-478 -746zM62 346l73 24q2 -31 19.5 -51t51.5 -20q36 0 55 18.5t19 51.5v12q0 34 -12.5 54t-33.5 20h-72v60h71q21 0 32 21.5t11 44.5q0 27 -17 45.5t-50 18.5q-61 0 -69 -68l-71 21q8 50 44 81.5t96 31.5q68 0 104.5 -35.5t36.5 -92.5 q0 -58 -40 -95q21 -13 35 -42.5t14 -58.5v-19q0 -63 -40.5 -100.5t-112.5 -37.5q-62 0 -98.5 32.5t-45.5 83.5zM494 87v47l158 340l73 -12l-139 -308h130l-1 158l76 13v-171h41v-67h-41v-87h-75v87h-222z" />
<glyph unicode="&#xbf;" horiz-adv-x="491" d="M222 499v34h94v-36q0 -20 -2.5 -38t-4.5 -30.5t-10 -27.5t-11 -22t-16 -22t-17.5 -19.5l-22 -22l-22.5 -22.5q-31 -32 -45.5 -61t-14.5 -68v-8q0 -39 25 -62t77 -23q90 0 106 73l89 -25q-16 -60 -65.5 -96.5t-129.5 -36.5q-96 0 -148.5 47t-52.5 121v16q0 60 23 100.5 t69 85.5q45 45 62 73.5t17 69.5zM269 600q-25 0 -40 14.5t-15 41.5t15.5 42t39.5 15q23 0 38 -14.5t15 -42.5q0 -27 -15 -41.5t-38 -14.5z" />
<glyph unicode="&#xc0;" d="M173 874l74 44l83 -143l-51 -32zM474 -10l-64 205h-239l-59 -195h-107l239 700h93l240 -697zM290 584l-93 -303h187z" />
<glyph unicode="&#xc1;" d="M257 778l82 143l74 -44l-105 -131zM474 -10l-64 205h-239l-59 -195h-107l239 700h93l240 -697zM290 584l-93 -303h187z" />
<glyph unicode="&#xc2;" d="M474 -10l-64 205h-239l-59 -195h-107l239 700h93l240 -697zM290 584l-93 -303h187zM183 778l69 103h77l70 -103l-68 -22l-41 72l-40 -72z" />
<glyph unicode="&#xc3;" d="M474 -10l-64 205h-239l-59 -195h-107l239 700h93l240 -697zM290 584l-93 -303h187zM191 767l-69 16q4 42 29 70t66 28q31 0 79.5 -22t59.5 -22q33 0 36 37l67 -15q-4 -44 -27.5 -71t-67.5 -27q-27 0 -74.5 21.5t-64.5 21.5q-34 0 -34 -37z" />
<glyph unicode="&#xc4;" d="M398 751q-51 0 -51 59q0 63 51 63q54 0 54 -63q0 -59 -54 -59zM179 751q-51 0 -51 59q0 63 51 63q55 0 55 -63q0 -28 -14.5 -43.5t-40.5 -15.5zM474 -10l-64 205h-239l-59 -195h-107l239 700h93l240 -697zM290 584l-93 -303h187z" />
<glyph unicode="&#xc5;" d="M474 -10l-64 205h-239l-59 -195h-107l239 700h93l240 -697zM290 584l-93 -303h187zM214 822v10q0 34 21 54.5t54 20.5q35 0 56.5 -20.5t21.5 -54.5v-10q0 -36 -21 -56t-57 -20q-34 0 -54.5 20.5t-20.5 55.5zM289 786q36 0 36 40t-36 40q-32 0 -32 -40t32 -40z" />
<glyph unicode="&#xc6;" horiz-adv-x="907" d="M2 0l364 700h499v-89h-299v-261h249v-88h-249v-174h306v-88h-403v235h-233l-116 -235h-118zM278 324h191v288h-50z" />
<glyph unicode="&#xc7;" horiz-adv-x="561" d="M154 479v-257q0 -70 36.5 -108.5t97.5 -38.5q47 0 80 20.5t47 57.5l92 -25q-17 -58 -65 -95.5t-119 -44.5l-8 -23q59 -9 59 -61q0 -37 -29.5 -52.5t-70.5 -15.5q-34 0 -58 9l6 40q15 -5 32 -5q40 0 40 27q0 15 -14.5 22t-29.5 7h-14l20 52q-89 9 -144.5 68.5t-55.5 151.5 v284q0 101 65 161.5t167 60.5q85 0 143 -38t76 -104l-92 -25q-14 37 -47 57.5t-80 20.5q-61 0 -97.5 -38.5t-36.5 -107.5z" />
<glyph unicode="&#xc8;" horiz-adv-x="498" d="M62 0v700h396v-89h-300v-210h250v-88h-250v-225h307v-88h-403zM167 869l73 44l83 -143l-50 -32z" />
<glyph unicode="&#xc9;" horiz-adv-x="498" d="M62 0v700h396v-89h-300v-211h250v-87h-250v-225h307v-88h-403zM226 779l82 143l74 -45l-106 -131z" />
<glyph unicode="&#xca;" horiz-adv-x="498" d="M62 0v700h396v-89h-300v-210h250v-88h-250v-225h307v-88h-403zM158 778l69 103h77l70 -103l-68 -22l-41 72l-40 -72z" />
<glyph unicode="&#xcb;" horiz-adv-x="498" d="M147 751q-51 0 -51 60q0 62 51 62q54 0 54 -62q0 -60 -54 -60zM365 751q-52 0 -52 60q0 62 52 62q53 0 53 -62q0 -60 -53 -60zM61 0v700h397v-89h-300v-210h250v-88h-250v-225h307v-88h-404z" />
<glyph unicode="&#xcc;" horiz-adv-x="218" d="M62 0v700h96v-700h-96zM5 871l74 44l82 -143l-50 -32z" />
<glyph unicode="&#xcd;" horiz-adv-x="218" d="M62 0v700h96v-700h-96zM68 769l83 143l73 -45l-106 -131z" />
<glyph unicode="&#xce;" horiz-adv-x="218" d="M62 0v700h96v-700h-96zM2 778l69 103h77l70 -103l-67 -22l-42 72l-40 -72z" />
<glyph unicode="&#xcf;" horiz-adv-x="218" d="M37 751q-51 0 -51 60q0 62 51 62q53 0 53 -62q0 -60 -53 -60zM61 0v700h97v-700h-97zM181 751q-50 0 -50 60q0 62 50 62q53 0 53 -62q0 -60 -53 -60z" />
<glyph unicode="&#xd0;" horiz-adv-x="582" d="M61 0v312h-52v85h52v303h246q101 0 160 -60t59 -162v-256q0 -102 -59 -162t-160 -60h-246zM158 88h149q59 0 90 38t31 109v230q0 71 -31 108.5t-90 37.5h-149v-214h148v-85h-148v-224z" />
<glyph unicode="&#xd1;" horiz-adv-x="602" d="M62 0v700h104l282 -526l-2 526h96v-700h-106l-282 524l3 -524h-95zM201 767l-68 16q3 42 28.5 70t65.5 28q31 0 80 -22t59 -22q33 0 36 37l67 -15q-3 -44 -27 -71t-68 -27q-27 0 -74 21.5t-64 21.5q-33 0 -35 -37z" />
<glyph unicode="&#xd2;" horiz-adv-x="594" d="M57 208v284q0 101 69 161.5t173 60.5q103 0 172 -60.5t69 -161.5v-284q0 -100 -69 -161t-172 -61q-104 0 -173 61t-69 161zM154 479v-257q0 -70 41 -108.5t104 -38.5q62 0 102.5 39t40.5 108v257q0 69 -40.5 107.5t-102.5 38.5q-63 0 -104 -38.5t-41 -107.5zM192 874 l73 44l83 -143l-51 -32z" />
<glyph unicode="&#xd3;" horiz-adv-x="594" d="M57 208v284q0 101 69 161.5t173 60.5q103 0 172 -60.5t69 -161.5v-284q0 -100 -69 -161t-172 -61q-104 0 -173 61t-69 161zM154 479v-257q0 -70 41 -108.5t104 -38.5q62 0 102.5 39t40.5 108v257q0 69 -40.5 107.5t-102.5 38.5q-63 0 -104 -38.5t-41 -107.5zM274 776 l82 142l73 -43l-105 -132z" />
<glyph unicode="&#xd4;" horiz-adv-x="594" d="M57 208v284q0 101 69 161.5t173 60.5q103 0 172 -60.5t69 -161.5v-284q0 -100 -69 -161t-172 -61q-104 0 -173 61t-69 161zM154 479v-257q0 -70 41 -108.5t104 -38.5q62 0 102.5 39t40.5 108v257q0 69 -40.5 107.5t-102.5 38.5q-63 0 -104 -38.5t-41 -107.5zM191 778 l69 103h76l71 -103l-68 -22l-41 72l-40 -72z" />
<glyph unicode="&#xd5;" horiz-adv-x="594" d="M57 208v284q0 101 69 161.5t173 60.5q103 0 172 -60.5t69 -161.5v-284q0 -100 -69 -161t-172 -61q-104 0 -173 61t-69 161zM154 479v-257q0 -70 41 -108.5t104 -38.5q62 0 102.5 39t40.5 108v257q0 69 -40.5 107.5t-102.5 38.5q-63 0 -104 -38.5t-41 -107.5zM199 767 l-69 16q4 42 29 70t66 28q31 0 80 -22t59 -22q33 0 36 38l67 -16q-3 -43 -27 -70.5t-67 -27.5q-28 0 -75 22t-65 22q-32 0 -34 -38z" />
<glyph unicode="&#xd6;" horiz-adv-x="602" d="M60 208v284q0 101 69 161.5t173 60.5q103 0 172 -60.5t69 -161.5v-284q0 -100 -69 -161t-172 -61q-104 0 -173 61t-69 161zM157 479v-257q0 -70 41 -108.5t104 -38.5t103.5 38.5t40.5 108.5v257q0 69 -40.5 107.5t-103.5 38.5t-104 -38.5t-41 -107.5zM409 751 q-51 0 -51 60q0 62 51 62q54 0 54 -62q0 -60 -54 -60zM191 751q-24 0 -37.5 16t-13.5 44q0 62 51 62q55 0 55 -62q0 -29 -14.5 -44.5t-40.5 -15.5z" />
<glyph unicode="&#xd7;" horiz-adv-x="536" d="M42 98l170 179l-170 179l56 59l170 -179l171 179l55 -59l-170 -179l170 -179l-55 -59l-171 179l-170 -179z" />
<glyph unicode="&#xd8;" horiz-adv-x="594" d="M50 80l-47 78l53 44v289q0 101 69.5 162t172.5 61q73 0 130.5 -32.5t85.5 -89.5l32 26l46 -77l-52 -45v-287q0 -101 -69.5 -162t-172.5 -61q-73 0 -130.5 32t-85.5 89zM442 222v192l-282 -240q12 -47 50 -73t88 -26q63 0 103.5 38.5t40.5 108.5zM154 286l282 239 q-13 48 -50 74t-88 26q-63 0 -103.5 -38.5t-40.5 -108.5v-192z" />
<glyph unicode="&#xd9;" horiz-adv-x="580" d="M166 877l73 44l83 -143l-50 -32zM274 72q49 0 88.5 21.5t61.5 53.5v553h97v-517q0 -96 27 -160l-86 -33q-11 18 -26 71q-29 -31 -76.5 -53t-97.5 -22q-203 0 -203 208v503l98 13v-503q0 -71 27.5 -103t89.5 -32z" />
<glyph unicode="&#xda;" horiz-adv-x="580" d="M259 778l83 143l73 -44l-106 -131zM274 72q49 0 88.5 21.5t61.5 53.5v553h97v-517q0 -96 27 -160l-86 -33q-11 18 -26 71q-29 -31 -76.5 -53t-97.5 -22q-203 0 -203 208v503l98 13v-503q0 -71 27.5 -103t89.5 -32z" />
<glyph unicode="&#xdb;" horiz-adv-x="580" d="M185 778l70 103h77l70 -103l-68 -22l-41 72l-40 -72zM274 72q49 0 88.5 21.5t61.5 53.5v553h97v-517q0 -96 27 -160l-86 -33q-11 18 -26 71q-29 -31 -76.5 -53t-97.5 -22q-203 0 -203 208v503l98 13v-503q0 -71 27.5 -103t89.5 -32z" />
<glyph unicode="&#xdc;" horiz-adv-x="580" d="M404 751q-51 0 -51 59q0 63 51 63q54 0 54 -63q0 -59 -54 -59zM186 751q-50 0 -50 59q0 63 50 63q55 0 55 -63q0 -59 -55 -59zM274 72q49 0 88.5 21.5t61.5 53.5v553h97v-517q0 -96 27 -160l-86 -33q-11 18 -26 71q-29 -31 -76.5 -53t-97.5 -22q-203 0 -203 208v503 l98 13v-503q0 -71 27.5 -103t89.5 -32z" />
<glyph unicode="&#xdd;" horiz-adv-x="531" d="M225 778l82 143l74 -44l-105 -131zM218 0v237l-212 460l109 13l152 -372l147 362h113l-212 -461v-239h-97z" />
<glyph unicode="&#xde;" horiz-adv-x="562" d="M61 0v700h97v-125h138q102 0 160.5 -54.5t58.5 -154.5v-32q0 -100 -58.5 -154.5t-160.5 -54.5h-138v-125h-97zM158 213h138q121 0 121 132v10q0 131 -121 131h-138v-273z" />
<glyph unicode="&#xdf;" horiz-adv-x="559" d="M68 0v375h-60v82h60v96q0 98 48.5 152.5t138.5 54.5q82 0 127 -38.5t46 -112.5q0 -36 -18 -66.5t-39.5 -48t-39.5 -40t-18 -44.5q0 -27 20.5 -51t49.5 -43.5t57.5 -41t49 -56.5t20.5 -78q0 -70 -46.5 -112t-138.5 -42q-51 0 -93 14l15 80q36 -11 74 -11q40 0 66.5 18.5 t26.5 52.5q0 27 -20 50t-48 42.5t-56 41.5t-48 55t-20 75q0 32 11.5 57t27.5 41t32 30t27.5 33.5t11.5 43.5q0 69 -78 69q-93 0 -93 -136v-542h-93z" />
<glyph unicode="&#xe0;" horiz-adv-x="520" d="M150 737l73 44l83 -143l-50 -32zM139 152q-1 -44 25.5 -65t71.5 -21q82 0 126 66v106h-124q-51 0 -75 -19.5t-24 -66.5zM454 386v-211q0 -98 27 -153l-80 -32q-17 28 -25 59q-61 -59 -150 -59q-86 0 -133.5 40t-47.5 120q0 86 48.5 122t140.5 36h128v64q0 62 -25.5 88.5 t-80.5 26.5q-45 0 -73.5 -20t-35.5 -52l-87 25q14 56 66.5 93t129.5 37q97 0 148 -46.5t50 -137.5z" />
<glyph unicode="&#xe1;" horiz-adv-x="520" d="M215 638l82 143l73 -44l-105 -131zM139 152q-1 -44 25.5 -65t71.5 -21q82 0 126 66v106h-124q-51 0 -75 -19.5t-24 -66.5zM454 386v-211q0 -98 27 -153l-80 -32q-17 28 -25 59q-61 -59 -150 -59q-86 0 -133.5 40t-47.5 120q0 86 48.5 122t140.5 36h128v64 q0 62 -25.5 88.5t-80.5 26.5q-45 0 -73.5 -20t-35.5 -52l-87 25q14 56 66.5 93t129.5 37q97 0 148 -46.5t50 -137.5z" />
<glyph unicode="&#xe2;" horiz-adv-x="520" d="M139 152q-1 -44 25.5 -65t71.5 -21q82 0 126 66v106h-124q-51 0 -75 -19.5t-24 -66.5zM454 386v-211q0 -98 27 -153l-80 -32q-17 28 -25 59q-61 -59 -150 -59q-86 0 -133.5 40t-47.5 120q0 86 48.5 122t140.5 36h128v64q0 62 -25.5 88.5t-80.5 26.5q-45 0 -73.5 -20 t-35.5 -52l-87 25q14 56 66.5 93t129.5 37q97 0 148 -46.5t50 -137.5zM148 638l70 103h77l70 -103l-68 -22l-41 72l-40 -72z" />
<glyph unicode="&#xe3;" horiz-adv-x="520" d="M153 627l-68 16q4 42 29.5 70t65.5 28q31 0 79.5 -22t59.5 -22q33 0 36 37l67 -15q-4 -44 -27.5 -71t-67.5 -27q-28 0 -74.5 21.5t-63.5 21.5q-33 0 -36 -37zM139 152q-1 -44 25.5 -65t71.5 -21q82 0 126 66v106h-124q-51 0 -75 -19.5t-24 -66.5zM454 386v-211 q0 -98 27 -153l-80 -32q-17 28 -25 59q-61 -59 -150 -59q-86 0 -133.5 40t-47.5 120q0 86 48.5 122t140.5 36h128v64q0 62 -25.5 88.5t-80.5 26.5q-45 0 -73.5 -20t-35.5 -52l-87 25q14 56 66.5 93t129.5 37q97 0 148 -46.5t50 -137.5z" />
<glyph unicode="&#xe4;" horiz-adv-x="527" d="M360 611q-51 0 -51 59q0 63 51 63q54 0 54 -63q0 -59 -54 -59zM153 611q-50 0 -52 59q0 63 52 63q54 0 54 -63q0 -59 -54 -59zM139 152q-1 -44 25.5 -65t71.5 -21q82 0 126 66v106h-124q-51 0 -75 -19.5t-24 -66.5zM454 386v-211q0 -98 27 -153l-80 -32q-17 28 -25 59 q-61 -59 -150 -59q-86 0 -133.5 40t-47.5 120q0 86 48.5 122t140.5 36h128v64q0 62 -25.5 88.5t-80.5 26.5q-45 0 -73.5 -20t-35.5 -52l-87 25q14 56 66.5 93t129.5 37q97 0 148 -46.5t50 -137.5z" />
<glyph unicode="&#xe5;" horiz-adv-x="527" d="M190 682v10q0 34 21 54.5t54 20.5q36 0 57.5 -20.5t21.5 -54.5v-10q0 -36 -21.5 -56t-57.5 -20q-34 0 -54.5 20.5t-20.5 55.5zM265 646q35 0 35 40t-35 40q-32 0 -32 -40t32 -40zM139 152q-1 -44 25.5 -65t71.5 -21q82 0 126 66v106h-124q-51 0 -75 -19.5t-24 -66.5z M454 386v-211q0 -98 27 -153l-80 -32q-17 28 -25 59q-61 -59 -150 -59q-86 0 -133.5 40t-47.5 120q0 86 48.5 122t140.5 36h128v64q0 62 -25.5 88.5t-80.5 26.5q-45 0 -73.5 -20t-35.5 -52l-87 25q14 56 66.5 93t129.5 37q97 0 148 -46.5t50 -137.5z" />
<glyph unicode="&#xe6;" horiz-adv-x="843" d="M370 137v111h-132q-91 0 -91 -86q0 -43 23.5 -67.5t64.5 -24.5t77 19.5t58 47.5zM462 319h229v35q0 134 -114 134q-55 0 -85 -33t-30 -96v-40zM773 125q-16 -62 -67 -98.5t-129 -36.5q-119 0 -171 82q-74 -82 -191 -82q-77 0 -120 45.5t-43 122.5q0 161 178 161h140v46 q0 122 -106 122q-44 0 -72 -20t-36 -53l-87 25q15 57 66.5 94t128.5 37q106 0 156 -72q52 72 157 72q95 0 150.5 -55t55.5 -152v-114h-321v-43q0 -66 29.5 -100t85.5 -34q90 0 110 76z" />
<glyph unicode="&#xe7;" horiz-adv-x="523" d="M155 351v-142q0 -67 29.5 -101.5t84.5 -34.5q89 0 109 75l86 -23q-14 -54 -55 -89.5t-105 -42.5l-9 -28q26 -3 43 -18.5t17 -42.5q0 -37 -29.5 -52.5t-71.5 -15.5q-35 0 -59 8l7 40q18 -4 30 -4q42 0 42 27q0 15 -14.5 22t-29.5 7h-14l22 56q-83 9 -129.5 63t-46.5 142 v166q0 97 55.5 152t151.5 55q78 0 129 -35.5t67 -97.5l-87 -25q-18 75 -109 75q-55 0 -84.5 -34.5t-29.5 -101.5z" />
<glyph unicode="&#xe8;" horiz-adv-x="534" d="M151 737l74 44l83 -143l-51 -32zM62 197v166q0 96 55.5 151.5t151.5 55.5t151.5 -55t55.5 -152v-115h-321v-43q0 -133 114 -133q90 0 110 76l85 -24q-16 -61 -66.5 -97.5t-128.5 -36.5q-96 0 -151.5 55.5t-55.5 151.5zM154 322h229v32q0 134 -114 134q-55 0 -85 -34 t-30 -100v-32z" />
<glyph unicode="&#xe9;" horiz-adv-x="534" d="M240 638l83 143l73 -44l-106 -131zM62 197v166q0 96 55.5 151.5t151.5 55.5t151.5 -55t55.5 -152v-115h-321v-43q0 -133 114 -133q90 0 110 76l85 -24q-16 -61 -66.5 -97.5t-128.5 -36.5q-96 0 -151.5 55.5t-55.5 151.5zM154 322h229v32q0 134 -114 134q-55 0 -85 -34 t-30 -100v-32z" />
<glyph unicode="&#xea;" horiz-adv-x="534" d="M162 638l70 103h77l70 -103l-68 -22l-41 72l-40 -72zM62 197v166q0 96 55.5 151.5t151.5 55.5t151.5 -55t55.5 -152v-115h-321v-43q0 -133 114 -133q90 0 110 76l85 -24q-16 -61 -66.5 -97.5t-128.5 -36.5q-96 0 -151.5 55.5t-55.5 151.5zM154 322h229v32q0 134 -114 134 q-55 0 -85 -34t-30 -100v-32z" />
<glyph unicode="&#xeb;" horiz-adv-x="534" d="M159 611q-24 0 -37.5 15.5t-13.5 43.5q0 63 51 63q55 0 55 -63q0 -28 -14.5 -43.5t-40.5 -15.5zM377 611q-51 0 -51 59q0 63 51 63q54 0 54 -63q0 -59 -54 -59zM62 197v166q0 96 55.5 151.5t151.5 55.5t151.5 -55t55.5 -152v-115h-321v-43q0 -133 114 -133q90 0 110 76 l85 -24q-16 -61 -66.5 -97.5t-128.5 -36.5q-96 0 -151.5 55.5t-55.5 151.5zM154 322h229v32q0 134 -114 134q-55 0 -85 -34t-30 -100v-32z" />
<glyph unicode="&#xec;" horiz-adv-x="227" d="M-3 737l74 44l82 -143l-50 -32zM7 560h153v-560h-92v481h-61v79z" />
<glyph unicode="&#xed;" horiz-adv-x="227" d="M81 638l82 143l73 -44l-105 -131zM7 560h153v-560h-92v481h-61v79z" />
<glyph unicode="&#xee;" horiz-adv-x="227" d="M6 638l70 103h77l69 -103l-67 -22l-41 72l-40 -72zM7 560h153v-560h-92v481h-61v79z" />
<glyph unicode="&#xef;" horiz-adv-x="227" d="M32 614q-23 0 -36 15t-13 41q0 60 49 60q51 0 51 -60q0 -26 -13.5 -41t-37.5 -15zM175 614q-23 0 -36 15t-13 41q0 60 49 60q51 0 51 -60q0 -26 -13.5 -41t-37.5 -15zM7 560h153v-560h-92v481h-61v79z" />
<glyph unicode="&#xf0;" horiz-adv-x="534" d="M62 190v148q0 96 46.5 145t135.5 49q78 0 136 -48v26q0 47 -19 82l-57 -45l-42 55l45 36q-30 14 -64 14q-33 0 -58 -9l-21 77q40 15 83 15q80 0 132 -35l65 52l42 -55l-54 -45q38 -54 38 -126v-332q0 -96 -54 -150t-152 -54q-93 0 -147.5 52.5t-54.5 147.5zM150 318v-108 q0 -141 114 -141q116 0 116 141v184q-21 25 -56 42t-70 17q-56 0 -80 -32.5t-24 -102.5z" />
<glyph unicode="&#xf1;" horiz-adv-x="537" d="M171 627l-68 16q3 41 28.5 69.5t65.5 28.5q31 0 80 -22t60 -22q32 0 35 37l68 -15q-4 -44 -28 -71t-67 -27q-27 0 -74.5 21.5t-64.5 21.5q-32 0 -35 -37zM68 0v557l92 13v-65q63 65 140 65q170 0 170 -193v-377h-92v364q0 64 -21 93.5t-74 29.5q-33 0 -66.5 -21.5 t-56.5 -50.5v-415h-92z" />
<glyph unicode="&#xf2;" horiz-adv-x="536" d="M155 351v-142q0 -67 29.5 -101.5t84.5 -34.5q114 0 114 136v142q0 136 -114 136q-55 0 -84.5 -34.5t-29.5 -101.5zM62 197v166q0 96 55.5 151.5t151.5 55.5t151.5 -55t55.5 -152v-166q0 -97 -55.5 -152t-151.5 -55t-151.5 55.5t-55.5 151.5zM158 737l74 44l82 -143 l-50 -32z" />
<glyph unicode="&#xf3;" horiz-adv-x="536" d="M155 351v-142q0 -67 29.5 -101.5t84.5 -34.5q114 0 114 136v142q0 136 -114 136q-55 0 -84.5 -34.5t-29.5 -101.5zM62 197v166q0 96 55.5 151.5t151.5 55.5t151.5 -55t55.5 -152v-166q0 -97 -55.5 -152t-151.5 -55t-151.5 55.5t-55.5 151.5zM242 638l82 143l74 -44 l-106 -131z" />
<glyph unicode="&#xf4;" horiz-adv-x="536" d="M155 351v-142q0 -67 29.5 -101.5t84.5 -34.5q114 0 114 136v142q0 136 -114 136q-55 0 -84.5 -34.5t-29.5 -101.5zM62 197v166q0 96 55.5 151.5t151.5 55.5t151.5 -55t55.5 -152v-166q0 -97 -55.5 -152t-151.5 -55t-151.5 55.5t-55.5 151.5zM160 638l70 103h77l70 -103 l-68 -22l-41 72l-40 -72z" />
<glyph unicode="&#xf5;" horiz-adv-x="536" d="M155 351v-142q0 -67 29.5 -101.5t84.5 -34.5q114 0 114 136v142q0 136 -114 136q-55 0 -84.5 -34.5t-29.5 -101.5zM62 197v166q0 96 55.5 151.5t151.5 55.5t151.5 -55t55.5 -152v-166q0 -97 -55.5 -152t-151.5 -55t-151.5 55.5t-55.5 151.5zM169 627l-68 16q3 42 28.5 70 t66.5 28q31 0 79 -22t59 -22q33 0 36 37l67 -15q-3 -44 -27 -71t-67 -27q-28 0 -75 21.5t-64 21.5q-33 0 -35 -37z" />
<glyph unicode="&#xf6;" horiz-adv-x="536" d="M155 351v-142q0 -136 114 -136q55 0 84.5 34.5t29.5 101.5v142q0 67 -29.5 101.5t-84.5 34.5q-114 0 -114 -136zM62 197v166q0 96 55.5 151.5t151.5 55.5t151.5 -55t55.5 -152v-166q0 -97 -55.5 -152t-151.5 -55t-151.5 55.5t-55.5 151.5zM159 611q-52 0 -52 60 q0 62 52 62q54 0 54 -62q0 -28 -14 -44t-40 -16zM376 611q-24 0 -37.5 16t-13.5 44q0 62 51 62q54 0 54 -62q0 -60 -54 -60z" />
<glyph unicode="&#xf7;" horiz-adv-x="552" d="M272 -10q-55 0 -55 60q0 62 55 62q57 0 57 -62q0 -60 -57 -60zM272 448q-55 0 -55 59q0 63 55 63q57 0 57 -63q0 -59 -57 -59zM44 237v86h464v-86h-464z" />
<glyph unicode="&#xf8;" horiz-adv-x="536" d="M51 37l-47 75l60 51q-2 11 -2 34v166q0 96 55.5 151.5t151.5 55.5q120 0 172 -85l49 40l44 -77l-61 -52q3 -15 3 -33v-166q0 -97 -55.5 -152t-151.5 -55q-122 0 -173 85zM384 209v110l-218 -184q26 -63 103 -63q55 0 85 35t30 102zM371 424q-26 64 -102 64 q-56 0 -85.5 -35t-29.5 -102v-110z" />
<glyph unicode="&#xf9;" horiz-adv-x="527" d="M161 737l74 44l83 -143l-50 -32zM384 50q-62 -60 -149 -60q-170 0 -170 202v365l92 13v-367q0 -69 20 -100t70 -31q83 0 123 63v422l92 13v-395q0 -98 27 -153l-79 -32q-15 22 -26 60z" />
<glyph unicode="&#xfa;" horiz-adv-x="527" d="M224 638l83 143l74 -44l-107 -131zM384 50q-62 -60 -149 -60q-170 0 -170 202v365l92 13v-367q0 -69 20 -100t70 -31q83 0 123 63v422l92 13v-395q0 -98 27 -153l-79 -32q-15 22 -26 60z" />
<glyph unicode="&#xfb;" horiz-adv-x="527" d="M156 638l69 103h77l70 -103l-68 -22l-41 72l-40 -72zM384 50q-62 -60 -149 -60q-170 0 -170 202v365l92 13v-367q0 -69 20 -100t70 -31q83 0 123 63v422l92 13v-395q0 -98 27 -153l-79 -32q-15 22 -26 60z" />
<glyph unicode="&#xfc;" horiz-adv-x="527" d="M156 611q-25 0 -38.5 15.5t-13.5 43.5q0 63 52 63q26 0 40 -16.5t14 -46.5q0 -28 -14.5 -43.5t-39.5 -15.5zM373 611q-51 0 -51 59q0 63 51 63q26 0 40 -16.5t14 -46.5q0 -28 -14.5 -43.5t-39.5 -15.5zM384 50q-62 -60 -149 -60q-170 0 -170 202v365l92 13v-367 q0 -69 20 -100t70 -31q83 0 123 63v422l92 13v-395q0 -98 27 -153l-79 -32q-15 22 -26 60z" />
<glyph unicode="&#xfd;" horiz-adv-x="539" d="M218 638l82 143l74 -44l-105 -131zM74 -27l88 15q6 -36 32 -50.5t80 -14.5q109 0 109 115v63q-59 -62 -146 -62q-170 0 -169 184v334l92 13v-326q-1 -63 22 -92t76 -29q35 0 68.5 18.5t53.5 45.5v370l93 13v-543q0 -91 -53 -139t-146 -48q-188 0 -200 133z" />
<glyph unicode="&#xfe;" horiz-adv-x="539" d="M161 413v-319q43 -21 114 -21q53 0 81 33.5t28 96.5l1 155q0 65 -23.5 97t-76.5 32q-34 0 -67.5 -22t-56.5 -52zM68 -153v873l93 13v-226q60 63 138 63q178 0 178 -200v-180q0 -91 -53 -145.5t-144 -54.5q-74 0 -119 21v-151z" />
<glyph unicode="&#xff;" horiz-adv-x="539" d="M163 611q-51 0 -51 59q0 63 51 63q54 0 54 -63q0 -59 -54 -59zM380 611q-24 0 -37.5 15.5t-13.5 43.5q0 30 13.5 46.5t37.5 16.5q54 0 54 -63q0 -59 -54 -59zM74 -27l88 15q6 -36 32 -50.5t80 -14.5q109 0 109 115v63q-59 -62 -146 -62q-170 0 -169 184v334l92 13v-326 q-1 -63 22 -92t76 -29q35 0 68.5 18.5t53.5 45.5v370l93 13v-543q0 -91 -53 -139t-146 -48q-188 0 -200 133z" />
<glyph unicode="&#x152;" horiz-adv-x="847" d="M60 209v282q0 102 63 162.5t165 60.5q43 0 81.5 -16.5t58.5 -46.5v49h378v-89h-281v-210h231v-88h-231v-225h288v-88h-385v46q-50 -60 -140 -60q-102 0 -165 60.5t-63 162.5zM157 479v-257q0 -71 37 -109t98 -38q59 0 97.5 39t38.5 106v261q0 67 -38 105.5t-98 38.5 q-61 0 -98 -38t-37 -108z" />
<glyph unicode="&#x153;" horiz-adv-x="856" d="M155 351v-142q0 -136 114 -136q111 0 114 122v164q0 128 -114 128t-114 -136zM476 332l228 1v22q0 65 -29 99t-85 34q-114 0 -114 -125v-31zM786 125q-16 -61 -67 -98t-130 -37q-111 0 -160 75q-49 -75 -160 -75q-96 0 -151.5 55t-55.5 152v166q0 97 55.5 152t151.5 55 q107 0 160 -76q53 76 160 76q96 0 152 -55.5t56 -151.5v-103h-322v-63q3 -125 114 -125q92 0 111 76z" />
<glyph unicode="&#x178;" horiz-adv-x="531" d="M372 751q-50 0 -50 59q0 63 50 63q55 0 55 -63q0 -59 -55 -59zM155 751q-51 0 -51 59q0 63 51 63q55 0 55 -63q0 -59 -55 -59zM218 0v237l-212 460l109 13l152 -372l147 362h113l-212 -461v-239h-97z" />
<glyph unicode="&#x2c6;" horiz-adv-x="344" d="M65 638l69 103h77l70 -103l-68 -22l-41 72l-40 -72z" />
<glyph unicode="&#x2dc;" horiz-adv-x="424" d="M112 627l-68 16q3 42 28.5 70t65.5 28q31 0 80 -22t60 -22q32 0 35 38l68 -17q-4 -43 -28 -70t-67 -27q-27 0 -74.5 21.5t-64.5 21.5q-33 0 -35 -37z" />
<glyph unicode="&#x2000;" horiz-adv-x="461" />
<glyph unicode="&#x2001;" horiz-adv-x="922" />
<glyph unicode="&#x2002;" horiz-adv-x="461" />
<glyph unicode="&#x2003;" horiz-adv-x="922" />
<glyph unicode="&#x2004;" horiz-adv-x="307" />
<glyph unicode="&#x2005;" horiz-adv-x="230" />
<glyph unicode="&#x2006;" horiz-adv-x="153" />
<glyph unicode="&#x2007;" horiz-adv-x="153" />
<glyph unicode="&#x2008;" horiz-adv-x="115" />
<glyph unicode="&#x2009;" horiz-adv-x="184" />
<glyph unicode="&#x200a;" horiz-adv-x="51" />
<glyph unicode="&#x2010;" horiz-adv-x="381" d="M51 259v86h280v-86h-280z" />
<glyph unicode="&#x2011;" horiz-adv-x="381" d="M51 259v86h280v-86h-280z" />
<glyph unicode="&#x2012;" horiz-adv-x="381" d="M51 259v86h280v-86h-280z" />
<glyph unicode="&#x2013;" horiz-adv-x="483" d="M8 259v86h469v-86h-469z" />
<glyph unicode="&#x2014;" horiz-adv-x="795" d="M8 259v86h781v-86h-781z" />
<glyph unicode="&#x2018;" horiz-adv-x="202" d="M176 583l-22 -49q-62 18 -87 63t-25 92q0 61 58 61q25 0 39.5 -15.5t14.5 -45.5q0 -35 -21 -50q0 -36 43 -56z" />
<glyph unicode="&#x2019;" horiz-adv-x="202" d="M49 534l-21 49q42 21 42 56q-21 15 -21 50q0 61 55 61q26 0 42 -15.5t16 -45.5q0 -47 -25.5 -92t-87.5 -63z" />
<glyph unicode="&#x201a;" horiz-adv-x="202" d="M49 -105l-21 49q42 21 42 56q-21 15 -21 49q0 30 15 46t40 16q26 0 42 -16t16 -46q0 -28 -8 -55t-35 -57t-70 -42z" />
<glyph unicode="&#x201c;" horiz-adv-x="359" d="M176 583l-22 -49q-62 18 -87 63t-25 92q0 61 58 61q25 0 39.5 -15.5t14.5 -45.5q0 -35 -21 -50q0 -36 43 -56zM333 583l-22 -49q-62 18 -87 63t-25 92q0 61 58 61q25 0 39.5 -15.5t14.5 -45.5q0 -35 -21 -50q1 -35 43 -56z" />
<glyph unicode="&#x201d;" horiz-adv-x="359" d="M206 534l-21 49q42 22 42 56q-21 15 -21 50q0 61 55 61q26 0 41.5 -15.5t15.5 -45.5q0 -47 -25 -92t-87 -63zM49 534l-21 49q42 21 42 56q-21 15 -21 50q0 61 55 61q26 0 42 -15.5t16 -45.5q0 -47 -25.5 -92t-87.5 -63z" />
<glyph unicode="&#x201e;" horiz-adv-x="359" d="M206 -105l-21 49q42 22 42 56q-21 15 -21 49q0 30 15 46t40 16q26 0 41.5 -16t15.5 -46q0 -46 -25 -91t-87 -63zM49 -105l-21 49q42 21 42 56q-21 15 -21 49q0 30 15 46t40 16q26 0 42 -16t16 -46q0 -28 -8 -55t-35 -57t-70 -42z" />
<glyph unicode="&#x2022;" horiz-adv-x="415" d="M205 162q-68 0 -107 40t-39 120q0 83 39 125t107 42q70 0 111 -42.5t41 -124.5q0 -79 -40.5 -119.5t-111.5 -40.5z" />
<glyph unicode="&#x2026;" horiz-adv-x="518" d="M94 -11q-52 0 -52 59q0 63 52 63q55 0 55 -63q0 -59 -55 -59zM258 -11q-25 0 -39 15t-14 44q0 63 53 63q55 0 55 -63q0 -59 -55 -59zM422 -11q-25 0 -39 15t-14 44q0 63 53 63q55 0 55 -63q0 -59 -55 -59z" />
<glyph unicode="&#x202f;" horiz-adv-x="184" />
<glyph unicode="&#x2039;" horiz-adv-x="281" d="M125 279l112 -121l-45 -57l-141 149v59l141 149l45 -57z" />
<glyph unicode="&#x203a;" horiz-adv-x="281" d="M90 101l-45 57l113 121l-113 122l45 57l142 -149v-59z" />
<glyph unicode="&#x205f;" horiz-adv-x="230" />
<glyph unicode="&#x20ac;" horiz-adv-x="600" />
<glyph unicode="&#x2122;" horiz-adv-x="853" d="M374 239v463h77l139 -256l136 256h78v-463h-74l2 323l-110 -202h-66l-109 201l2 -322h-75zM152 239v396h-123v67h319v-67h-121v-396h-75z" />
<glyph unicode="&#x25fc;" horiz-adv-x="570" d="M0 570h570v-570h-570v570z" />
<glyph unicode="&#xfb01;" horiz-adv-x="521" d="M68 0v478h-60v82h60v22q0 85 46 118t139 33q38 0 87.5 -11t77.5 -22l-21 -69q-73 23 -144 23q-49 0 -70.5 -14.5t-21.5 -50.5v-29h287v-560h-92v478h-195v-478h-93z" />
<glyph unicode="&#xfb02;" horiz-adv-x="512" d="M68 0v445h-60v79h60v24q-1 85 52 134t144 49q101 0 181 -50v-681h-93v635q-41 13 -84 13q-52 0 -80 -28t-28 -78v-18h142v-79h-141v-445h-93z" />
<glyph unicode="&#xfb03;" horiz-adv-x="749" d="M68 0v481h-60v79h60q0 98 45.5 140t131.5 42q66 0 131 -42q54 60 150 60q75 0 132 -25l-19 -69q-60 16 -108 16q-54 0 -80.5 -28t-26.5 -94h259v-560h-93v481h-166v-481h-92v481h-171v-481h-93zM161 560h171q0 47 13 77q-45 25 -91 25q-50 0 -71.5 -20.5t-21.5 -81.5z " />
<glyph unicode="&#xfb04;" horiz-adv-x="774" d="M68 0v445h-60v79h60v36q0 182 181 182q65 0 132 -41q53 59 147 59t179 -49v-711h-92v664q-41 13 -84 13q-107 0 -107 -127v-26h141v-79h-141v-445h-92v445h-171v-445h-93zM161 524h171v38q0 43 13 72q-45 25 -91 25q-49 0 -71 -23t-22 -87v-25z" />
</font>
</defs>
</svg>
