<?xml version="1.0" standalone="no"?>
<!DOCTYPE svg PUBLIC "-//W3C//DTD SVG 1.1//EN" "http://www.w3.org/Graphics/SVG/1.1/DTD/svg11.dtd" >
<svg xmlns="http://www.w3.org/2000/svg">
<metadata></metadata>
<defs>
<font id="estandar_extralightextralight" horiz-adv-x="531" >
<font-face units-per-em="1000" ascent="750" descent="-250" />
<missing-glyph horiz-adv-x="231" />
<glyph horiz-adv-x="1000" />
<glyph horiz-adv-x="1000" />
<glyph unicode="&#xd;" horiz-adv-x="1000" />
<glyph unicode=" "  horiz-adv-x="231" />
<glyph unicode="&#x09;" horiz-adv-x="231" />
<glyph unicode="&#xa0;" horiz-adv-x="231" />
<glyph unicode="!" horiz-adv-x="216" d="M86 159l-6 373v168h58v-168l-6 -373h-46zM108 -10q-32 0 -32 43q0 40 32 40q34 0 34 -40q0 -43 -34 -43z" />
<glyph unicode="&#x22;" horiz-adv-x="244" d="M46 564l-9 186h64l-9 -186h-46zM154 564l-9 186h64l-9 -186h-46z" />
<glyph unicode="#" horiz-adv-x="628" d="M115 0l42 209h-131l11 50h130l37 182h-132l12 51h130l43 208h51l-42 -208h147l42 208h53l-44 -208h139l-12 -51h-136l-38 -182h138l-11 -50h-137l-43 -209h-51l42 209h-148l-41 -209h-51zM219 259h148l35 182h-147z" />
<glyph unicode="$" horiz-adv-x="535" d="M247 -100v102q-70 6 -119.5 41.5t-68.5 90.5l57 29q16 -39 50 -66.5t81 -34.5v259q-182 24 -182 176v21q0 79 45 127.5t137 52.5v102h47v-103q60 -6 101.5 -38t61.5 -81l-57 -23q-12 31 -40 53.5t-66 28.5v-257q82 -9 136 -48.5t54 -120.5v-25q0 -82 -48.5 -131 t-141.5 -54v-101h-47zM294 317v-256q64 6 97 41t33 91v7q0 97 -130 117zM247 384v255q-62 -6 -92 -39.5t-30 -85.5v-8q0 -59 30.5 -85.5t91.5 -36.5z" />
<glyph unicode="%" horiz-adv-x="821" d="M56 426v143q0 66 38.5 104.5t102.5 38.5t102 -38.5t38 -104.5v-143q0 -65 -38.5 -103.5t-101.5 -38.5q-64 0 -102.5 38.5t-38.5 103.5zM103 560v-126q0 -51 25.5 -78.5t68.5 -27.5q42 0 67.5 27.5t25.5 78.5v126q0 51 -25.5 79.5t-67.5 28.5q-43 0 -68.5 -28.5 t-25.5 -79.5zM488 133v143q0 66 38 104.5t102 38.5q62 0 100 -39t38 -104v-143q0 -65 -38 -104t-100 -39q-64 0 -102 38.5t-38 104.5zM533 267v-126q0 -52 25.5 -79.5t69.5 -27.5q42 0 67.5 28t25.5 79v126q0 51 -25.5 79.5t-67.5 28.5q-44 0 -69.5 -28t-25.5 -80zM126 0 l531 733l39 -33l-532 -730z" />
<glyph unicode="&#x26;" horiz-adv-x="670" d="M68 156v13q0 43 26 85t52.5 65.5t66.5 52.5q-30 32 -47 54t-33.5 56.5t-16.5 67.5q0 72 44 118t124 46q169 0 169 -152q0 -31 -9 -56.5t-31 -49t-41 -39t-55 -42.5q-10 -7 -15 -11l173 -194q47 83 49 153l59 -12q-7 -94 -67 -185l93 -101l-49 -38l-81 91 q-87 -92 -198 -92q-213 0 -213 170zM129 162v-4q0 -117 151 -117q92 0 159 79l-187 210q-65 -48 -94 -85t-29 -83zM263 407q12 9 38 28t38 29t28 26.5t22.5 33.5t6.5 37q0 50 -25 73.5t-87 23.5q-110 0 -110 -103q0 -22 9.5 -44t16 -31.5t33 -38.5t30.5 -34z" />
<glyph unicode="'" horiz-adv-x="136" d="M46 564l-9 186h64l-9 -186h-46z" />
<glyph unicode="(" horiz-adv-x="280" d="M65 125v390q0 96 49 163.5t128 79.5l12 -53q-58 -9 -95.5 -66t-37.5 -138v-362q0 -81 37.5 -138t95.5 -65l-12 -54q-79 12 -128 79t-49 164z" />
<glyph unicode=")" horiz-adv-x="280" d="M39 758q79 -12 128 -79.5t49 -163.5v-390q0 -97 -49 -164t-128 -79l-13 54q58 8 96 65t38 138v362q0 81 -38 138t-96 66z" />
<glyph unicode="*" horiz-adv-x="431" d="M92 407l85 119l-134 41l18 58l130 -48l-3 146h58l-2 -145l128 47l18 -58l-132 -42l84 -118l-47 -35l-78 122l-79 -122z" />
<glyph unicode="+" horiz-adv-x="565" d="M255 43v231h-198v58h198v231h57v-231h198v-58h-198v-231h-57z" />
<glyph unicode="," horiz-adv-x="171" d="M42 -105l-21 34q42 31 42 67q-16 11 -16 41q0 50 38 50q41 0 41 -50q-3 -107 -84 -142z" />
<glyph unicode="-" horiz-adv-x="369" d="M57 274v59h256v-59h-256z" />
<glyph unicode="." horiz-adv-x="171" d="M85 -9q-38 0 -38 47q0 49 38 49q41 0 41 -49q0 -47 -41 -47z" />
<glyph unicode="/" horiz-adv-x="445" d="M8 -110l385 879l46 -19l-387 -878z" />
<glyph unicode="0" horiz-adv-x="542" d="M61 203v294q0 100 58 158.5t153 58.5t153.5 -58.5t58.5 -158.5v-294q0 -100 -58.5 -158.5t-153.5 -58.5t-153 58.5t-58 158.5zM122 483v-266q0 -83 40 -126.5t110 -43.5t110 43.5t40 126.5v266q0 83 -40 126.5t-110 43.5t-110 -43.5t-40 -126.5z" />
<glyph unicode="1" horiz-adv-x="258" d="M141 700h53v-700h-62v620l-96 -67l-37 49z" />
<glyph unicode="2" horiz-adv-x="538" d="M56 0v46l284 325q75 86 75 151q0 57 -36 94t-105 37q-99 0 -131 -79l-58 24q23 53 71 84.5t118 31.5q100 0 152.5 -52t52.5 -137q0 -58 -27 -107t-76 -105l-218 -253h331v-60h-433z" />
<glyph unicode="3" horiz-adv-x="529" d="M257 -14q-72 0 -124 35t-74 90l58 26q14 -39 50.5 -65.5t89.5 -26.5q74 0 109.5 37.5t35.5 103.5v18q0 140 -125 140h-73v58h73q54 0 83 35.5t29 91.5q-1 56 -32.5 92.5t-96.5 36.5q-51 0 -88.5 -24.5t-48.5 -63.5l-54 23q20 54 70.5 87.5t120.5 33.5q95 0 142.5 -50 t47.5 -133q0 -96 -71 -156q38 -14 64.5 -60.5t26.5 -98.5v-32q0 -91 -54 -144.5t-159 -53.5z" />
<glyph unicode="4" horiz-adv-x="546" d="M37 142v47l259 521l63 -9l-241 -498h265v284l61 8v-292h77v-61h-77v-142h-61v142h-346z" />
<glyph unicode="5" d="M69 113l56 27q38 -94 135 -94q71 0 108.5 36t37.5 101v54q0 81 -34.5 113.5t-101.5 32.5q-85 0 -149 -46l-48 32l43 331h327v-61h-273l-28 -230q59 36 127 36q204 0 204 -196v-68q0 -89 -56 -142t-158 -53q-72 0 -120.5 34.5t-69.5 92.5z" />
<glyph unicode="6" horiz-adv-x="552" d="M61 181v316q0 99 58 158t156 59q75 0 126.5 -31t73.5 -88l-57 -23q-37 83 -143 83q-72 0 -112.5 -45t-40.5 -127v-126q70 57 171 57q200 0 200 -191v-33q0 -98 -59 -151t-156 -53q-99 0 -158 49t-59 146zM122 292v-91q0 -153 156 -153q72 0 113 39.5t41 121.5 q0 78 -33.5 110.5t-104.5 32.5q-49 0 -96 -16.5t-76 -43.5z" />
<glyph unicode="7" horiz-adv-x="442" d="M92 -1l260 641h-332v60h407v-46l-271 -664z" />
<glyph unicode="8" horiz-adv-x="569" d="M261 400h45q64 0 97 36.5t33 92.5q0 54 -38.5 90t-112.5 36q-73 0 -111.5 -36t-38.5 -90q0 -57 31.5 -93t94.5 -36zM62 184v31q0 51 24 95t62 67q-34 29 -54 69.5t-20 83.5q0 81 54 132.5t157 51.5q104 0 158 -51.5t54 -132.5q0 -43 -20 -83.5t-54 -69.5 q39 -19 62.5 -64.5t23.5 -97.5v-31q0 -92 -55 -145t-169 -53q-113 0 -168 53t-55 145zM128 202v-16q0 -68 36.5 -103t120.5 -35q85 0 121 35t36 103v16q0 67 -32 105.5t-93 38.5h-64q-61 0 -93 -38.5t-32 -105.5z" />
<glyph unicode="9" horiz-adv-x="548" d="M72 105l58 23q17 -38 55 -59.5t89 -21.5q72 0 113 44.5t41 125.5v116q-59 -37 -168 -37q-199 0 -199 190v29q0 97 58 148t155 51q99 0 157 -47.5t58 -144.5v-319q0 -99 -59.5 -158t-155.5 -59q-72 0 -125.5 32t-76.5 87zM428 396v105q0 151 -154 151q-152 0 -152 -154 q0 -76 33.5 -108t104.5 -32q106 0 168 38z" />
<glyph unicode=":" horiz-adv-x="202" d="M100 -10q-37 0 -37 47q0 50 37 50q41 0 41 -50q0 -47 -41 -47zM100 473q-37 0 -37 47q0 50 37 50q41 0 41 -50q0 -47 -41 -47z" />
<glyph unicode=";" horiz-adv-x="205" d="M103 473q-38 0 -37 47q0 50 37 50q41 0 41 -50q0 -47 -41 -47zM61 -105l-20 34q41 32 41 67q-16 11 -16 41q0 51 38 51q41 0 41 -51q0 -17 -3.5 -35t-12 -39t-26 -39t-42.5 -29z" />
<glyph unicode="&#x3c;" horiz-adv-x="337" d="M110 280l172 -198l-41 -36l-184 204v60l184 205l41 -37z" />
<glyph unicode="=" horiz-adv-x="555" d="M57 141v60h443v-60h-443zM57 381v59h443v-59h-443z" />
<glyph unicode="&#x3e;" horiz-adv-x="337" d="M97 46l-40 36l172 198l-172 198l40 37l186 -205v-60z" />
<glyph unicode="?" horiz-adv-x="476" d="M184 155v35q0 29 4 52t8.5 37.5t17 32t19.5 26t27 28.5t30 31q35 38 50.5 70t15.5 75v8q0 49 -31 77.5t-95 28.5q-105 0 -128 -84l-53 23q17 52 63.5 85.5t117.5 33.5q91 0 141 -45.5t50 -116.5v-16q0 -60 -22.5 -100t-67.5 -86q-51 -52 -70 -82.5t-19 -75.5v-37h-58z M214 -12q-34 0 -34 46q0 41 34 41q36 0 36 -41q0 -46 -36 -46z" />
<glyph unicode="@" horiz-adv-x="710" d="M272 404l-14 -106q-14 -103 68 -103q28 0 60 21.5t49 46.5l30 243h-98q-43 0 -65.5 -25.5t-29.5 -76.5zM58 199l40 303q13 97 101.5 155t204.5 58t189 -57.5t60 -155.5l-30 -226q-16 -120 -109 -120q-65 0 -78 65q-21 -25 -56 -45t-62 -20q-58 0 -83.5 34.5t-17.5 98.5 l16 123q18 131 138 131h141l-36 -270q-5 -40 4.5 -58t37.5 -18q29 0 44.5 18t20.5 57l29 221q11 85 -53.5 132t-161.5 47t-173 -46.5t-87 -131.5l-38 -286q-11 -85 53 -132t161 -47q65 0 134 26l11 -39q-71 -30 -151 -30q-116 0 -189 58t-60 155z" />
<glyph unicode="A" horiz-adv-x="559" d="M487 -10l-76 235h-263l-72 -225h-67l239 700h65l238 -701zM279 630l-110 -345h222z" />
<glyph unicode="B" horiz-adv-x="551" d="M66 0v700h228q98 0 147 -38t49 -123v-50q0 -37 -16 -72t-50 -54q37 -16 59.5 -56t22.5 -89v-52q-1 -75 -48 -120.5t-138 -45.5h-254zM127 387h192q52 0 81 29.5t29 86.5v20q0 68 -30.5 92t-102.5 24h-169v-252zM127 60h191q64 0 95.5 32t31.5 87v25q0 57 -30 90.5 t-87 33.5h-201v-268z" />
<glyph unicode="C" horiz-adv-x="515" d="M121 216q0 -80 43.5 -124.5t115.5 -44.5q52 0 90 22t57 59l56 -22q-22 -56 -75 -88t-128 -32q-97 0 -158.5 59t-61.5 157v296q0 98 61.5 157t158.5 59q75 0 128 -32t75 -88l-56 -22q-19 37 -57 59t-90 22q-72 0 -115.5 -44.5t-43.5 -124.5v-268z" />
<glyph unicode="D" horiz-adv-x="566" d="M66 0v700h234q95 0 150.5 -58.5t55.5 -157.5v-268q0 -99 -55.5 -157.5t-150.5 -58.5h-234zM127 60h173q70 0 107.5 43.5t37.5 125.5v242q0 82 -37 125t-108 43h-173v-579z" />
<glyph unicode="E" horiz-adv-x="481" d="M66 0v700h376v-61h-315v-251h263v-60h-263v-268h323v-60h-384z" />
<glyph unicode="F" horiz-adv-x="467" d="M66 0v700h376v-61h-315v-274h263v-60h-263v-305h-61z" />
<glyph unicode="G" horiz-adv-x="554" d="M437 61q-81 -75 -178 -75q-91 0 -145 59.5t-54 157.5v295q0 98 62.5 157t159.5 59q75 0 129 -32t75 -88l-56 -22q-19 37 -57.5 59t-90.5 22q-72 0 -116.5 -44.5t-44.5 -124.5v-267q0 -81 40 -126.5t108 -45.5q107 0 169 87v174h-149v60h209v-376h-41z" />
<glyph unicode="H" horiz-adv-x="570" d="M66 0v700h61v-306h318v306h61v-700h-61v334h-318v-334h-61z" />
<glyph unicode="I" horiz-adv-x="191" d="M66 0v700h61v-700h-61z" />
<glyph unicode="J" horiz-adv-x="278" d="M19 -10l-8 55q142 17 142 175v480h61v-494q0 -93 -54.5 -152t-140.5 -64z" />
<glyph unicode="K" horiz-adv-x="498" d="M430 -10l-212 339l-91 -123v-206h-61v700h61v-394l291 394h75l-238 -321l241 -380z" />
<glyph unicode="L" horiz-adv-x="460" d="M66 0v700h61v-640h328v-60h-389z" />
<glyph unicode="M" horiz-adv-x="682" d="M66 0v700h62l213 -428l214 428h63v-700h-61l2 581l-194 -386h-53l-187 366l2 -561h-61z" />
<glyph unicode="N" horiz-adv-x="587" d="M66 0v700h74l323 -603l-1 603h61v-700h-77l-322 603l3 -603h-61z" />
<glyph unicode="O" horiz-adv-x="579" d="M61 202v296q0 98 65.5 157t164.5 59q98 0 163.5 -59t65.5 -157v-296q0 -98 -65.5 -157t-163.5 -59q-99 0 -164.5 59t-65.5 157zM121 484v-268q0 -81 48.5 -125.5t121.5 -44.5t120.5 44.5t47.5 125.5v268q0 81 -47.5 125.5t-120.5 44.5t-121.5 -44.5t-48.5 -125.5z" />
<glyph unicode="P" horiz-adv-x="550" d="M66 0v700h234q95 0 150.5 -58.5t55.5 -157.5v-49q0 -99 -55.5 -157.5t-150.5 -58.5h-173v-219h-61zM127 279h173q70 0 107.5 43.5t37.5 125.5v23q0 82 -37 125t-108 43h-173v-360z" />
<glyph unicode="Q" horiz-adv-x="579" d="M533 -22l-47 -41l-70 80q-59 -31 -125 -31q-99 0 -164.5 59t-65.5 157v296q0 98 65.5 157t164.5 59q98 0 163.5 -59t65.5 -157v-296q0 -87 -55 -147zM121 484v-268q0 -81 48.5 -125.5t121.5 -44.5q47 0 84 18l-59 68l46 39l62 -70q35 46 35 115v268q0 81 -47.5 125.5 t-120.5 44.5t-121.5 -44.5t-48.5 -125.5z" />
<glyph unicode="R" horiz-adv-x="550" d="M453 -10l-170 302h-156v-292h-61v700h234q93 0 149.5 -52.5t56.5 -132.5v-38q0 -66 -42 -116.5t-114 -64.5l169 -297zM127 639v-287h173q68 0 106.5 38.5t38.5 99.5v12q0 63 -38 100t-107 37h-173z" />
<glyph unicode="S" horiz-adv-x="515" d="M95 138q22 -39 64 -65t97 -26q79 0 121 34.5t42 95.5v12q0 123 -155 138q-212 21 -212 181v21q0 86 51 135.5t155 49.5q146 0 199 -119l-60 -24q-38 82 -139 82q-73 0 -108.5 -34.5t-35.5 -91.5v-10q0 -66 40 -93.5t119 -36.5q43 -6 76 -16t65 -30t49.5 -56t17.5 -86v-27 q0 -88 -58.5 -137t-166.5 -49q-78 0 -136.5 34.5t-81.5 88.5z" />
<glyph unicode="T" horiz-adv-x="466" d="M203 0v640h-196v60h453v-60h-196v-640h-61z" />
<glyph unicode="U" horiz-adv-x="565" d="M264 44q60 0 105.5 25t71.5 63v568h61v-517q0 -66 4.5 -91.5t22.5 -69.5l-53 -32q-10 15 -27 76q-84 -80 -187 -80q-199 0 -199 198v517l61 9v-512q0 -82 33.5 -118t106.5 -36z" />
<glyph unicode="V" horiz-adv-x="539" d="M73 710l198 -637l194 627h67l-230 -700h-65l-229 701z" />
<glyph unicode="W" horiz-adv-x="864" d="M209 0l-201 701l63 9l173 -638l154 628h71l155 -628l167 628h65l-200 -700h-69l-154 624l-153 -624h-71z" />
<glyph unicode="X" horiz-adv-x="511" d="M424 700h77l-206 -346l210 -354h-77l-173 310l-172 -310h-76l208 353l-205 348l71 9l174 -313z" />
<glyph unicode="Y" horiz-adv-x="502" d="M222 0v234l-214 467l67 9l177 -409l172 399h70l-212 -464v-236h-60z" />
<glyph unicode="Z" horiz-adv-x="510" d="M33 0v67l362 573h-351v60h419v-67l-362 -573h378v-60h-446z" />
<glyph unicode="[" horiz-adv-x="258" d="M76 -110v860h145v-54h-90v-751h90v-55h-145z" />
<glyph unicode="\" horiz-adv-x="445" d="M8 750l45 19l385 -879l-44 -18z" />
<glyph unicode="]" horiz-adv-x="258" d="M38 -110v55h90v751h-90v54h146v-860h-146z" />
<glyph unicode="^" horiz-adv-x="339" d="M37 540l103 198h60l102 -198l-46 -21l-87 176l-87 -176z" />
<glyph unicode="_" horiz-adv-x="473" d="M8 -111v52h458v-52h-458z" />
<glyph unicode="`" horiz-adv-x="254" d="M52 738l56 31l81 -137l-39 -26z" />
<glyph unicode="a" horiz-adv-x="501" d="M99 150q0 -56 33 -82t89 -26q46 0 85.5 20.5t63.5 54.5v139h-149q-63 0 -92.5 -24t-29.5 -82zM428 393v-222q0 -66 5 -91t22 -60l-48 -30q-17 25 -27 62q-65 -62 -154 -62q-186 0 -186 161q0 89 49.5 123.5t140.5 34.5h140v69q1 73 -30.5 105t-99.5 32q-53 0 -89 -23.5 t-46 -61.5l-52 22q16 51 66 84.5t121 33.5q92 0 140.5 -44.5t47.5 -132.5z" />
<glyph unicode="b" horiz-adv-x="532" d="M134 422v-350q54 -27 136 -27q136 0 136 160v153q0 78 -29 117.5t-94 39.5q-41 0 -82 -28t-67 -65zM76 40v680l58 9v-231q69 72 150 72q87 0 133.5 -51.5t46.5 -146.5v-179q0 -95 -51.5 -149t-142.5 -54q-117 0 -194 50z" />
<glyph unicode="c" horiz-adv-x="485" d="M450 109q-19 -52 -66 -85.5t-118 -33.5q-91 0 -143.5 54t-52.5 149v174q0 95 52.5 149t143.5 54q69 0 118 -32t67 -85l-53 -22q-24 84 -132 84q-66 0 -102 -41t-36 -119v-150q0 -78 36 -119t102 -41q106 0 132 84z" />
<glyph unicode="d" horiz-adv-x="532" d="M485 20l-48 -30q-17 25 -27 62q-64 -62 -150 -62q-92 0 -141 53.5t-49 149.5v179q0 95 46 146.5t134 51.5q83 0 150 -31v181l58 9v-558q0 -66 5 -91t22 -60zM400 116v368q-66 31 -149 31q-66 0 -95 -39.5t-29 -117.5v-153q1 -80 31.5 -120t96.5 -40q95 0 145 71z" />
<glyph unicode="e" horiz-adv-x="529" d="M70 193v174q0 95 53 149t144 54t143 -54t52 -149v-110h-334v-51q0 -78 35.5 -119t103.5 -41q106 0 131 83l52 -20q-19 -51 -66.5 -85t-116.5 -34q-91 0 -144 54t-53 149zM128 315h277v39q0 79 -35.5 119.5t-102.5 40.5q-68 0 -103.5 -41t-35.5 -119v-39z" />
<glyph unicode="f" horiz-adv-x="341" d="M76 0v425h-68v55h68l-1 71q-1 89 45.5 134t133.5 45q34 0 71 -11l-10 -48q-33 7 -61 7q-121 0 -121 -124v-74h173v-55h-173v-425h-57z" />
<glyph unicode="g" horiz-adv-x="532" d="M400 168v316q-66 31 -148 31q-66 0 -95 -39.5t-29 -117.5v-120q0 -78 28.5 -115t94.5 -37q43 0 83.5 24t65.5 58zM421 560h37v-538q0 -89 -52 -135.5t-139 -46.5q-174 0 -188 121l54 11q7 -44 37 -60t97 -16q133 0 133 138v66q-66 -69 -150 -69q-88 0 -133.5 49 t-45.5 144v148q0 95 46 146.5t134 51.5q81 0 149 -30z" />
<glyph unicode="h" horiz-adv-x="527" d="M76 0v720l58 9v-231q69 72 146 72q176 0 176 -189v-381h-58v368q0 79 -26.5 114.5t-92.5 35.5q-41 0 -80.5 -26t-64.5 -62v-430h-58z" />
<glyph unicode="i" horiz-adv-x="208" d="M143 666q0 -47 -41 -47q-38 0 -38 47q0 51 38 51q41 0 41 -51zM7 560h127v-560h-58v505h-69v55z" />
<glyph unicode="j" horiz-adv-x="214" d="M109 619q-38 0 -38 47q0 51 38 51q40 0 40 -51q0 -47 -40 -47zM12 560h127v-528q0 -89 -43 -138t-122 -54l-9 49q63 4 89.5 41.5t26.5 113.5v460h-69v56z" />
<glyph unicode="k" horiz-adv-x="464" d="M403 -10l-184 278l-85 -107v-161h-58v720l58 9v-479l242 310h78l-198 -247l212 -314z" />
<glyph unicode="l" horiz-adv-x="208" d="M115 -10q-39 56 -39 137v593l58 9v-558q0 -66 5 -91t22 -60z" />
<glyph unicode="m" horiz-adv-x="811" d="M378 353q0 80 -28 122.5t-76 42.5q-42 0 -79.5 -26.5t-60.5 -64.5v-427h-58v561l59 9v-74q60 74 138 74q51 0 85.5 -25t48.5 -69q52 94 159 94q170 0 170 -199v-371h-57v352q0 84 -24 123.5t-83 39.5q-63 0 -100 -41t-37 -108v-366h-57v353z" />
<glyph unicode="n" d="M77 0l-1 561l59 9v-74q69 74 148 74q173 0 173 -195v-375h-58v362q0 81 -26 118.5t-90 37.5q-41 0 -81.5 -27.5t-66.5 -63.5v-427h-57z" />
<glyph unicode="o" d="M128 355v-150q0 -78 35.5 -119t103.5 -41q67 0 102.5 41t35.5 119v150q0 78 -35.5 119t-102.5 41q-68 0 -103.5 -41t-35.5 -119zM70 193v174q0 95 53 149t144 54t143 -54t52 -149v-174q0 -95 -52 -149t-143 -54t-144 54t-53 149z" />
<glyph unicode="p" horiz-adv-x="532" d="M134 570v-71q68 71 150 71q87 0 133.5 -51.5t46.5 -146.5v-179q0 -95 -52.5 -149t-144.5 -54q-73 0 -133 19v-150l-58 -9v711zM406 205v153q0 78 -29 117.5t-94 39.5q-42 0 -83 -26.5t-66 -61.5v-355q54 -27 136 -27q136 0 136 160z" />
<glyph unicode="q" horiz-adv-x="532" d="M399 138v350q-54 27 -136 27q-136 0 -136 -160v-153q0 -78 29 -117.5t94 -39.5q41 0 82 28t67 65zM457 518v-659l-58 -9v212q-69 -72 -150 -72q-87 0 -133.5 51.5t-46.5 146.5v179q0 95 51.5 149t142.5 54q117 0 194 -52z" />
<glyph unicode="r" horiz-adv-x="296" d="M77 0l-1 561l59 9v-79q63 79 150 79l4 -55q-95 0 -155 -95v-420h-57z" />
<glyph unicode="s" horiz-adv-x="456" d="M34 107l56 23q13 -37 48 -61.5t88 -24.5q64 0 96.5 30t32.5 77v8q0 45 -28 65.5t-89 28.5q-85 11 -135 44.5t-50 104.5v14q0 70 42.5 112t127.5 42q72 0 119 -33.5t61 -86.5l-54 -22q-21 88 -126 88q-113 0 -113 -101v-5q0 -45 31.5 -67t93.5 -31q38 -5 65 -12.5 t55.5 -23t43 -43t14.5 -67.5v-19q0 -68 -49.5 -112.5t-137.5 -44.5q-73 0 -123 32.5t-69 84.5z" />
<glyph unicode="t" horiz-adv-x="324" d="M75 157v348h-61v55h61l19 90l38 9l1 -99h171v-55h-171l-1 -338q0 -75 18.5 -103t77.5 -28q53 0 83 10l10 -47q-47 -14 -89 -14q-86 0 -121.5 39t-35.5 133z" />
<glyph unicode="u" horiz-adv-x="523" d="M402 53q-63 -63 -154 -63q-85 0 -130 52t-45 147v372l58 9v-369q0 -82 25 -119.5t87 -37.5q99 0 150 72v445l57 9v-399q0 -66 5 -91t22 -60l-47 -30q-15 21 -28 63z" />
<glyph unicode="v" horiz-adv-x="451" d="M194 0l-185 561l61 9l157 -508l154 498h63l-185 -560h-65z" />
<glyph unicode="w" horiz-adv-x="728" d="M176 0l-167 561l59 9l140 -500l123 490h68l122 -491l138 491h61l-167 -560h-62l-126 493l-126 -493h-63z" />
<glyph unicode="x" horiz-adv-x="459" d="M369 560h74l-174 -272l183 -288h-75l-147 247l-148 -247h-75l183 285l-175 276l70 9l144 -244z" />
<glyph unicode="y" horiz-adv-x="540" d="M85 -39l54 11q8 -45 38.5 -60.5t96.5 -15.5q133 0 133 138v64q-64 -66 -148 -66q-90 0 -136.5 51t-46.5 147v331l58 9v-330q-1 -79 28.5 -116.5t95.5 -37.5q42 0 83.5 24t65.5 58v393l58 9v-549q0 -88 -52.5 -134.5t-138.5 -46.5q-174 0 -189 121z" />
<glyph unicode="z" horiz-adv-x="433" d="M37 0v67l285 438h-279v55h346v-55l-293 -450h305v-55h-364z" />
<glyph unicode="{" horiz-adv-x="333" d="M162 26v128q0 64 -26.5 99.5t-70.5 35.5h-29v62h29q44 0 70.5 35.5t26.5 99.5v127q0 72 31 104.5t93 32.5h5l7 -53h-4q-49 0 -64 -21.5t-15 -75.5v-129q0 -119 -76 -151q76 -34 76 -151v-129q0 -54 15 -75t64 -21h4l-7 -54h-5q-62 0 -93 32.5t-31 103.5z" />
<glyph unicode="|" horiz-adv-x="199" d="M76 -170v940h49v-940h-49z" />
<glyph unicode="}" horiz-adv-x="333" d="M270 289q-44 0 -70.5 -36t-26.5 -99v-128q0 -136 -123 -136h-5l-8 54h4q49 0 64 21t15 75v129q0 117 76 151q-76 33 -76 151v129q0 54 -15 75.5t-64 21.5h-4l8 53h5q123 0 123 -137v-127q0 -63 26.5 -99t70.5 -36h29v-62h-29z" />
<glyph unicode="~" horiz-adv-x="575" d="M111 284l-54 10q8 45 42.5 76.5t85.5 31.5q40 0 113 -39t103 -39q26 0 42.5 19.5t22.5 46.5l52 -9q-6 -48 -38.5 -79t-87.5 -31q-39 0 -109.5 39t-107.5 39q-26 0 -42.5 -19t-21.5 -46z" />
<glyph unicode="&#xa1;" horiz-adv-x="216" d="M80 0v168l6 373h46l6 -373v-168h-58zM108 627q-32 0 -32 40q0 43 32 43q34 0 34 -43q0 -40 -34 -40z" />
<glyph unicode="&#xa2;" horiz-adv-x="530" d="M247 0v89q-79 8 -124.5 61t-45.5 141v118q0 88 45.5 140.5t124.5 60.5v90h52v-89q116 -10 155 -105l-54 -21q-22 61 -101 70v-411q84 10 107 77l51 -17q-16 -49 -57 -79.5t-101 -35.5v-89h-52zM247 144v411q-112 -14 -112 -158v-94q0 -143 112 -159z" />
<glyph unicode="&#xa3;" horiz-adv-x="530" d="M37 0v55q37 24 59 65t22 92v110h-81v60h81v115q0 102 46.5 159.5t139.5 57.5q137 0 173 -120l-55 -21q-21 82 -118 82q-68 0 -96.5 -43t-28.5 -130v-100h142v-60h-142v-94q0 -51 -14.5 -93t-28.5 -59l-15 -16h374v-60h-458z" />
<glyph unicode="&#xa4;" horiz-adv-x="566" d="M57 144l68 72q-23 44 -23 106v46q0 62 23 105l-68 74l38 38l65 -69q47 41 124 41t123 -41l66 69l37 -38l-69 -74q24 -42 24 -105v-46q0 -62 -24 -106l69 -72l-37 -39l-66 69q-47 -41 -123 -41q-77 0 -126 41l-63 -69zM155 358v-26q0 -151 129 -151q63 0 96 38.5t33 112.5 v26q0 74 -33 113t-96 39q-129 0 -129 -152z" />
<glyph unicode="&#xa5;" horiz-adv-x="500" d="M29 101v63h192v85h-192v63h183l-205 389l71 9l173 -344l169 334h74l-204 -388h183v-63h-190v-85h190v-63h-190v-101h-62v101h-192z" />
<glyph unicode="&#xa6;" horiz-adv-x="199" d="M76 -170v337h49v-337h-49zM76 433v337h49v-337h-49z" />
<glyph unicode="&#xa7;" horiz-adv-x="496" d="M67 23l51 21q10 -40 42.5 -65t87.5 -25q61 0 90 26.5t29 71.5v7q0 39 -33.5 59t-99.5 34q-80 17 -128.5 53t-48.5 107v7q0 37 21 73t55 56q-63 43 -63 112v10q0 65 43.5 104.5t127.5 39.5q67 0 108.5 -34t54.5 -86l-49 -20q-17 88 -114 88q-111 0 -111 -94v-6 q0 -43 35 -64.5t102 -35.5q36 -8 62.5 -17t54 -26t42.5 -45t15 -65v-10q0 -34 -26 -71t-59 -57q71 -40 71 -112v-11q0 -64 -47 -105.5t-132 -41.5q-72 0 -119.5 33.5t-61.5 88.5zM116 321v-6q0 -48 40.5 -73.5t145.5 -49.5q33 19 56 49t23 57v7q0 34 -23 56.5t-49.5 31 t-67.5 18t-56 15.5q-28 -14 -48.5 -43.5t-20.5 -61.5z" />
<glyph unicode="&#xa8;" horiz-adv-x="372" d="M285 615q-39 0 -39 47q0 50 39 50q42 0 42 -50q0 -47 -42 -47zM86 615q-40 0 -40 47q0 50 40 50q42 0 42 -50q0 -47 -42 -47z" />
<glyph unicode="&#xa9;" horiz-adv-x="677" d="M201 269v160q0 61 39.5 99t100.5 38q59 0 97.5 -34t38.5 -87l-47 -8q0 37 -24.5 57.5t-64.5 20.5q-41 0 -66 -25.5t-25 -70.5v-141q0 -45 25 -70.5t66 -25.5q40 0 64.5 21t24.5 57l47 -6q0 -54 -38.5 -88.5t-97.5 -34.5q-61 0 -100.5 38t-39.5 100zM61 201v295 q0 98 81.5 156t196.5 58t196.5 -58t81.5 -156v-295q0 -98 -81 -156.5t-197 -58.5t-197 58.5t-81 156.5zM113 487v-277q0 -80 67 -123.5t159 -43.5t158.5 43.5t66.5 123.5v277q0 80 -66.5 124t-158.5 44t-159 -44t-67 -124z" />
<glyph unicode="&#xaa;" horiz-adv-x="366" d="M343 259q-18 20 -24 51q-56 -49 -125 -49q-62 0 -95.5 31.5t-33.5 92.5q0 118 148 118h102v49q0 105 -88 105q-69 0 -86 -54l-54 23q15 37 51.5 61t88.5 24q72 0 110.5 -39t38.5 -111v-208q0 -39 21 -72zM315 374v78h-107q-82 0 -82 -67q0 -34 20.5 -52t55.5 -18 q65 0 113 59z" />
<glyph unicode="&#xab;" horiz-adv-x="398" d="M86 279l114 -125l-33 -40l-132 145v41l132 145l33 -40zM249 279l114 -125l-33 -40l-132 145v41l132 145l33 -40z" />
<glyph unicode="&#xac;" horiz-adv-x="636" d="M67 375v60h504v-220h-55v160h-449z" />
<glyph unicode="&#xad;" horiz-adv-x="369" d="M54 274v59h256v-59h-256z" />
<glyph unicode="&#xae;" horiz-adv-x="677" d="M204 141v415h148q62 0 97.5 -31t35.5 -89v-26q0 -86 -80 -115l99 -152l-61 -5l-99 153h-90v-150h-50zM254 340h100q81 0 81 78v9q0 78 -81 78h-100v-165zM61 201v295q0 98 81.5 156t196.5 58t196.5 -58t81.5 -156v-295q0 -98 -81 -156.5t-197 -58.5t-197 58.5t-81 156.5z M113 487v-277q0 -80 67 -123.5t159 -43.5t158.5 43.5t66.5 123.5v277q0 80 -66.5 124t-158.5 44t-159 -44t-67 -124z" />
<glyph unicode="&#xaf;" horiz-adv-x="369" d="M57 627v60h256v-60h-256z" />
<glyph unicode="&#xb0;" horiz-adv-x="335" d="M46 573v16q0 56 33 90t87 34q57 0 90.5 -33.5t33.5 -90.5v-16q0 -58 -33 -91t-91 -33q-55 0 -87.5 33t-32.5 91zM165 493q75 0 75 86q0 89 -75 89q-68 0 -68 -89q0 -86 68 -86z" />
<glyph unicode="&#xb1;" horiz-adv-x="587" d="M67 329v61h198v170h57v-170h199v-61h-199v-170h-57v170h-198zM67 43v61h454v-61h-454z" />
<glyph unicode="&#xb2;" horiz-adv-x="401" d="M134 291h212v-46h-290v33l186 213q47 54 47 96q0 34 -22.5 57t-63.5 23q-40 0 -62 -22t-28 -57l-46 18q10 47 45 76.5t91 29.5q66 0 101 -34.5t35 -89.5q0 -63 -68 -139z" />
<glyph unicode="&#xb3;" horiz-adv-x="393" d="M60 344l46 22q4 -36 25.5 -60.5t61.5 -24.5q44 0 67 22.5t23 63.5v12q0 39 -15.5 62.5t-41.5 23.5h-75v47h74q25 0 39.5 27.5t14.5 51.5q0 34 -21.5 56t-62.5 22q-37 0 -57.5 -23.5t-25.5 -58.5l-45 20q9 46 42 75.5t86 29.5q64 0 98.5 -33.5t34.5 -86.5q0 -65 -44 -101 q22 -11 37.5 -41.5t15.5 -62.5v-20q0 -59 -38.5 -95t-105.5 -36q-55 0 -89.5 30.5t-43.5 77.5z" />
<glyph unicode="&#xb4;" horiz-adv-x="254" d="M67 632l81 137l56 -31l-97 -132z" />
<glyph unicode="&#xb5;" horiz-adv-x="525" d="M395 561l58 9v-377q-1 -95 -52 -149t-137 -54q-85 0 -130 68v-70q0 -38 -3.5 -72.5t-6.5 -49.5l-4 -16l-59 9q15 34 15 122v580l58 9v-365q-1 -78 33 -119t98 -41q63 0 96.5 41t33.5 119v356z" />
<glyph unicode="&#xb6;" horiz-adv-x="558" d="M318 -110v388h-41q-98 0 -149 51t-51 146v28q0 95 51 146t146 51h209v-810h-48v752h-68v-752h-49z" />
<glyph unicode="&#xb7;" horiz-adv-x="171" d="M85 242q-38 0 -38 47q0 50 38 50q41 0 41 -50q0 -47 -41 -47z" />
<glyph unicode="&#xb8;" horiz-adv-x="255" d="M57 -153l5 34q15 -5 32 -5q43 0 43 31q0 15 -14 22.5t-28 8.5h-14l22 62h50l-13 -38q26 -2 42.5 -16.5t16.5 -42.5q0 -64 -91 -64q-30 0 -51 8z" />
<glyph unicode="&#xb9;" horiz-adv-x="219" d="M114 249v386l-75 -51l-29 40l115 80h40v-455h-51z" />
<glyph unicode="&#xba;" horiz-adv-x="368" d="M56 473v109q0 60 35 95t94 35q60 0 94 -35t34 -95v-109q0 -60 -34 -94.5t-94 -34.5q-59 0 -94 34.5t-35 94.5zM105 574v-94q0 -45 21 -69t59 -24q39 0 60 24t21 69v94q0 95 -81 95q-38 0 -59 -24.5t-21 -70.5z" />
<glyph unicode="&#xbb;" horiz-adv-x="397" d="M230 114l-32 40l113 125l-113 126l32 40l132 -145v-41zM67 114l-32 40l113 125l-113 126l32 40l132 -145v-41z" />
<glyph unicode="&#xbc;" horiz-adv-x="716" d="M326 91v34l175 344l49 -10l-159 -323h157v182l51 9v-191h49v-45h-50v-91h-50v91h-222zM89 0l460 728l42 -28l-463 -728zM146 249v386l-74 -51l-29 40l114 80h40v-455h-51z" />
<glyph unicode="&#xbd;" horiz-adv-x="784" d="M549 728l41 -28l-462 -728l-39 28zM146 249v386l-74 -51l-29 40l114 80h40v-455h-51zM505 46h212v-46h-289v33l185 213q47 54 47 96q0 35 -22 57.5t-64 22.5q-40 0 -62 -22t-28 -57l-46 19q10 46 45 76t91 30q66 0 101 -34.5t35 -90.5q0 -62 -68 -138z" />
<glyph unicode="&#xbe;" horiz-adv-x="822" d="M193 0l460 728l41 -28l-462 -728zM70 344l47 22q4 -36 25.5 -60.5t60.5 -24.5q44 0 67.5 22.5t23.5 63.5v12q0 39 -16 62.5t-41 23.5h-75v47h74q25 0 39.5 27.5t14.5 51.5q0 34 -21.5 56t-62.5 22q-38 0 -58.5 -23.5t-24.5 -58.5l-46 20q10 46 43 75.5t86 29.5 q64 0 98.5 -33.5t34.5 -86.5q0 -64 -45 -101q23 -11 38.5 -41.5t15.5 -62.5v-20q0 -59 -38.5 -95t-106.5 -36q-55 0 -89 30.5t-44 77.5zM432 91v34l174 344l49 -10l-159 -323h159l-2 182l51 9v-191h49v-45h-49v-91h-49v91h-223z" />
<glyph unicode="&#xbf;" horiz-adv-x="476" d="M234 508v37h59v-35q0 -29 -4 -52t-8 -37.5t-16.5 -32t-19 -25t-27 -27.5t-29.5 -30q-36 -39 -52.5 -72t-16.5 -76v-8q0 -48 31 -77t96 -29q107 0 128 87l55 -22q-17 -54 -64 -88.5t-119 -34.5q-91 0 -140.5 45.5t-49.5 116.5v16q0 60 22 100.5t68 85.5q50 52 68.5 82.5 t18.5 75.5zM264 625q-37 0 -37 41q0 46 37 46q33 0 33 -46q0 -41 -33 -41z" />
<glyph unicode="&#xc0;" horiz-adv-x="559" d="M174 878l56 31l82 -137l-40 -26zM487 -10l-76 234h-263l-71 -224h-68l239 700h65l239 -701zM279 629l-110 -344h222z" />
<glyph unicode="&#xc1;" horiz-adv-x="559" d="M251 772l81 137l56 -31l-97 -132zM487 -10l-76 234h-263l-71 -224h-68l239 700h65l239 -701zM279 629l-110 -344h222z" />
<glyph unicode="&#xc2;" horiz-adv-x="559" d="M487 -10l-76 234h-263l-71 -224h-68l239 700h65l239 -701zM279 629l-110 -344h222zM192 775l60 101h55l61 -101l-49 -19l-40 76l-40 -76z" />
<glyph unicode="&#xc3;" horiz-adv-x="559" d="M487 -10l-76 234h-263l-71 -224h-68l239 700h65l239 -701zM279 629l-110 -344h222zM185 770l-50 12q3 31 26 53.5t57 22.5q26 0 69 -21.5t53 -21.5q29 0 35 35l48 -12q-3 -32 -24.5 -53.5t-57.5 -21.5q-19 0 -62.5 21t-60.5 21q-29 0 -33 -35z" />
<glyph unicode="&#xc4;" horiz-adv-x="559" d="M372 755q-40 0 -40 47q0 51 40 51q41 0 41 -51q0 -47 -41 -47zM185 755q-38 0 -38 47q0 51 38 51q43 0 43 -51q0 -47 -43 -47zM487 -10l-76 234h-263l-71 -224h-68l239 700h65l239 -701zM279 629l-110 -344h222z" />
<glyph unicode="&#xc5;" horiz-adv-x="559" d="M487 -10l-76 234h-263l-71 -224h-68l239 700h65l239 -701zM279 629l-110 -344h222zM209 821v10q0 32 19 51.5t50 19.5q34 0 53 -19t19 -52v-10q0 -34 -19 -53t-53 -19q-32 0 -50.5 19t-18.5 53zM278 781q38 0 38 44t-38 44q-35 0 -35 -44t35 -44z" />
<glyph unicode="&#xc6;" horiz-adv-x="895" d="M10 0l360 700h482v-61h-309v-310h258v-60h-258v-209h316v-60h-376v282h-258l-142 -282h-73zM256 342h227v296h-77z" />
<glyph unicode="&#xc7;" horiz-adv-x="542" d="M121 484v-268q0 -80 43.5 -124.5t115.5 -44.5q52 0 90 22t57 59l56 -22q-20 -50 -65.5 -81.5t-109.5 -37.5l-9 -25q26 -2 42.5 -16.5t16.5 -42.5q0 -64 -92 -64q-29 0 -50 8l5 34q15 -5 32 -5q43 0 43 31q0 15 -14 22.5t-28 8.5h-14l17 49q-88 7 -142.5 65t-54.5 150v296 q0 98 61.5 157t158.5 59q75 0 128 -32t75 -88l-56 -22q-19 37 -57 59t-90 22q-72 0 -115.5 -44.5t-43.5 -124.5z" />
<glyph unicode="&#xc8;" horiz-adv-x="484" d="M66 0v700h376v-61h-315v-251h263v-60h-263v-268h323v-60h-384zM173 872l55 31l82 -137l-40 -26z" />
<glyph unicode="&#xc9;" horiz-adv-x="484" d="M66 0v700h376v-61h-315v-251h263v-61h-263v-267h323v-60h-384zM235 778l81 137l56 -31l-97 -132z" />
<glyph unicode="&#xca;" horiz-adv-x="484" d="M66 0v700h376v-61h-315v-251h263v-60h-263v-268h323v-60h-384zM174 775l60 101h54l62 -101l-49 -19l-40 76l-40 -76z" />
<glyph unicode="&#xcb;" horiz-adv-x="484" d="M153 755q-39 0 -39 47q0 50 39 50q42 0 42 -50q0 -47 -42 -47zM353 755q-39 0 -39 47q0 50 39 50q42 0 42 -50q0 -47 -42 -47zM66 0v700h376v-61h-315v-251h263v-60h-263v-268h323v-60h-384z" />
<glyph unicode="&#xcc;" horiz-adv-x="191" d="M66 0v700h61v-700h-61zM5 872l56 31l82 -137l-40 -26z" />
<glyph unicode="&#xcd;" horiz-adv-x="191" d="M66 0v700h61v-700h-61zM69 761l82 137l56 -31l-98 -133z" />
<glyph unicode="&#xce;" horiz-adv-x="191" d="M66 0v700h61v-700h-61zM9 775l61 101h54l61 -101l-48 -19l-41 76l-39 -76z" />
<glyph unicode="&#xcf;" horiz-adv-x="191" d="M30 755q-40 0 -40 47q0 50 40 50q43 0 43 -50q0 -47 -43 -47zM66 0v700h61v-700h-61zM159 755q-39 0 -39 47q0 50 39 50q43 0 43 -50q0 -47 -43 -47z" />
<glyph unicode="&#xd0;" horiz-adv-x="566" d="M66 0v328h-57v60h57v312h234q95 0 150.5 -58.5t55.5 -157.5v-268q0 -99 -55.5 -157.5t-150.5 -58.5h-234zM127 60h173q70 0 107.5 43.5t37.5 125.5v242q0 82 -37 125t-108 43h-173v-251h167v-60h-167v-268z" />
<glyph unicode="&#xd1;" horiz-adv-x="587" d="M66 0v700h75l322 -603l-1 603h61v-700h-77l-322 604l3 -604h-61zM199 770l-49 12q2 31 25 53.5t57 22.5q26 0 69 -21.5t53 -21.5q29 0 35 35l48 -12q-3 -32 -24.5 -53.5t-57.5 -21.5q-19 0 -62.5 21t-60.5 21q-27 0 -33 -35z" />
<glyph unicode="&#xd2;" horiz-adv-x="579" d="M61 202v296q0 98 65.5 157t164.5 59q98 0 163.5 -59t65.5 -157v-296q0 -98 -65.5 -157t-163.5 -59q-99 0 -164.5 59t-65.5 157zM122 484v-268q0 -80 47.5 -124.5t121.5 -44.5q73 0 120.5 44.5t47.5 124.5v268q0 80 -47.5 124.5t-120.5 44.5q-74 0 -121.5 -44.5 t-47.5 -124.5zM201 875l55 31l82 -137l-40 -26z" />
<glyph unicode="&#xd3;" horiz-adv-x="579" d="M61 202v296q0 98 65.5 157t164.5 59q98 0 163.5 -59t65.5 -157v-296q0 -98 -65.5 -157t-163.5 -59q-99 0 -164.5 59t-65.5 157zM122 484v-268q0 -80 47.5 -124.5t121.5 -44.5q73 0 120.5 44.5t47.5 124.5v268q0 80 -47.5 124.5t-120.5 44.5q-74 0 -121.5 -44.5 t-47.5 -124.5zM271 770l82 137l55 -30l-97 -133z" />
<glyph unicode="&#xd4;" horiz-adv-x="579" d="M61 202v296q0 98 65.5 157t164.5 59q98 0 163.5 -59t65.5 -157v-296q0 -98 -65.5 -157t-163.5 -59q-99 0 -164.5 59t-65.5 157zM122 484v-268q0 -80 47.5 -124.5t121.5 -44.5q73 0 120.5 44.5t47.5 124.5v268q0 80 -47.5 124.5t-120.5 44.5q-74 0 -121.5 -44.5 t-47.5 -124.5zM203 775l60 101h54l62 -101l-49 -19l-40 76l-40 -76z" />
<glyph unicode="&#xd5;" horiz-adv-x="579" d="M61 202v296q0 98 65.5 157t164.5 59q98 0 163.5 -59t65.5 -157v-296q0 -98 -65.5 -157t-163.5 -59q-99 0 -164.5 59t-65.5 157zM122 484v-268q0 -80 47.5 -124.5t121.5 -44.5q73 0 120.5 44.5t47.5 124.5v268q0 80 -47.5 124.5t-120.5 44.5q-74 0 -121.5 -44.5 t-47.5 -124.5zM196 771l-49 12q3 31 26 53.5t57 22.5q25 0 68 -21.5t53 -21.5q29 0 35 36l48 -13q-2 -32 -23.5 -53.5t-57.5 -21.5q-20 0 -63 21t-61 21q-27 0 -33 -35z" />
<glyph unicode="&#xd6;" horiz-adv-x="590" d="M66 202v296q0 98 65.5 157t164.5 59q98 0 163.5 -59t65.5 -157v-296q0 -98 -65.5 -157t-163.5 -59q-99 0 -164.5 59t-65.5 157zM127 484v-268q0 -81 47.5 -125t121.5 -44q73 0 120.5 44t47.5 125v268q0 81 -47.5 125t-120.5 44q-74 0 -121.5 -44t-47.5 -125zM394 755 q-39 0 -39 47q0 50 39 50q42 0 42 -50q0 -47 -42 -47zM194 755q-39 0 -39 47q0 50 39 50q43 0 43 -50q0 -47 -43 -47z" />
<glyph unicode="&#xd7;" horiz-adv-x="517" d="M47 88l177 189l-177 189l34 36l178 -190l177 190l35 -36l-177 -189l177 -189l-35 -36l-177 190l-178 -190z" />
<glyph unicode="&#xd8;" horiz-adv-x="579" d="M36 95l-33 45l58 50v308q0 98 65.5 157t164.5 59q75 0 134 -37.5t83 -102.5l35 29l35 -43l-58 -51v-307q0 -98 -65.5 -157t-163.5 -59q-77 0 -136 37t-83 103zM459 216v244l-333 -290q13 -59 58 -91t107 -32q73 0 120.5 44t47.5 125zM121 240l333 289q-13 60 -57 92 t-106 32q-74 0 -122 -44t-48 -125v-244z" />
<glyph unicode="&#xd9;" horiz-adv-x="565" d="M177 878l56 31l82 -137l-40 -26zM264 44q60 0 105.5 25t71.5 63v568h61v-517q0 -66 4.5 -91.5t22.5 -69.5l-53 -32q-7 10 -28 76q-82 -80 -186 -80q-199 0 -199 198v517l62 9v-512q0 -81 33.5 -117.5t105.5 -36.5z" />
<glyph unicode="&#xda;" horiz-adv-x="565" d="M259 772l82 137l55 -31l-97 -132zM264 44q60 0 105.5 25t71.5 63v568h61v-517q0 -66 4.5 -91.5t22.5 -69.5l-53 -32q-7 10 -28 76q-82 -80 -186 -80q-199 0 -199 198v517l62 9v-512q0 -81 33.5 -117.5t105.5 -36.5z" />
<glyph unicode="&#xdb;" horiz-adv-x="565" d="M199 775l60 101h55l61 -101l-49 -19l-40 76l-39 -76zM264 44q60 0 105.5 25t71.5 63v568h61v-517q0 -66 4.5 -91.5t22.5 -69.5l-53 -32q-7 10 -28 76q-82 -80 -186 -80q-199 0 -199 198v517l62 9v-512q0 -81 33.5 -117.5t105.5 -36.5z" />
<glyph unicode="&#xdc;" horiz-adv-x="565" d="M387 755q-39 0 -39 47q0 51 39 51q43 0 43 -51q0 -47 -43 -47zM187 755q-39 0 -39 47q0 51 39 51q43 0 43 -51q0 -47 -43 -47zM264 44q60 0 105.5 25t71.5 63v568h61v-517q0 -66 4.5 -91.5t22.5 -69.5l-53 -32q-7 10 -28 76q-82 -80 -186 -80q-199 0 -199 198v517l62 9 v-512q0 -81 33.5 -117.5t105.5 -36.5z" />
<glyph unicode="&#xdd;" horiz-adv-x="502" d="M214 772l81 137l56 -31l-97 -132zM222 0v234l-214 467l68 9l176 -409l171 399h71l-211 -464v-236h-61z" />
<glyph unicode="&#xde;" horiz-adv-x="546" d="M66 0v700h61v-131h161q96 0 151 -52.5t55 -149.5v-34q0 -97 -55 -149.5t-151 -52.5h-161v-131h-61zM127 191h161q145 0 145 155v8q0 154 -145 154h-161v-317z" />
<glyph unicode="&#xdf;" horiz-adv-x="549" d="M76 0v397h-68v54h68v106q0 96 45.5 149.5t129.5 53.5q167 0 167 -152q0 -39 -22.5 -70t-49 -48t-49 -39t-22.5 -45q0 -33 22.5 -57.5t54.5 -42t64.5 -36.5t55 -52.5t22.5 -80.5q0 -69 -46 -110t-134 -41q-47 0 -89 14l11 52q37 -11 80 -11q50 0 81 22.5t31 64.5 q0 31 -22.5 56t-54 43.5t-63.5 39t-54.5 54t-22.5 76.5q0 39 14.5 67t35 43t41 28.5t35 33t14.5 47.5q0 16 -3 28.5t-12 27.5t-31 23.5t-54 8.5q-118 0 -118 -159v-545h-57z" />
<glyph unicode="&#xe0;" horiz-adv-x="510" d="M158 738l56 31l82 -137l-40 -26zM108 150q0 -55 33 -81t89 -26q47 0 86 20.5t63 53.5v138h-149q-63 0 -92.5 -23.5t-29.5 -81.5zM437 393v-222q0 -66 5 -91t22 -60l-48 -30q-17 25 -27 62q-65 -62 -154 -62q-186 0 -186 161q0 89 49.5 123.5t140.5 34.5h140v69 q1 73 -30.5 104.5t-99.5 31.5q-53 0 -89 -23t-45 -61l-53 22q16 51 66 84.5t121 33.5q92 0 140.5 -44.5t47.5 -132.5z" />
<glyph unicode="&#xe1;" horiz-adv-x="510" d="M219 632l81 137l56 -31l-97 -132zM108 150q0 -55 33 -81t89 -26q47 0 86 20.5t63 53.5v138h-149q-63 0 -92.5 -23.5t-29.5 -81.5zM437 393v-222q0 -66 5 -91t22 -60l-48 -30q-17 25 -27 62q-65 -62 -154 -62q-186 0 -186 161q0 89 49.5 123.5t140.5 34.5h140v69 q1 73 -30.5 104.5t-99.5 31.5q-53 0 -89 -23t-45 -61l-53 22q16 51 66 84.5t121 33.5q92 0 140.5 -44.5t47.5 -132.5z" />
<glyph unicode="&#xe2;" horiz-adv-x="510" d="M108 150q0 -55 33 -81t89 -26q47 0 86 20.5t63 53.5v138h-149q-63 0 -92.5 -23.5t-29.5 -81.5zM437 393v-222q0 -66 5 -91t22 -60l-48 -30q-17 25 -27 62q-65 -62 -154 -62q-186 0 -186 161q0 89 49.5 123.5t140.5 34.5h140v69q1 73 -30.5 104.5t-99.5 31.5 q-53 0 -89 -23t-45 -61l-53 22q16 51 66 84.5t121 33.5q92 0 140.5 -44.5t47.5 -132.5zM162 635l61 101h54l61 -101l-48 -19l-41 76l-39 -76z" />
<glyph unicode="&#xe3;" horiz-adv-x="510" d="M149 630l-49 12q3 31 26 53.5t57 22.5q25 0 68 -21.5t54 -21.5q29 0 35 35l48 -12q-3 -32 -24.5 -53.5t-57.5 -21.5q-20 0 -63 21t-60 21q-28 0 -34 -35zM108 150q0 -55 33 -81t89 -26q47 0 86 20.5t63 53.5v138h-149q-63 0 -92.5 -23.5t-29.5 -81.5zM437 393v-222 q0 -66 5 -91t22 -60l-48 -30q-17 25 -27 62q-65 -62 -154 -62q-186 0 -186 161q0 89 49.5 123.5t140.5 34.5h140v69q1 73 -30.5 104.5t-99.5 31.5q-53 0 -89 -23t-45 -61l-53 22q16 51 66 84.5t121 33.5q92 0 140.5 -44.5t47.5 -132.5z" />
<glyph unicode="&#xe4;" horiz-adv-x="521" d="M347 615q-39 0 -39 47q0 51 39 51q42 0 42 -51q0 -47 -42 -47zM157 615q-39 0 -40 47q0 51 40 51q42 0 42 -51q0 -47 -42 -47zM108 150q0 -55 33 -81t89 -26q47 0 86 20.5t63 53.5v138h-149q-63 0 -92.5 -23.5t-29.5 -81.5zM437 393v-222q0 -66 5 -91t22 -60l-48 -30 q-17 25 -27 62q-65 -62 -154 -62q-186 0 -186 161q0 89 49.5 123.5t140.5 34.5h140v69q1 73 -30.5 104.5t-99.5 31.5q-53 0 -89 -23t-45 -61l-53 22q16 51 66 84.5t121 33.5q92 0 140.5 -44.5t47.5 -132.5z" />
<glyph unicode="&#xe5;" horiz-adv-x="521" d="M192 681v10q0 32 19 51.5t50 19.5q33 0 52.5 -19t19.5 -52v-10q0 -34 -19 -53t-53 -19q-32 0 -50.5 19t-18.5 53zM261 641q37 0 37 44t-37 44q-35 0 -35 -44t35 -44zM108 150q0 -55 33 -81t89 -26q47 0 86 20.5t63 53.5v138h-149q-63 0 -92.5 -23.5t-29.5 -81.5zM437 393 v-222q0 -66 5 -91t22 -60l-48 -30q-17 25 -27 62q-65 -62 -154 -62q-186 0 -186 161q0 89 49.5 123.5t140.5 34.5h140v69q1 73 -30.5 104.5t-99.5 31.5q-53 0 -89 -23t-45 -61l-53 22q16 51 66 84.5t121 33.5q92 0 140.5 -44.5t47.5 -132.5z" />
<glyph unicode="&#xe6;" horiz-adv-x="851" d="M392 133v124h-160q-111 0 -111 -102q0 -49 29 -79t80 -30q49 0 93 25.5t69 61.5zM449 313h277v41q0 79 -35.5 119.5t-102.5 40.5q-66 0 -102.5 -39t-36.5 -113v-49zM772 109q-19 -51 -67 -85t-117 -34q-119 0 -169 88q-79 -88 -195 -88q-77 0 -120.5 44t-43.5 122 q0 157 178 157h154v53q0 149 -130 149q-53 0 -88 -23.5t-45 -61.5l-53 22q16 52 66 85t120 33q112 0 162 -77q52 77 164 77q90 0 143 -54t53 -149v-110h-335v-51q0 -79 36 -119.5t103 -40.5q107 0 132 83z" />
<glyph unicode="&#xe7;" horiz-adv-x="517" d="M128 355v-150q0 -78 36 -119t102 -41q106 0 132 84l52 -20q-17 -46 -56 -78.5t-98 -38.5l-10 -30q26 -2 42.5 -16.5t16.5 -42.5q0 -64 -91 -64q-36 0 -53 7l5 33q27 -3 30 -3q47 0 47 31q0 15 -14 22.5t-28 8.5h-14l19 52q-82 7 -129 60.5t-47 142.5v174q0 95 52.5 149 t143.5 54q69 0 118 -32t67 -85l-53 -22q-24 84 -132 84q-66 0 -102 -41t-36 -119z" />
<glyph unicode="&#xe8;" horiz-adv-x="529" d="M166 738l56 31l82 -137l-40 -26zM70 193v174q0 95 53 149t144 54t143.5 -54t52.5 -149v-111h-335v-50q1 -78 36.5 -119t102.5 -41q106 0 131 83l52 -20q-19 -51 -66.5 -85t-116.5 -34q-91 0 -144 54t-53 149zM129 315h276v39q0 78 -36 119t-102 41q-67 0 -103 -41 t-35 -119v-39z" />
<glyph unicode="&#xe9;" horiz-adv-x="529" d="M244 632l82 137l55 -31l-97 -132zM70 193v174q0 95 53 149t144 54t143.5 -54t52.5 -149v-111h-335v-50q1 -78 36.5 -119t102.5 -41q106 0 131 83l52 -20q-19 -51 -66.5 -85t-116.5 -34q-91 0 -144 54t-53 149zM129 315h276v39q0 78 -36 119t-102 41q-67 0 -103 -41 t-35 -119v-39z" />
<glyph unicode="&#xea;" horiz-adv-x="529" d="M177 635l61 101h54l62 -101l-49 -19l-41 76l-39 -76zM70 193v174q0 95 53 149t144 54t143.5 -54t52.5 -149v-111h-335v-50q1 -78 36.5 -119t102.5 -41q106 0 131 83l52 -20q-19 -51 -66.5 -85t-116.5 -34q-91 0 -144 54t-53 149zM129 315h276v39q0 78 -36 119t-102 41 q-67 0 -103 -41t-35 -119v-39z" />
<glyph unicode="&#xeb;" horiz-adv-x="529" d="M165 615q-39 0 -39 47q0 51 39 51q42 0 42 -51q0 -47 -42 -47zM365 615q-39 0 -39 47q0 51 39 51q42 0 42 -51q0 -47 -42 -47zM70 193v174q0 95 53 149t144 54t143.5 -54t52.5 -149v-111h-335v-50q1 -78 36.5 -119t102.5 -41q106 0 131 83l52 -20q-19 -51 -66.5 -85 t-116.5 -34q-91 0 -144 54t-53 149zM129 315h276v39q0 78 -36 119t-102 41q-67 0 -103 -41t-35 -119v-39z" />
<glyph unicode="&#xec;" horiz-adv-x="208" d="M-2 738l56 31l82 -137l-40 -26zM7 560h127v-560h-58v504h-69v56z" />
<glyph unicode="&#xed;" horiz-adv-x="208" d="M81 632l82 137l55 -31l-97 -132zM7 560h127v-560h-58v504h-69v56z" />
<glyph unicode="&#xee;" horiz-adv-x="208" d="M17 635l61 101h54l61 -101l-48 -19l-41 76l-39 -76zM7 560h127v-560h-58v504h-69v56z" />
<glyph unicode="&#xef;" horiz-adv-x="208" d="M26 614q-41 0 -41 48q0 52 41 52q43 0 43 -52q0 -48 -43 -48zM158 614q-40 0 -40 48q0 52 40 52q43 0 43 -52q0 -48 -43 -48zM7 560h127v-560h-58v504h-69v56z" />
<glyph unicode="&#xf0;" horiz-adv-x="533" d="M70 196v146q0 96 45.5 149t133.5 53q84 0 151 -60v30q0 62 -26 103l-67 -54l-37 49l56 45q-37 17 -76 17q-27 0 -58 -9l-17 56q34 14 74 14q80 0 130 -37l68 55l36 -48l-60 -50q36 -56 36 -127l-1 -334q1 -95 -51 -149.5t-142 -54.5q-92 0 -143.5 55t-51.5 151zM130 333 v-129q0 -77 34 -117t100 -40t101 40.5t35 116.5v208q-25 31 -66.5 53t-82.5 22q-64 0 -92.5 -39t-28.5 -115z" />
<glyph unicode="&#xf1;" d="M175 630l-49 12q2 31 25 53.5t57 22.5q26 0 69 -21.5t53 -21.5q29 0 35 35l48 -12q-3 -32 -24.5 -53.5t-57.5 -21.5q-19 0 -62.5 21t-60.5 21q-27 0 -33 -35zM76 0v561l59 9v-73q69 73 148 73q173 0 173 -195v-375h-58v362q0 80 -25.5 117.5t-90.5 37.5q-42 0 -82 -27 t-66 -63v-427h-58z" />
<glyph unicode="&#xf2;" d="M128 355v-150q0 -78 36 -118.5t103 -40.5t102.5 40.5t35.5 118.5v150q0 78 -35.5 118.5t-102.5 40.5t-103 -40.5t-36 -118.5zM70 193v174q0 95 53 149t144 54t143.5 -54t52.5 -149v-174q0 -95 -52.5 -149t-143.5 -54t-144 54t-53 149zM168 738l56 31l81 -137l-40 -26z " />
<glyph unicode="&#xf3;" d="M128 355v-150q0 -78 36 -118.5t103 -40.5t102.5 40.5t35.5 118.5v150q0 78 -35.5 118.5t-102.5 40.5t-103 -40.5t-36 -118.5zM70 193v174q0 95 53 149t144 54t143.5 -54t52.5 -149v-174q0 -95 -52.5 -149t-143.5 -54t-144 54t-53 149zM246 632l82 137l56 -31l-98 -132z " />
<glyph unicode="&#xf4;" d="M128 355v-150q0 -78 36 -118.5t103 -40.5t102.5 40.5t35.5 118.5v150q0 78 -35.5 118.5t-102.5 40.5t-103 -40.5t-36 -118.5zM70 193v174q0 95 53 149t144 54t143.5 -54t52.5 -149v-174q0 -95 -52.5 -149t-143.5 -54t-144 54t-53 149zM178 635l61 101h54l62 -101l-49 -19 l-41 76l-39 -76z" />
<glyph unicode="&#xf5;" d="M128 355v-150q0 -78 36 -118.5t103 -40.5t102.5 40.5t35.5 118.5v150q0 78 -35.5 118.5t-102.5 40.5t-103 -40.5t-36 -118.5zM70 193v174q0 95 53 149t144 54t143.5 -54t52.5 -149v-174q0 -95 -52.5 -149t-143.5 -54t-144 54t-53 149zM173 630l-49 12q2 31 25 53.5 t58 22.5q25 0 68 -21.5t53 -21.5q29 0 35 35l48 -12q-2 -32 -23.5 -53.5t-57.5 -21.5q-20 0 -63 21t-61 21q-27 0 -33 -35z" />
<glyph unicode="&#xf6;" d="M128 355v-150q0 -78 35.5 -119t103.5 -41q67 0 102.5 41t35.5 119v150q0 78 -35.5 119t-102.5 41q-68 0 -103.5 -41t-35.5 -119zM70 193v174q0 95 53 149t144 54t143 -54t52 -149v-174q0 -95 -52 -149t-143 -54t-144 54t-53 149zM165 615q-39 0 -39 47q0 50 39 50 q42 0 42 -50q0 -47 -42 -47zM365 615q-39 0 -39 47q0 50 39 50q42 0 42 -50q0 -47 -42 -47z" />
<glyph unicode="&#xf7;" horiz-adv-x="545" d="M272 -10q-38 0 -38 47q0 50 38 50q40 0 40 -50q0 -47 -40 -47zM272 473q-38 0 -38 47q0 50 38 50q40 0 40 -50q0 -47 -40 -47zM46 250v60h454v-60h-454z" />
<glyph unicode="&#xf8;" d="M41 49l-39 41l70 61q-2 14 -2 42v174q0 95 53 149t144 54q125 0 176 -101l50 41l38 -40l-72 -62q3 -13 3 -41v-174q0 -95 -52 -149t-143 -54q-130 0 -177 101zM405 205v158l-267 -233q30 -84 129 -84q67 0 102.5 40.5t35.5 118.5zM394 429q-31 86 -127 86 q-68 0 -103.5 -41t-35.5 -119v-158z" />
<glyph unicode="&#xf9;" horiz-adv-x="523" d="M171 738l56 31l82 -137l-40 -26zM402 53q-63 -63 -154 -63q-85 0 -130 52t-45 147v372l58 9v-369q0 -81 25 -119t87 -38q98 0 149 72v445l58 9v-399q0 -66 5 -91t22 -60l-47 -30q-18 25 -28 63z" />
<glyph unicode="&#xfa;" horiz-adv-x="523" d="M222 632l82 137l56 -31l-98 -132zM402 53q-63 -63 -154 -63q-85 0 -130 52t-45 147v372l58 9v-369q0 -81 25 -119t87 -38q98 0 149 72v445l58 9v-399q0 -66 5 -91t22 -60l-47 -30q-18 25 -28 63z" />
<glyph unicode="&#xfb;" horiz-adv-x="523" d="M175 635l60 101h54l62 -101l-49 -19l-40 76l-40 -76zM402 53q-63 -63 -154 -63q-85 0 -130 52t-45 147v372l58 9v-369q0 -81 25 -119t87 -38q98 0 149 72v445l58 9v-399q0 -66 5 -91t22 -60l-47 -30q-18 25 -28 63z" />
<glyph unicode="&#xfc;" horiz-adv-x="523" d="M164 615q-39 0 -39 47q0 51 39 51q42 0 42 -51q0 -47 -42 -47zM364 615q-39 0 -39 47q0 51 39 51q42 0 42 -51q0 -47 -42 -47zM402 53q-63 -63 -154 -63q-85 0 -130 52t-45 147v372l58 9v-369q0 -81 25 -119t87 -38q98 0 149 72v445l58 9v-399q0 -66 5 -91t22 -60 l-47 -30q-18 25 -28 63z" />
<glyph unicode="&#xfd;" horiz-adv-x="540" d="M219 632l81 137l56 -31l-97 -132zM85 -39l54 11q8 -45 38.5 -60.5t96.5 -15.5q133 0 133 138v64q-64 -66 -149 -66q-89 0 -135.5 51t-46.5 147v331l58 9v-330q-1 -79 28.5 -116t95.5 -37q42 0 83.5 24t65.5 57v393l58 9v-549q0 -88 -52.5 -134.5t-138.5 -46.5 q-175 0 -189 121z" />
<glyph unicode="&#xfe;" horiz-adv-x="532" d="M134 423v-352q57 -26 140 -26q64 0 97.5 41t34.5 116v156q0 159 -124 159q-41 0 -82 -28.5t-66 -65.5zM76 -149v869l58 9v-232q65 73 149 73q87 0 133.5 -51.5t46.5 -146.5v-183q0 -91 -53 -145t-140 -54q-86 0 -136 25v-155z" />
<glyph unicode="&#xff;" horiz-adv-x="540" d="M170 615q-39 0 -39 47q0 51 39 51q42 0 42 -51q0 -47 -42 -47zM370 615q-39 0 -39 47q0 51 39 51q42 0 42 -51q0 -47 -42 -47zM85 -39l54 11q8 -45 38.5 -60.5t96.5 -15.5q133 0 133 138v64q-64 -66 -149 -66q-89 0 -135.5 51t-46.5 147v331l58 9v-330q-1 -79 28.5 -116 t95.5 -37q42 0 83.5 24t65.5 57v393l58 9v-549q0 -88 -52.5 -134.5t-138.5 -46.5q-175 0 -189 121z" />
<glyph unicode="&#x152;" horiz-adv-x="845" d="M66 202v296q0 99 62.5 157.5t159.5 58.5q51 0 93.5 -21t64.5 -60v67h356v-61h-296l1 -251h245v-60h-245l-1 -268h304v-60h-364v64q-57 -78 -158 -78q-97 0 -159.5 58.5t-62.5 157.5zM127 484v-268q0 -82 43 -125.5t116 -43.5q70 0 115 44.5t45 122.5v272q0 78 -45 122.5 t-115 44.5q-73 0 -116 -43.5t-43 -125.5z" />
<glyph unicode="&#x153;" horiz-adv-x="864" d="M128 355v-150q0 -78 35.5 -119t103.5 -41q134 0 138 148v164q0 158 -138 158q-68 0 -103.5 -41t-35.5 -119zM462 324l277 1l1 29q0 79 -36 119.5t-103 40.5q-139 0 -139 -158v-32zM785 109q-19 -51 -67 -85t-118 -34q-112 0 -167 84q-52 -84 -167 -84q-91 0 -143.5 54 t-52.5 149v174q0 95 52.5 149t143.5 54q117 0 167 -85q54 85 167 85q91 0 144 -54t53 -149v-101h-335v-74q3 -146 138 -146q108 0 133 83z" />
<glyph unicode="&#x178;" horiz-adv-x="502" d="M349 755q-39 0 -39 47q0 51 39 51q43 0 43 -51q0 -47 -43 -47zM149 755q-39 0 -39 47q0 51 39 51q43 0 43 -51q0 -47 -43 -47zM222 0v234l-214 467l68 9l176 -409l171 399h71l-211 -464v-236h-61z" />
<glyph unicode="&#x2c6;" horiz-adv-x="309" d="M68 635l60 101h54l62 -101l-49 -19l-40 76l-40 -76z" />
<glyph unicode="&#x2dc;" horiz-adv-x="381" d="M96 630l-49 12q3 31 26 53.5t57 22.5q25 0 68 -21.5t53 -21.5q29 0 35 35l48 -13q-3 -31 -24.5 -52.5t-57.5 -21.5q-19 0 -62 21t-61 21q-27 0 -33 -35z" />
<glyph unicode="&#x2000;" horiz-adv-x="457" />
<glyph unicode="&#x2001;" horiz-adv-x="915" />
<glyph unicode="&#x2002;" horiz-adv-x="457" />
<glyph unicode="&#x2003;" horiz-adv-x="915" />
<glyph unicode="&#x2004;" horiz-adv-x="305" />
<glyph unicode="&#x2005;" horiz-adv-x="228" />
<glyph unicode="&#x2006;" horiz-adv-x="152" />
<glyph unicode="&#x2007;" horiz-adv-x="152" />
<glyph unicode="&#x2008;" horiz-adv-x="114" />
<glyph unicode="&#x2009;" horiz-adv-x="183" />
<glyph unicode="&#x200a;" horiz-adv-x="50" />
<glyph unicode="&#x2010;" horiz-adv-x="369" d="M57 274v59h256v-59h-256z" />
<glyph unicode="&#x2011;" horiz-adv-x="369" d="M57 274v59h256v-59h-256z" />
<glyph unicode="&#x2012;" horiz-adv-x="369" d="M57 274v59h256v-59h-256z" />
<glyph unicode="&#x2013;" horiz-adv-x="472" d="M8 274v59h458v-59h-458z" />
<glyph unicode="&#x2014;" horiz-adv-x="797" d="M8 274v59h783v-59h-783z" />
<glyph unicode="&#x2018;" horiz-adv-x="176" d="M152 591l-21 -34q-83 36 -83 143q0 50 41 50q37 0 37 -50q0 -31 -16 -42q1 -37 42 -67z" />
<glyph unicode="&#x2019;" horiz-adv-x="176" d="M46 557l-20 34q41 32 41 67q-16 11 -16 42q0 50 38 50q41 0 41 -50q0 -18 -3.5 -36t-12 -39t-26 -39t-42.5 -29z" />
<glyph unicode="&#x201a;" horiz-adv-x="176" d="M46 -105l-20 34q41 32 41 67q-16 11 -16 41q0 51 38 51q41 0 41 -51q0 -17 -3.5 -35t-12 -39t-26 -39t-42.5 -29z" />
<glyph unicode="&#x201c;" horiz-adv-x="300" d="M152 591l-21 -34q-83 36 -83 143q0 50 41 50q37 0 37 -50q0 -31 -16 -42q1 -37 42 -67zM277 591l-21 -34q-80 35 -83 143q0 50 42 50q36 0 36 -50q0 -31 -16 -42q1 -37 42 -67z" />
<glyph unicode="&#x201d;" horiz-adv-x="300" d="M172 557l-20 34q41 32 41 67q-16 11 -16 42q0 50 38 50q40 0 40 -50q0 -41 -18.5 -82t-64.5 -61zM46 557l-20 34q41 32 41 67q-16 11 -16 42q0 50 38 50q41 0 41 -50q0 -18 -3.5 -36t-12 -39t-26 -39t-42.5 -29z" />
<glyph unicode="&#x201e;" horiz-adv-x="300" d="M172 -105l-20 34q41 32 41 67q-16 11 -16 41q0 51 38 51q40 0 40 -51q0 -40 -18.5 -81t-64.5 -61zM46 -105l-20 34q41 32 41 67q-16 11 -16 41q0 51 38 51q41 0 41 -51q0 -17 -3.5 -35t-12 -39t-26 -39t-42.5 -29z" />
<glyph unicode="&#x2022;" horiz-adv-x="402" d="M198 168q-62 0 -97 38.5t-35 114.5q0 80 35 120.5t97 40.5q65 0 102 -40.5t37 -120.5q0 -76 -37 -114.5t-102 -38.5z" />
<glyph unicode="&#x2026;" horiz-adv-x="474" d="M86 -9q-39 0 -39 47q0 49 39 49q41 0 41 -49q0 -47 -41 -47zM235 -9q-38 0 -38 47q0 49 38 49q42 0 42 -49q0 -47 -42 -47zM385 -9q-38 0 -38 47q0 49 38 49q41 0 41 -49q0 -47 -41 -47z" />
<glyph unicode="&#x202f;" horiz-adv-x="183" />
<glyph unicode="&#x2039;" horiz-adv-x="278" d="M107 279l113 -125l-32 -40l-133 145v41l133 145l32 -40z" />
<glyph unicode="&#x203a;" horiz-adv-x="278" d="M91 114l-32 40l113 125l-113 126l32 40l133 -145v-41z" />
<glyph unicode="&#x205f;" horiz-adv-x="228" />
<glyph unicode="&#x20ac;" horiz-adv-x="600" />
<glyph unicode="&#x2122;" horiz-adv-x="825" d="M353 245v458h58l151 -286l150 286h58v-458h-50l2 380l-135 -255h-51l-136 256l3 -381h-50zM152 245v414h-127v44h302v-44h-125v-414h-50z" />
<glyph unicode="&#xfb01;" horiz-adv-x="511" d="M76 0v506h-68v54h68v18q-1 88 41 119.5t133 31.5q34 0 79.5 -11.5t67.5 -21.5l-17 -46q-19 8 -64.5 17t-69.5 9q-62 0 -87 -17.5t-25 -63.5v-35h294v-560h-58v506h-237v-506h-57z" />
<glyph unicode="&#xfb02;" horiz-adv-x="493" d="M76 0v469h-68v55h68l-1 30q-1 77 52 126.5t138 49.5q91 0 153 -36v-694h-58v661q-47 13 -96 13q-61 0 -96 -35.5t-35 -99.5v-15h174v-55h-174v-469h-57z" />
<glyph unicode="&#xfb03;" horiz-adv-x="713" d="M76 0v505h-68v55h68q0 100 45.5 141t126.5 41q61 0 130 -42q53 60 139 60q55 0 99 -19l-18 -51q-45 13 -83 13q-62 0 -95 -33.5t-33 -109.5h251v-560h-58v505h-193v-505h-57v505h-197v-505h-57zM133 560h197q0 60 19 99q-51 26 -105 26q-58 0 -84.5 -24.5t-26.5 -100.5z " />
<glyph unicode="&#xfb04;" horiz-adv-x="747" d="M76 0v469h-68v55h68v45q0 90 45.5 131.5t124.5 41.5q61 0 135 -37q53 55 139 55q91 0 152 -36v-724h-57v692q-47 13 -97 13q-131 0 -131 -149v-32h174v-55h-174v-469h-57v469h-197v-469h-57zM133 524h197v44q0 47 19 92q-53 27 -105 27q-57 0 -84 -27.5t-27 -102.5v-33z " />
</font>
</defs>
</svg>
