<?xml version="1.0" standalone="no"?>
<!DOCTYPE svg PUBLIC "-//W3C//DTD SVG 1.1//EN" "http://www.w3.org/Graphics/SVG/1.1/DTD/svg11.dtd" >
<svg xmlns="http://www.w3.org/2000/svg">
<metadata></metadata>
<defs>
<font id="estandar_semiboldsemibold" horiz-adv-x="539" >
<font-face units-per-em="1000" ascent="750" descent="-250" />
<missing-glyph horiz-adv-x="228" />
<glyph horiz-adv-x="1000" />
<glyph horiz-adv-x="1000" />
<glyph unicode="&#xd;" horiz-adv-x="1000" />
<glyph unicode=" "  horiz-adv-x="228" />
<glyph unicode="&#x09;" horiz-adv-x="228" />
<glyph unicode="&#xa0;" horiz-adv-x="228" />
<glyph unicode="!" horiz-adv-x="250" d="M80 184l-11 339v177h113v-177l-11 -339h-91zM125 -10q-27 0 -43.5 16t-16.5 47q0 30 16.5 45t43.5 15q61 0 61 -60q0 -63 -61 -63z" />
<glyph unicode="&#x22;" horiz-adv-x="306" d="M44 553l-13 197h105l-13 -197h-79zM184 553l-13 197h105l-14 -197h-78z" />
<glyph unicode="#" horiz-adv-x="625" d="M76 0l40 191h-102l21 94h99l28 130h-102l20 94h101l39 191h102l-39 -191h121l39 191h103l-41 -191h105l-20 -94h-102l-30 -130h106l-21 -94h-103l-39 -191h-103l40 191h-122l-38 -191h-102zM236 285h122l27 130h-121z" />
<glyph unicode="$" horiz-adv-x="576" d="M253 -100v97q-80 9 -132.5 52t-67.5 108l103 27q10 -33 35.5 -57t61.5 -29v203q-192 35 -192 190v18q0 82 48 134t144 60v97h74v-99q75 -9 121 -49.5t60 -101.5l-101 -24q-7 28 -28.5 49t-51.5 26v-201q203 -32 203 -183v-22q0 -86 -52 -138.5t-151 -60.5v-96h-74z M327 287v-192q46 4 70 30.5t24 69.5v10q0 63 -94 82zM253 415v189q-42 -3 -63 -28.5t-21 -63.5v-10q0 -39 21.5 -58.5t62.5 -28.5z" />
<glyph unicode="%" horiz-adv-x="908" d="M49 440v118q0 71 44 112.5t117 41.5t117 -41.5t44 -112.5v-118q0 -71 -44 -112.5t-117 -41.5t-117 41.5t-44 112.5zM152 550v-102q0 -37 15.5 -56t42.5 -19t42.5 19t15.5 56v102q0 36 -15.5 55t-42.5 19t-42.5 -19t-15.5 -55zM539 143v118q0 72 44 113.5t117 41.5 t116.5 -42t43.5 -113v-118q0 -70 -44 -112t-116 -42q-73 0 -117 42t-44 112zM641 253v-102q0 -36 15.5 -55t43.5 -19q26 0 41.5 19t15.5 55v102q0 36 -15.5 55.5t-41.5 19.5q-27 0 -43 -19.5t-16 -55.5zM161 0l502 754l85 -54l-506 -755z" />
<glyph unicode="&#x26;" horiz-adv-x="647" d="M48 166v12q0 94 130 193q-85 93 -85 169t49.5 125t137.5 49q97 0 142.5 -44t45.5 -119q0 -58 -34 -98t-104 -91l121 -142q34 56 32 123l104 -15q-6 -100 -65 -192l73 -80l-81 -70l-61 69q-74 -69 -184 -69q-104 0 -162.5 45.5t-58.5 134.5zM165 172v-4q0 -84 112 -84 q62 0 110 46l-142 167q-80 -64 -80 -125zM266 436q30 22 45.5 34.5t30 33.5t14.5 42q0 72 -76 72q-75 0 -75 -74q0 -20 10 -40.5t20.5 -33.5t30.5 -34z" />
<glyph unicode="'" horiz-adv-x="166" d="M44 553l-13 197h105l-13 -197h-79z" />
<glyph unicode="(" horiz-adv-x="308" d="M60 131v378q0 97 55 165.5t149 84.5l20 -97q-52 -7 -82.5 -53t-30.5 -113v-352q0 -67 30.5 -113t82.5 -53l-20 -96q-94 15 -149 83t-55 166z" />
<glyph unicode=")" horiz-adv-x="308" d="M45 759q94 -16 149.5 -84.5t55.5 -165.5v-378q0 -98 -55.5 -166t-149.5 -83l-20 96q53 7 83 53t30 113v352q0 67 -30 113t-83 53z" />
<glyph unicode="*" horiz-adv-x="443" d="M80 406l82 106l-126 35l27 88l121 -45l-4 133h87l-5 -131l118 44l28 -89l-124 -36l79 -105l-70 -54l-71 112l-70 -112z" />
<glyph unicode="+" horiz-adv-x="560" d="M228 45v206h-180v104h180v206h105v-206h181v-104h-181v-206h-105z" />
<glyph unicode="," horiz-adv-x="208" d="M41 -106l-21 59q18 7 30.5 20t12.5 29q-24 16 -24 54q0 33 17.5 51t47.5 18q31 0 49 -18t18 -51q0 -30 -9 -59t-40 -60t-81 -43z" />
<glyph unicode="-" horiz-adv-x="389" d="M48 251v101h293v-101h-293z" />
<glyph unicode="." horiz-adv-x="208" d="M104 -12q-65 0 -65 67q0 70 65 70q67 0 67 -70q0 -67 -67 -67z" />
<glyph unicode="/" horiz-adv-x="485" d="M8 -110l374 899l97 -39l-376 -898z" />
<glyph unicode="0" horiz-adv-x="561" d="M54 208v284q0 102 62.5 162t164.5 60t165 -60t63 -162v-284q0 -102 -63 -162t-165 -60t-164.5 60t-62.5 162zM170 479v-258q0 -64 29.5 -97.5t81.5 -33.5t81.5 33.5t29.5 97.5v258q0 63 -29.5 97t-81.5 34q-51 0 -81 -34t-30 -97z" />
<glyph unicode="1" horiz-adv-x="288" d="M132 700h98v-700h-115v562l-83 -54l-52 84z" />
<glyph unicode="2" horiz-adv-x="556" d="M49 0v72l272 320q62 71 62 123q0 42 -27 69.5t-77 27.5q-72 0 -99 -66l-112 28q19 62 74.5 101t136.5 39q107 0 165 -54.5t58 -142.5q0 -57 -27.5 -105t-77.5 -105l-178 -204h295v-103h-465z" />
<glyph unicode="3" horiz-adv-x="545" d="M263 -14q-85 0 -139.5 39t-71.5 102l109 30q27 -68 102 -68q107 0 107 103v17q0 61 -26.5 87.5t-78.5 26.5h-78v93h77q49 0 73.5 27t24.5 75q-1 43 -24.5 69.5t-71.5 26.5q-39 0 -65 -17.5t-34 -47.5l-108 27q19 62 72.5 100t134.5 38q103 0 157 -54t54 -140 q0 -40 -18 -80.5t-50 -65.5q37 -20 60.5 -64.5t23.5 -89.5v-30q0 -93 -60 -148.5t-170 -55.5z" />
<glyph unicode="4" horiz-adv-x="565" d="M30 131v69l241 510l118 -15l-218 -462h190v235l116 16v-251h66v-102h-66v-131h-116v131h-331z" />
<glyph unicode="5" horiz-adv-x="541" d="M56 129l110 31q23 -70 101 -70q52 0 79.5 26.5t27.5 74.5v30q0 62 -26.5 87.5t-78.5 25.5q-62 0 -121 -40l-86 53l43 353h363v-102h-259l-22 -189q37 26 99 26q97 0 153 -50t56 -153v-42q0 -93 -60 -148t-169 -55q-85 0 -137.5 38.5t-72.5 103.5z" />
<glyph unicode="6" horiz-adv-x="570" d="M54 190v302q0 101 63 161.5t167 60.5q90 0 146.5 -40t74.5 -112l-112 -29q-14 78 -109 78q-53 0 -83.5 -34.5t-30.5 -97.5v-93q55 38 139 38q93 0 150.5 -48.5t57.5 -148.5v-31q0 -101 -63 -155.5t-168 -54.5t-168.5 51.5t-63.5 152.5zM170 283v-79q0 -115 116 -115 q115 0 115 122q0 59 -25 84.5t-79 25.5q-78 0 -127 -38z" />
<glyph unicode="7" horiz-adv-x="454" d="M68 5l245 592h-300v103h433v-69l-259 -641z" />
<glyph unicode="8" horiz-adv-x="575" d="M268 417h36q44 0 69.5 29t25.5 73t-28.5 69.5t-82.5 25.5t-82.5 -25.5t-28.5 -69.5q0 -45 23.5 -73.5t67.5 -28.5zM49 190v36q0 44 23 86t57 65q-30 27 -48 67.5t-18 79.5q0 88 56.5 139t168.5 51t169 -51t57 -139q0 -39 -18 -79t-48 -67q36 -24 57.5 -65.5t21.5 -86.5 v-36q0 -95 -59.5 -149.5t-179.5 -54.5t-179.5 54.5t-59.5 149.5zM171 218v-26q0 -103 117 -103t117 103v26q0 49 -25.5 79t-69.5 30h-43q-45 0 -70.5 -29.5t-25.5 -79.5z" />
<glyph unicode="9" horiz-adv-x="567" d="M66 139l112 28q16 -77 108 -77q53 0 82.5 34t29.5 97v89q-49 -30 -136 -30q-93 0 -150.5 48t-57.5 149v28q0 101 62.5 155t166.5 54q106 0 169 -51t63 -151v-304q0 -101 -63 -161.5t-166 -60.5q-88 0 -147 41.5t-73 111.5zM398 412v84q0 115 -115 115q-113 0 -113 -119 q0 -58 25 -83t79 -25q76 0 124 28z" />
<glyph unicode=":" horiz-adv-x="222" d="M110 -10q-64 0 -64 67q0 35 17 52.5t47 17.5q68 0 68 -70q0 -67 -68 -67zM110 433q-29 0 -46.5 17t-17.5 50q0 35 17 52.5t47 17.5q68 0 68 -70q0 -33 -18 -50t-50 -17z" />
<glyph unicode=";" horiz-adv-x="224" d="M113 433q-30 0 -47.5 17t-17.5 50q0 70 65 70q67 0 67 -70q0 -67 -67 -67zM49 -106l-21 59q43 17 42 49q-23 16 -23 54q0 33 17.5 51t47.5 18q31 0 49 -18t18 -51q0 -30 -9 -59t-40 -60t-81 -43z" />
<glyph unicode="&#x3c;" horiz-adv-x="365" d="M154 279l164 -153l-58 -75l-212 189v79l212 191l58 -76z" />
<glyph unicode="=" horiz-adv-x="558" d="M48 130v101h463v-101h-463zM48 348v102h463v-102h-463z" />
<glyph unicode="&#x3e;" horiz-adv-x="365" d="M106 51l-58 75l165 153l-165 155l58 76l212 -191v-79z" />
<glyph unicode="?" horiz-adv-x="500" d="M173 174v36q0 50 13.5 86t28 53t53.5 54q33 33 50 62t17 68v7q0 33 -22 53t-67 20q-77 0 -93 -64l-108 27q15 64 65.5 101t135.5 37q99 0 153.5 -48t54.5 -124v-15q0 -59 -23.5 -99.5t-70.5 -87.5q-41 -40 -57.5 -67.5t-16.5 -65.5v-33h-113zM230 -13q-28 0 -46.5 16.5 t-18.5 46.5q0 31 18.5 47.5t46.5 16.5t46.5 -16.5t18.5 -47.5q0 -30 -18.5 -46.5t-46.5 -16.5z" />
<glyph unicode="@" horiz-adv-x="722" d="M296 397l-13 -102q-12 -84 50 -84q24 0 49 14t39 33l29 227h-77q-64 0 -77 -88zM50 204l39 290q13 97 107 156t212 59t197.5 -61t66.5 -157l-28 -217q-8 -58 -39.5 -91t-86.5 -33q-65 0 -84 51q-21 -21 -52 -36t-58 -15q-64 0 -92.5 36t-20.5 104l15 117q9 66 46 101 t96 35h162l-36 -275q-3 -30 3.5 -42.5t25.5 -12.5q41 0 50 61l28 212q10 75 -50 116t-149 41t-161 -42t-82 -118l-37 -274q-10 -74 50 -115.5t148 -41.5q70 0 139 23l18 -60q-69 -28 -163 -28q-118 0 -197.5 60t-66.5 157z" />
<glyph unicode="A" horiz-adv-x="594" d="M467 -10l-58 188h-225l-52 -178h-130l240 700h110l239 -695zM296 558l-83 -280h167z" />
<glyph unicode="B" horiz-adv-x="577" d="M59 0v700h246q217 0 217 -180v-35q0 -32 -17.5 -68t-49.5 -55q36 -15 59.5 -53.5t22.5 -85.5v-46q-1 -80 -53 -128.5t-154 -48.5h-271zM176 403h153q35 0 54.5 22.5t19.5 67.5v13q0 51 -21.5 70t-73.5 19h-131zM177 104h151q46 0 68.5 23t22.5 62v26q0 42 -21 66t-60 24 h-162z" />
<glyph unicode="C" horiz-adv-x="551" d="M172 225q0 -64 32.5 -99t87.5 -35q93 0 116 76l113 -27q-16 -71 -77 -112.5t-152 -41.5q-105 0 -171.5 62t-66.5 164v277q0 102 66.5 163.5t171.5 61.5q91 0 152 -41.5t77 -112.5l-113 -27q-23 76 -116 76q-54 0 -87 -35t-33 -98v-251z" />
<glyph unicode="D" horiz-adv-x="590" d="M59 0v700h252q105 0 165.5 -61t60.5 -164v-250q0 -103 -60.5 -164t-165.5 -61h-252zM177 105h134q52 0 80 34t28 99v224q0 65 -28 98.5t-80 33.5h-134v-489z" />
<glyph unicode="E" horiz-adv-x="506" d="M59 0v700h408v-106h-290v-186h241v-104h-241v-199h297v-105h-415z" />
<glyph unicode="F" horiz-adv-x="494" d="M59 0v700h409v-106h-291v-210h242v-105h-242v-279h-118z" />
<glyph unicode="G" horiz-adv-x="584" d="M430 56q-72 -70 -167 -70q-100 0 -154.5 59.5t-54.5 163.5v280q0 102 68 163.5t175 61.5q91 0 153 -41.5t78 -112.5l-113 -27q-11 36 -42 56t-76 20q-56 0 -90.5 -35t-34.5 -98v-253q0 -64 30 -98.5t84 -34.5q83 0 133 66v121h-136v103h253v-390h-85z" />
<glyph unicode="H" horiz-adv-x="594" d="M59 0v700h118l-1 -286h243v286h118v-700h-118v309h-243v-309h-117z" />
<glyph unicode="I" horiz-adv-x="233" d="M59 0v700h118v-700h-118z" />
<glyph unicode="J" horiz-adv-x="290" d="M21 -9l-16 100q111 14 111 138v471h117l1 -486q0 -97 -57 -155.5t-156 -67.5z" />
<glyph unicode="K" horiz-adv-x="554" d="M431 -10l-182 306l-73 -98v-198h-117v700h117v-315l230 315h145l-228 -305l235 -390z" />
<glyph unicode="L" horiz-adv-x="479" d="M59 0v700h118v-595h291v-105h-409z" />
<glyph unicode="M" horiz-adv-x="700" d="M59 0v700h90l202 -389l202 389h89v-700h-117l4 443l-142 -262h-81l-134 248l4 -429h-117z" />
<glyph unicode="N" horiz-adv-x="611" d="M59 0v700h121l260 -481l-3 481h117v-700h-124l-258 478l3 -478h-116z" />
<glyph unicode="O" horiz-adv-x="603" d="M54 212v277q0 102 71.5 163.5t177.5 61.5t177 -61.5t71 -163.5v-277q0 -102 -71 -164t-177 -62t-177.5 62t-71.5 164zM173 476v-251q0 -64 37 -99t93 -35t93 35t37 99v251q0 63 -37 98t-93 35t-93 -35t-37 -98z" />
<glyph unicode="P" horiz-adv-x="578" d="M59 0v700h252q104 0 165 -61t61 -164v-46q0 -103 -61 -164t-165 -61h-134v-204h-118zM177 308h134q52 0 80 34.5t28 99.5v20q0 65 -28 98.5t-80 33.5h-134v-286z" />
<glyph unicode="Q" horiz-adv-x="603" d="M559 0l-72 -63l-65 74q-55 -25 -119 -25q-106 0 -177.5 62t-71.5 164v277q0 102 71.5 163.5t177.5 61.5t177 -61.5t71 -163.5v-277q0 -85 -51 -144zM173 476v-251q0 -64 37 -99t93 -35q22 0 43 8l-58 67l72 63l57 -65q16 26 16 61v251q0 63 -37 98t-93 35t-93 -35 t-37 -98z" />
<glyph unicode="R" horiz-adv-x="578" d="M423 -10l-144 273h-102v-263h-118v700h252q103 0 164.5 -56.5t61.5 -144.5v-35q0 -65 -36.5 -115t-100.5 -71l149 -273zM176 594v-226h135q50 0 79 30.5t29 77.5v11q0 48 -28.5 77.5t-79.5 29.5h-135z" />
<glyph unicode="S" horiz-adv-x="555" d="M149 171q13 -34 47 -56.5t82 -22.5q61 0 93 26t32 73v8q0 86 -125 98q-225 23 -225 197v20q0 92 55.5 145.5t169.5 53.5q95 0 151.5 -41.5t74.5 -111.5l-113 -28q-22 76 -113 76q-55 0 -82 -26t-27 -69v-7q0 -50 31.5 -70.5t94.5 -27.5q224 -27 224 -195v-25 q0 -94 -61.5 -147.5t-178.5 -53.5q-96 0 -160.5 43.5t-82.5 111.5z" />
<glyph unicode="T" horiz-adv-x="497" d="M190 0v595h-180v105h479v-105h-180v-595h-119z" />
<glyph unicode="U" horiz-adv-x="589" d="M279 89q44 0 80 19t56 48v544h118v-517q0 -99 27 -159l-106 -34q-12 19 -24 68q-28 -31 -74.5 -51.5t-94.5 -20.5q-205 0 -205 214v495l119 15v-497q0 -65 24.5 -94.5t79.5 -29.5z" />
<glyph unicode="V" horiz-adv-x="576" d="M131 710l159 -567l154 557h130l-230 -700h-109l-230 695z" />
<glyph unicode="W" horiz-adv-x="891" d="M204 0l-199 695l124 15l133 -564l125 554h118l126 -553l130 553h127l-200 -700h-118l-125 537l-124 -537h-117z" />
<glyph unicode="X" horiz-adv-x="562" d="M409 700h148l-199 -345l202 -355h-148l-130 269l-132 -269h-148l202 352l-196 343l140 15l131 -272z" />
<glyph unicode="Y" horiz-adv-x="548" d="M216 0v239l-211 456l132 15l139 -350l133 340h137l-212 -459v-241h-118z" />
<glyph unicode="Z" horiz-adv-x="535" d="M30 0v103l319 492h-308v105h451v-105l-317 -490h332v-105h-477z" />
<glyph unicode="[" horiz-adv-x="276" d="M63 -110v860h189v-97h-86v-666h86v-97h-189z" />
<glyph unicode="\" horiz-adv-x="486" d="M8 750l96 39l374 -899l-95 -38z" />
<glyph unicode="]" horiz-adv-x="276" d="M25 -110v97h86v666h-86v97h189v-860h-189z" />
<glyph unicode="^" horiz-adv-x="406" d="M42 519l114 219h95l113 -219l-89 -29l-72 162l-72 -162z" />
<glyph unicode="_" horiz-adv-x="487" d="M8 -126v80h472v-80h-472z" />
<glyph unicode="`" horiz-adv-x="297" d="M57 736l84 52l83 -146l-56 -36z" />
<glyph unicode="a" horiz-adv-x="518" d="M150 154q-1 -37 21 -55.5t61 -18.5q72 0 113 60v88h-110q-43 0 -64 -17t-21 -57zM457 382v-204q0 -101 27 -155l-98 -33q-18 26 -24 57q-26 -26 -67 -41.5t-82 -15.5q-83 0 -130 40.5t-47 119.5q0 83 48 120t141 37h120v62q0 55 -22 79t-70 24q-39 0 -63.5 -18.5 t-31.5 -48.5l-107 27q14 60 67.5 99t134.5 39q99 0 152 -48t52 -140z" />
<glyph unicode="b" horiz-adv-x="542" d="M176 407v-300q38 -19 97 -19q98 0 98 123v147q0 57 -20 84t-66 27q-29 0 -58.5 -18t-50.5 -44zM63 50v670l113 15v-223q56 58 132 58q91 0 133 -50.5t42 -150.5v-170q0 -98 -56 -153.5t-154 -55.5q-126 0 -210 60z" />
<glyph unicode="c" horiz-adv-x="507" d="M473 134q-15 -67 -67 -105t-136 -38q-98 0 -155 56t-57 153v160q0 97 57 153t155 56q83 0 135.5 -37.5t67.5 -104.5l-106 -27q-15 71 -97 71q-99 0 -99 -122v-138q0 -122 99 -122q81 0 97 71z" />
<glyph unicode="d" horiz-adv-x="542" d="M507 23l-98 -33q-17 24 -25 56q-58 -56 -143 -56q-88 0 -135 55t-47 154v170q0 98 44.5 149.5t131.5 51.5q72 0 132 -26v176l113 15v-557q0 -101 27 -155zM367 146v300q-49 23 -109 23q-87 0 -87 -111v-147q1 -63 21.5 -93t68.5 -30q72 0 106 58z" />
<glyph unicode="e" horiz-adv-x="537" d="M58 199v161q0 97 57 153.5t155 56.5q99 0 156 -56t57 -154v-116h-313v-39q0 -118 100 -118q81 0 97 72l106 -25q-15 -67 -67.5 -105.5t-135.5 -38.5q-98 0 -155 56t-57 153zM169 325h202v28q0 120 -100 120q-101 0 -102 -120v-28z" />
<glyph unicode="f" horiz-adv-x="348" d="M64 0v387h-56v93h56l-1 70q-1 91 46.5 135.5t138.5 44.5q47 0 91 -14l-18 -88q-24 6 -60 6q-44 0 -64.5 -21t-20.5 -65v-68h137v-93h-137v-387h-112z" />
<glyph unicode="g" horiz-adv-x="542" d="M368 196l-1 249q-51 24 -109 24q-86 0 -86 -111v-104q0 -57 19.5 -83t65.5 -26q58 0 111 51zM402 560h78v-531q0 -92 -56 -140.5t-153 -48.5q-95 0 -148.5 36t-58.5 104l107 17q5 -31 28 -45t72 -14q96 0 96 102v55q-53 -51 -132 -51q-91 0 -133 49.5t-42 149.5v126 q0 98 44.5 149.5t131.5 51.5q71 0 138 -29z" />
<glyph unicode="h" d="M63 0v720l113 15v-223q56 58 133 58q90 0 130 -47.5t40 -141.5v-381h-113v368q0 54 -19 78t-65 24q-58 0 -106 -59v-411h-113z" />
<glyph unicode="i" horiz-adv-x="238" d="M185 664q0 -63 -68 -63q-65 0 -65 63q0 67 65 67q68 0 68 -67zM7 560h169v-560h-113v467h-56v93z" />
<glyph unicode="j" horiz-adv-x="245" d="M125 601q-66 0 -66 63q0 66 66 66t66 -66q0 -63 -66 -63zM14 560h169v-522q0 -93 -54 -143.5t-155 -54.5l-15 90q59 2 85 30t26 88v419h-56v93z" />
<glyph unicode="k" horiz-adv-x="499" d="M381 -10l-142 241l-63 -82v-149h-113v720l113 15v-414l178 239h137l-180 -235l193 -321z" />
<glyph unicode="l" horiz-adv-x="238" d="M99 -10q-36 57 -36 162v568l113 15v-557q0 -101 27 -155z" />
<glyph unicode="m" horiz-adv-x="806" d="M348 369q0 49 -18.5 75t-51.5 26q-58 0 -102 -63v-407h-113v555l110 15v-61q56 61 131 61q89 0 123 -75q54 75 148 75q168 0 168 -189v-381h-111v368q0 53 -18.5 78.5t-60.5 25.5q-43 0 -68 -27.5t-25 -69.5v-375h-112v369z" />
<glyph unicode="n" horiz-adv-x="540" d="M63 0v555l111 15v-61q61 61 136 61q169 0 169 -191v-379h-113v366q0 54 -18.5 79t-63.5 25q-59 0 -108 -63v-407h-113z" />
<glyph unicode="o" d="M170 349v-138q0 -123 101 -123q48 0 74 31.5t26 91.5v138q0 60 -26 91.5t-74 31.5q-101 0 -101 -123zM58 199v162q0 97 57 153t156 56q98 0 155 -56t57 -153v-162q0 -97 -57 -153t-155 -56q-99 0 -156 56t-57 153z" />
<glyph unicode="p" horiz-adv-x="542" d="M174 570v-60q58 60 134 60q92 0 133.5 -50t41.5 -151v-170q0 -98 -53.5 -153.5t-147.5 -55.5q-61 0 -106 16v-141l-113 -15v705zM371 211v147q0 57 -20 84t-66 27q-60 0 -109 -61v-301q38 -19 97 -19q98 0 98 123z" />
<glyph unicode="q" horiz-adv-x="542" d="M366 153v302q-37 17 -97 17q-98 0 -98 -123v-147q0 -57 20 -84t66 -27q29 0 58.5 18t50.5 44zM479 519v-654l-113 -15v198q-56 -58 -132 -58q-91 0 -133.5 50.5t-42.5 150.5v170q0 97 56.5 153t154.5 56q124 0 210 -51z" />
<glyph unicode="r" horiz-adv-x="340" d="M63 0v555l111 15v-70q28 31 67.5 50.5t79.5 19.5l8 -103q-90 0 -153 -68v-399h-113z" />
<glyph unicode="s" horiz-adv-x="484" d="M34 127l104 26q5 -31 33.5 -51t72.5 -20q46 0 70 20t24 52v6q0 36 -28.5 51.5t-91.5 22.5q-167 21 -167 158v19q1 73 51 116t144 43q86 0 136.5 -38.5t60.5 -100.5l-103 -26q-7 73 -94 73q-42 0 -62 -20t-20 -52v-5q0 -32 24.5 -47t83.5 -24q88 -13 133 -46.5t45 -109.5 v-23q-1 -71 -55.5 -116t-150.5 -45q-89 0 -143.5 37t-66.5 100z" />
<glyph unicode="t" horiz-adv-x="339" d="M66 170v297h-53v93h57l20 90l88 15v-105h145v-93h-145v-286q0 -55 15 -76.5t58 -21.5q37 0 66 8l17 -89q-54 -14 -101 -14q-93 0 -130 41.5t-37 140.5z" />
<glyph unicode="u" horiz-adv-x="530" d="M374 49q-28 -26 -67.5 -42.5t-79.5 -16.5q-88 0 -127.5 51t-39.5 152v362l113 15v-365q0 -62 17 -89.5t59 -27.5q74 0 108 58v409l113 15v-392q0 -103 27 -155l-99 -33q-15 25 -24 59z" />
<glyph unicode="v" horiz-adv-x="485" d="M190 0l-186 555l120 15l120 -430l116 420h122l-187 -560h-105z" />
<glyph unicode="w" horiz-adv-x="758" d="M164 0l-160 555l117 15l101 -425l95 415h120l99 -412l100 412h119l-162 -560h-119l-98 409l-93 -409h-119z" />
<glyph unicode="x" horiz-adv-x="502" d="M347 560h145l-166 -273l174 -287h-144l-106 207l-103 -207h-145l174 286l-163 269l139 15l99 -203z" />
<glyph unicode="y" d="M68 -20l107 17q5 -31 28.5 -45t70.5 -14t71 24t24 78v63q-57 -60 -143 -60q-84 0 -124 42.5t-40 133.5l1 336l112 15v-324q-1 -53 18 -77.5t65 -24.5q63 0 107 55v356l112 15v-540q0 -93 -53.5 -141.5t-149.5 -48.5q-194 0 -206 140z" />
<glyph unicode="z" horiz-adv-x="458" d="M32 0v97l249 367h-243v96h382v-93l-252 -371h263v-96h-399z" />
<glyph unicode="{" horiz-adv-x="341" d="M132 39v143q0 44 -18.5 65t-47.5 21h-30v104h30q29 0 47.5 21t18.5 65v144q0 77 36.5 112.5t108.5 35.5h20l12 -96h-13q-31 0 -43 -15t-12 -49v-133q0 -99 -68 -137q68 -37 68 -138v-132q0 -34 12 -49t43 -15h13l-13 -96h-19q-72 0 -108.5 35.5t-36.5 113.5z" />
<glyph unicode="|" horiz-adv-x="227" d="M64 -170v940h100v-940h-100z" />
<glyph unicode="}" horiz-adv-x="341" d="M276 268q-29 0 -47.5 -21t-18.5 -65v-143q0 -78 -36 -113.5t-108 -35.5h-19l-14 96h13q32 0 43.5 15t11.5 49v132q0 101 68 138q-68 39 -68 137v133q0 34 -11.5 49t-43.5 15h-13l13 96h20q144 0 144 -148v-144q0 -44 18.5 -65t47.5 -21h30v-104h-30z" />
<glyph unicode="~" horiz-adv-x="571" d="M135 266l-85 15q9 55 45 90t93 35q41 0 105.5 -29.5t86.5 -29.5q51 0 56 53l86 -13q-8 -58 -42.5 -92t-95.5 -34q-41 0 -103.5 29t-89.5 29q-26 0 -40 -14.5t-16 -38.5z" />
<glyph unicode="&#xa1;" horiz-adv-x="250" d="M69 0v177l11 339h91l11 -339v-177h-113zM125 587q-27 0 -43.5 15t-16.5 45q0 31 16.5 47t43.5 16q61 0 61 -63q0 -60 -61 -60z" />
<glyph unicode="&#xa2;" horiz-adv-x="537" d="M245 0v79q-86 8 -135 63t-49 145v126q0 90 48.5 144.5t135.5 62.5v80h58v-80q71 -7 116 -42.5t58 -92.5l-104 -26q-12 54 -70 61v-341q60 9 72 66l104 -25q-12 -58 -58 -95.5t-118 -44.5v-80h-58zM245 179v341q-75 -12 -75 -119v-102q0 -107 75 -120z" />
<glyph unicode="&#xa3;" horiz-adv-x="554" d="M34 0v84q34 21 54.5 57t20.5 77v74h-75v100h75v100q0 104 51 163t153 59q85 0 133 -39t61 -107l-110 -28q-11 71 -84 71q-48 0 -67.5 -32t-19.5 -98v-89h133v-100h-133v-59q0 -38 -11 -70.5t-23 -46.5l-11 -13h341v-103h-488z" />
<glyph unicode="&#xa4;" horiz-adv-x="582" d="M44 155l67 70q-19 43 -19 93v43q0 49 19 92l-67 71l71 76l66 -70q46 27 111 27q66 0 109 -27l67 70l71 -76l-68 -71q20 -42 20 -92v-43q0 -48 -20 -93l68 -70l-71 -76l-67 70q-44 -27 -109 -27q-67 0 -111 27l-66 -70zM190 352v-25q0 -54 27.5 -82t74.5 -28q46 0 73.5 28 t27.5 82v25q0 54 -27.5 82.5t-73.5 28.5t-74 -28.5t-28 -82.5z" />
<glyph unicode="&#xa5;" horiz-adv-x="550" d="M46 90v88h174v67h-174v88h153l-188 362l121 15l147 -298l142 288h123l-189 -367h154v-88h-173v-67h173v-88h-173v-90h-116v90h-174z" />
<glyph unicode="&#xa6;" horiz-adv-x="227" d="M64 -170v351h100v-351h-100zM64 416v354h100v-354h-100z" />
<glyph unicode="&#xa7;" horiz-adv-x="513" d="M58 31l107 27q7 -28 30.5 -45t61.5 -17q82 0 82 70v10q0 47 -101 66q-39 8 -69 18t-59.5 28.5t-45.5 48t-16 68.5v13q0 32 19 66t48 53q-55 38 -55 104v15q0 71 48.5 114.5t141.5 43.5q79 0 125.5 -36t58.5 -93l-105 -26q-11 60 -79 60q-75 0 -75 -65v-10q0 -50 105 -72 q38 -8 66 -17.5t58 -26.5t46.5 -45.5t16.5 -66.5v-16q0 -29 -22.5 -62t-52.5 -53q62 -38 62 -107v-16q0 -70 -52 -115.5t-145 -45.5q-79 0 -131 36t-68 94zM164 320v-6q0 -25 19.5 -41.5t38 -22.5t68.5 -17l12 -3q21 12 35.5 31.5t14.5 37.5v7q0 23 -18 38.5t-37.5 21.5 t-52 12.5t-41.5 9.5q-39 -23 -39 -68z" />
<glyph unicode="&#xa8;" horiz-adv-x="427" d="M327 609q-28 0 -43 18t-15 49q0 32 15 50.5t43 18.5q61 0 61 -69q0 -67 -61 -67zM99 609q-28 0 -43 18t-15 49q0 32 15 50.5t43 18.5q61 0 61 -69q0 -67 -61 -67z" />
<glyph unicode="&#xa9;" horiz-adv-x="687" d="M203 280v138q0 63 38.5 101t102.5 38t101.5 -33.5t37.5 -85.5l-82 -11q0 22 -15.5 35.5t-41.5 13.5t-41.5 -15.5t-15.5 -45.5v-133q0 -61 58 -61q26 0 41 13.5t15 36.5l82 -8q0 -53 -38 -88t-101 -35q-64 0 -102.5 38t-38.5 102zM54 207v283q0 99 85 159.5t205 60.5 t204.5 -60.5t84.5 -159.5v-283q0 -100 -84.5 -160.5t-204.5 -60.5t-205 60.5t-85 160.5zM134 488v-280q0 -67 63.5 -105.5t146.5 -38.5t146.5 38.5t63.5 105.5v280q0 66 -63.5 105t-146.5 39t-146.5 -39t-63.5 -105z" />
<glyph unicode="&#xaa;" horiz-adv-x="411" d="M327 256q-18 16 -25 43q-50 -40 -109 -40q-135 0 -135 131q0 123 154 123h86v36q0 89 -72 89q-60 0 -74 -46l-75 29q14 40 54 66t97 26q75 0 114 -40.5t39 -114.5v-195q0 -50 20 -77zM298 377v68h-91q-66 0 -66 -54q0 -28 16 -42.5t44 -14.5q61 0 97 43z" />
<glyph unicode="&#xab;" horiz-adv-x="446" d="M299 279l112 -118l-52 -68l-148 151v70l148 152l52 -68zM123 279l112 -118l-52 -68l-148 151v70l148 152l52 -68z" />
<glyph unicode="&#xac;" horiz-adv-x="623" d="M52 344v101h520v-249h-110v148h-410z" />
<glyph unicode="&#xad;" horiz-adv-x="389" d="M48 251v101h293v-101h-293z" />
<glyph unicode="&#xae;" horiz-adv-x="687" d="M206 148v402h150q63 0 99 -31.5t36 -90.5v-22q0 -85 -72 -112l85 -142l-102 -8l-73 139h-39v-135h-84zM290 354h57q30 0 45 13.5t15 44.5v8q0 32 -14.5 44.5t-45.5 12.5h-57v-123zM54 207v283q0 99 85 159.5t205 60.5t204.5 -60.5t84.5 -159.5v-283q0 -100 -84.5 -160.5 t-204.5 -60.5t-205 60.5t-85 160.5zM134 488v-280q0 -67 63.5 -105.5t146.5 -38.5t146.5 38.5t63.5 105.5v280q0 66 -63.5 105t-146.5 39t-146.5 -39t-63.5 -105z" />
<glyph unicode="&#xaf;" horiz-adv-x="384" d="M46 621v101h294v-101h-294z" />
<glyph unicode="&#xb0;" horiz-adv-x="351" d="M44 566v17q0 60 35.5 96.5t93.5 36.5q62 0 98.5 -36.5t36.5 -96.5v-17q0 -63 -36 -98t-99 -35q-59 0 -94 35t-35 98zM173 501q63 0 63 71q0 73 -63 73q-57 0 -57 -73q0 -71 57 -71z" />
<glyph unicode="&#xb1;" horiz-adv-x="571" d="M52 315v96h184v149h99v-149h184v-96h-184v-149h-99v149h-184zM52 24v95h467v-95h-467z" />
<glyph unicode="&#xb2;" horiz-adv-x="414" d="M185 317h181v-81h-317v58l181 203q39 43 39 77q0 24 -16 39.5t-45 15.5q-30 0 -45.5 -19.5t-18.5 -47.5l-87 23q7 53 46.5 89t104.5 36q74 0 113 -37.5t39 -97.5q0 -65 -71 -142z" />
<glyph unicode="&#xb3;" horiz-adv-x="407" d="M51 348l88 24q4 -63 61 -63q31 0 48 16.5t17 45.5v11q0 67 -40 67h-69v67h69q18 0 27 19t9 41q0 23 -15 39t-42 16q-56 0 -60 -61l-86 23q7 52 44.5 84.5t101.5 32.5q70 0 108 -36.5t38 -95.5q0 -54 -38 -92q20 -14 33.5 -42t13.5 -56v-19q0 -65 -42 -103.5t-117 -38.5 q-65 0 -103.5 34t-45.5 87z" />
<glyph unicode="&#xb4;" horiz-adv-x="297" d="M63 642l83 146l84 -52l-110 -130z" />
<glyph unicode="&#xb5;" horiz-adv-x="548" d="M376 555l113 15l-1 -371q0 -97 -52 -153t-141 -56q-64 0 -103 43l-1 -48q0 -36 -5 -69.5t-10 -49.5l-5 -16l-112 15q20 48 20 126v564l113 15l-1 -359q0 -123 93 -123q43 0 67.5 31.5t24.5 91.5v344z" />
<glyph unicode="&#xb6;" horiz-adv-x="562" d="M283 -110v377h-24q-92 0 -146.5 53t-54.5 150v26q0 98 55.5 151t158.5 53h228v-810h-71v729h-75v-729h-71z" />
<glyph unicode="&#xb7;" horiz-adv-x="208" d="M104 260q-30 0 -47.5 17t-17.5 50q0 70 65 70q67 0 67 -70q0 -33 -18 -50t-49 -17z" />
<glyph unicode="&#xb8;" horiz-adv-x="258" d="M46 -156l6 44q12 -5 33 -5q38 0 38 25q0 14 -14.5 21t-29.5 7l-15 -1l25 65h76l-11 -34q26 -4 43 -20t17 -42q0 -37 -31.5 -53.5t-74.5 -16.5q-32 0 -62 10z" />
<glyph unicode="&#xb9;" horiz-adv-x="245" d="M109 240v355l-61 -40l-39 65l117 84h72v-464h-89z" />
<glyph unicode="&#xba;" horiz-adv-x="413" d="M49 430v122q0 74 42.5 116.5t116.5 42.5t116 -42.5t42 -116.5v-122q0 -73 -42.5 -115.5t-115.5 -42.5t-116 42.5t-43 115.5zM131 543v-104q0 -93 77 -93t77 93v104q0 95 -77 95t-77 -95z" />
<glyph unicode="&#xbb;" horiz-adv-x="446" d="M87 93l-52 68l112 118l-112 119l52 68l148 -152v-70zM263 93l-52 68l113 118l-113 119l52 68l148 -152v-70z" />
<glyph unicode="&#xbc;" horiz-adv-x="825" d="M426 85v54l149 338l86 -14l-126 -298h112v144l90 15v-159h36v-80h-37v-85h-89v85h-221zM109 0l483 753l85 -53l-487 -757zM118 240v355l-61 -40l-39 65l117 84h72v-464h-89z" />
<glyph unicode="&#xbd;" horiz-adv-x="862" d="M577 753l86 -53l-487 -757l-81 57zM118 240v355l-61 -40l-39 65l117 84h72v-464h-89zM626 81h181v-81h-317v58l181 203q40 44 40 77q0 24 -16 39.5t-46 15.5t-45.5 -19.5t-18.5 -47.5l-87 22q7 54 46 90t105 36q74 0 113 -37.5t39 -97.5q0 -65 -71 -142z" />
<glyph unicode="&#xbe;" horiz-adv-x="929" d="M213 0l483 753l86 -53l-488 -757zM58 348l87 24q6 -63 62 -63q31 0 48 16.5t17 45.5v11q0 67 -40 67h-69v67h69q18 0 27 19t9 41q0 23 -15 39t-42 16q-55 0 -61 -61l-85 23q7 52 44.5 84.5t101.5 32.5q70 0 108 -36.5t38 -95.5q0 -54 -38 -92q20 -14 33 -42t13 -56v-19 q0 -65 -41.5 -103.5t-116.5 -38.5q-66 0 -104 34t-45 87zM530 85v54l149 338l86 -14l-126 -298h113l-1 144l90 15v-159h36v-80h-36v-85h-89v85h-222z" />
<glyph unicode="&#xbf;" horiz-adv-x="500" d="M215 493v33h114v-36q0 -50 -15.5 -88t-31.5 -55.5t-60 -60.5q-55 -55 -55 -119v-7q0 -33 22 -53t67 -20q78 0 92 65l109 -27q-16 -64 -66.5 -101.5t-134.5 -37.5q-99 0 -153.5 48t-54.5 124v15q0 59 23.5 99.5t70.5 87.5q41 40 57 67.5t16 65.5zM272 586q-29 0 -47 16.5 t-18 47.5q0 30 18 46.5t47 16.5q28 0 46 -16.5t18 -46.5q0 -31 -18 -47.5t-46 -16.5z" />
<glyph unicode="&#xc0;" horiz-adv-x="594" d="M173 872l84 52l83 -147l-56 -36zM467 -10l-58 187h-225l-52 -177h-130l240 700h109l241 -695zM296 558l-83 -280h167z" />
<glyph unicode="&#xc1;" horiz-adv-x="594" d="M261 782l83 146l84 -52l-111 -130zM467 -10l-58 187h-225l-52 -177h-130l240 700h109l241 -695zM296 558l-83 -280h167z" />
<glyph unicode="&#xc2;" horiz-adv-x="594" d="M467 -10l-58 187h-225l-52 -177h-130l240 700h109l241 -695zM296 558l-83 -280h167zM177 780l74 104h91l75 -104l-79 -24l-41 69l-41 -69z" />
<glyph unicode="&#xc3;" horiz-adv-x="594" d="M467 -10l-58 187h-225l-52 -177h-130l240 700h109l241 -695zM296 558l-83 -280h167zM194 765l-80 18q4 49 31 80t71 31q34 0 86 -22.5t63 -22.5q34 0 36 39l79 -17q-4 -50 -29.5 -80.5t-72.5 -30.5q-32 0 -81.5 22t-66.5 22q-36 0 -36 -39z" />
<glyph unicode="&#xc4;" horiz-adv-x="594" d="M414 749q-29 0 -44 17.5t-15 48.5q0 70 59 70q60 0 60 -70q0 -66 -60 -66zM176 749q-29 0 -44 17.5t-15 48.5q0 70 59 70q30 0 45.5 -18.5t15.5 -51.5q0 -31 -16 -48.5t-45 -17.5zM467 -10l-58 187h-225l-52 -177h-130l240 700h109l241 -695zM296 558l-83 -280h167z" />
<glyph unicode="&#xc5;" horiz-adv-x="594" d="M467 -10l-58 187h-225l-52 -177h-130l240 700h109l241 -695zM296 558l-83 -280h167zM217 823v10q0 35 22.5 56t56.5 21q36 0 58.5 -21t22.5 -56v-10q0 -37 -22 -57.5t-59 -20.5q-35 0 -57 20.5t-22 57.5zM296 789q34 0 34 38t-34 38q-30 0 -30 -38t30 -38z" />
<glyph unicode="&#xc6;" horiz-adv-x="914" d="M-2 0l366 700h509v-106h-293v-232h244v-104h-244v-153h300v-105h-419v208h-219l-101 -208h-143zM291 313h170v284h-34z" />
<glyph unicode="&#xc7;" horiz-adv-x="572" d="M172 476v-251q0 -64 32.5 -99t87.5 -35q93 0 116 76l113 -27q-14 -63 -64 -103t-126 -49l-7 -22q26 -4 43 -20t17 -42q0 -37 -31.5 -53.5t-74.5 -16.5q-32 0 -62 10l6 44q13 -5 33 -5q38 0 38 25q0 14 -14.5 21t-29.5 7l-15 -1l21 53q-90 11 -145.5 71t-55.5 153v277 q0 102 66.5 163.5t171.5 61.5q91 0 152 -41.5t77 -112.5l-113 -27q-23 76 -116 76q-54 0 -87 -35t-33 -98z" />
<glyph unicode="&#xc8;" horiz-adv-x="507" d="M59 0v700h408v-106h-291v-186h242v-104h-242v-199h298v-105h-415zM164 867l84 52l83 -146l-56 -36z" />
<glyph unicode="&#xc9;" horiz-adv-x="507" d="M59 0v700h408v-106h-291v-187h242v-102h-242v-200h298v-105h-415zM220 779l83 146l84 -51l-110 -131z" />
<glyph unicode="&#xca;" horiz-adv-x="507" d="M59 0v700h408v-106h-291v-186h242v-104h-242v-199h298v-105h-415zM148 780l75 104h90l75 -104l-79 -24l-41 69l-41 -69z" />
<glyph unicode="&#xcb;" horiz-adv-x="507" d="M144 749q-29 0 -44 18t-15 49q0 32 15 50.5t44 18.5t45 -18.5t16 -50.5q0 -31 -15.5 -49t-45.5 -18zM371 749q-28 0 -43 18t-15 49q0 32 15 50.5t43 18.5q61 0 61 -69q0 -67 -61 -67zM59 0v700h408v-106h-290v-186h241v-104h-241v-199h297v-105h-415z" />
<glyph unicode="&#xcc;" horiz-adv-x="233" d="M59 0v700h117v-700h-117zM5 870l84 52l83 -146l-56 -36z" />
<glyph unicode="&#xcd;" horiz-adv-x="233" d="M59 0v700h117v-700h-117zM67 773l83 147l84 -52l-110 -131z" />
<glyph unicode="&#xce;" horiz-adv-x="233" d="M59 0v700h117v-700h-117zM-3 780l75 104h90l75 -104l-78 -24l-42 69l-40 -69z" />
<glyph unicode="&#xcf;" horiz-adv-x="233" d="M41 749q-58 0 -58 67q0 69 58 69q59 0 59 -69q0 -67 -59 -67zM59 0v700h118v-700h-118zM194 749q-56 0 -56 67q0 69 56 69q59 0 59 -69q0 -67 -59 -67z" />
<glyph unicode="&#xd0;" horiz-adv-x="591" d="M59 0v303h-50v99h50v298h253q104 0 164.5 -61t60.5 -164v-250q0 -103 -60.5 -164t-164.5 -61h-253zM177 105h135q52 0 79.5 34t27.5 99v224q0 132 -107 132h-135v-192h136v-99h-136v-198z" />
<glyph unicode="&#xd1;" horiz-adv-x="611" d="M59 0v700h121l260 -481l-4 481h118v-700h-124l-258 479l3 -479h-116zM202 765l-79 18q3 48 30 79.5t71 31.5q35 0 86.5 -22.5t62.5 -22.5q34 0 36 39l79 -17q-4 -50 -29.5 -80.5t-72.5 -30.5q-32 0 -81.5 22t-66.5 22q-34 0 -36 -39z" />
<glyph unicode="&#xd2;" horiz-adv-x="603" d="M54 212v277q0 102 71 163.5t178 61.5q106 0 177 -61.5t71 -163.5v-277q0 -102 -71 -164t-177 -62t-177.5 62t-71.5 164zM173 476v-251q0 -63 37 -98t93 -35t93 35t37 98v251q0 63 -37 98t-93 35t-93 -35t-37 -98zM186 873l84 52l83 -146l-56 -36z" />
<glyph unicode="&#xd3;" horiz-adv-x="603" d="M54 212v277q0 102 71 163.5t178 61.5q106 0 177 -61.5t71 -163.5v-277q0 -102 -71 -164t-177 -62t-177.5 62t-71.5 164zM173 476v-251q0 -63 37 -98t93 -35t93 35t37 98v251q0 63 -37 98t-93 35t-93 -35t-37 -98zM275 779l83 146l84 -51l-111 -131z" />
<glyph unicode="&#xd4;" horiz-adv-x="603" d="M54 212v277q0 102 71 163.5t178 61.5q106 0 177 -61.5t71 -163.5v-277q0 -102 -71 -164t-177 -62t-177.5 62t-71.5 164zM173 476v-251q0 -63 37 -98t93 -35t93 35t37 98v251q0 63 -37 98t-93 35t-93 -35t-37 -98zM183 780l75 104h90l75 -104l-79 -24l-41 69l-41 -69z" />
<glyph unicode="&#xd5;" horiz-adv-x="603" d="M54 212v277q0 102 71 163.5t178 61.5q106 0 177 -61.5t71 -163.5v-277q0 -102 -71 -164t-177 -62t-177.5 62t-71.5 164zM173 476v-251q0 -63 37 -98t93 -35t93 35t37 98v251q0 63 -37 98t-93 35t-93 -35t-37 -98zM200 765l-79 19q4 48 31 79t70 31q35 0 86.5 -22 t62.5 -22q34 0 37 39l78 -18q-3 -50 -29 -80.5t-73 -30.5q-32 0 -81.5 22t-66.5 22q-34 0 -36 -39z" />
<glyph unicode="&#xd6;" horiz-adv-x="609" d="M57 212v277q0 102 71 163.5t178 61.5q105 0 176.5 -61.5t71.5 -163.5v-277q0 -102 -71.5 -164t-176.5 -62q-107 0 -178 61.5t-71 164.5zM175 476v-251q0 -64 37 -98.5t94 -34.5q56 0 92.5 35t36.5 98v251q0 63 -36.5 98t-92.5 35q-57 0 -94 -35t-37 -98zM417 749 q-28 0 -43 18t-15 49q0 32 15 50.5t43 18.5q61 0 61 -69q0 -67 -61 -67zM190 749q-29 0 -44 18t-15 49q0 32 15 50.5t44 18.5t45 -18.5t16 -50.5q0 -31 -15.5 -49t-45.5 -18z" />
<glyph unicode="&#xd7;" horiz-adv-x="547" d="M40 104l166 173l-166 173l68 73l165 -173l167 173l67 -73l-165 -173l165 -173l-67 -73l-167 173l-165 -173z" />
<glyph unicode="&#xd8;" horiz-adv-x="603" d="M59 72l-56 96l51 41v279q0 102 71.5 164t177.5 62q72 0 128.5 -29t86.5 -82l29 24l53 -96l-49 -42v-277q0 -102 -71 -164t-177 -62q-72 0 -129 29t-87 82zM433 225v162l-254 -211q12 -41 45.5 -62.5t78.5 -21.5q56 0 93 35t37 98zM173 313l252 210q-12 41 -45 63.5 t-77 22.5q-56 0 -93 -35.5t-37 -98.5v-162z" />
<glyph unicode="&#xd9;" horiz-adv-x="589" d="M159 876l84 52l83 -146l-56 -36zM279 89q44 0 80 19t56 48v544h118v-517q0 -101 27 -159l-106 -34q-10 15 -25 68q-27 -31 -73.5 -51.5t-94.5 -20.5q-205 0 -205 214v495l119 15v-497q0 -65 24.5 -94.5t79.5 -29.5z" />
<glyph unicode="&#xda;" horiz-adv-x="589" d="M259 782l83 146l84 -52l-111 -130zM279 89q44 0 80 19t56 48v544h118v-517q0 -101 27 -159l-106 -34q-10 15 -25 68q-27 -31 -73.5 -51.5t-94.5 -20.5q-205 0 -205 214v495l119 15v-497q0 -65 24.5 -94.5t79.5 -29.5z" />
<glyph unicode="&#xdb;" horiz-adv-x="589" d="M177 780l75 104h90l75 -104l-79 -24l-41 69l-40 -69zM279 89q44 0 80 19t56 48v544h118v-517q0 -101 27 -159l-106 -34q-10 15 -25 68q-27 -31 -73.5 -51.5t-94.5 -20.5q-205 0 -205 214v495l119 15v-497q0 -65 24.5 -94.5t79.5 -29.5z" />
<glyph unicode="&#xdc;" horiz-adv-x="589" d="M413 749q-57 0 -57 66q0 70 57 70q30 0 46 -18.5t16 -51.5q0 -31 -16 -48.5t-46 -17.5zM186 749q-58 0 -58 66q0 70 58 70q61 0 61 -70q0 -66 -61 -66zM279 89q44 0 80 19t56 48v544h118v-517q0 -101 27 -159l-106 -34q-10 15 -25 68q-27 -31 -73.5 -51.5t-94.5 -20.5 q-205 0 -205 214v495l119 15v-497q0 -65 24.5 -94.5t79.5 -29.5z" />
<glyph unicode="&#xdd;" horiz-adv-x="548" d="M232 782l83 146l84 -52l-111 -130zM216 0v239l-211 456l133 15l138 -350l132 340h138l-212 -459v-241h-118z" />
<glyph unicode="&#xde;" horiz-adv-x="572" d="M59 0v700h118v-122h124q105 0 165 -55.5t60 -156.5v-32q0 -101 -60 -156.5t-165 -55.5h-124v-122h-118zM177 225h124q107 0 107 120v10q0 119 -107 119h-124v-249z" />
<glyph unicode="&#xdf;" horiz-adv-x="564" d="M64 0v363h-56v97h56v91q0 98 50 153.5t143 55.5q82 0 129 -38.5t47 -111.5q0 -34 -15.5 -64t-33.5 -48t-33.5 -41t-15.5 -44q0 -24 19 -47t46 -44t54 -45t46 -59t19 -77q0 -70 -46.5 -112.5t-141.5 -42.5q-53 0 -95 15l18 94q40 -10 70 -10q35 0 58 15.5t23 46.5 q0 24 -18 46.5t-44.5 42t-52.5 42t-44 56t-18 73.5q0 35 14.5 63.5t32.5 44.5t32.5 39.5t14.5 50.5q0 58 -67 58q-79 0 -79 -123v-540h-112z" />
<glyph unicode="&#xe0;" horiz-adv-x="525" d="M145 736l84 52l83 -146l-57 -36zM157 153q-1 -37 21 -55t61 -18q72 0 113 60v88h-110q-43 0 -64 -17.5t-21 -57.5zM464 381v-203q0 -101 27 -155l-98 -33q-18 27 -24 57q-26 -26 -67.5 -41.5t-81.5 -15.5q-84 0 -130.5 40.5t-46.5 119.5q0 84 48 120.5t140 36.5h121v62 q0 55 -22 79t-70 24q-39 0 -63.5 -18t-30.5 -48l-107 26q13 60 66.5 99t134.5 39q100 0 152.5 -48t51.5 -141z" />
<glyph unicode="&#xe1;" horiz-adv-x="525" d="M212 642l83 146l84 -52l-111 -130zM157 153q-1 -37 21 -55t61 -18q72 0 113 60v88h-110q-43 0 -64 -17.5t-21 -57.5zM464 381v-203q0 -101 27 -155l-98 -33q-18 27 -24 57q-26 -26 -67.5 -41.5t-81.5 -15.5q-84 0 -130.5 40.5t-46.5 119.5q0 84 48 120.5t140 36.5h121v62 q0 55 -22 79t-70 24q-39 0 -63.5 -18t-30.5 -48l-107 26q13 60 66.5 99t134.5 39q100 0 152.5 -48t51.5 -141z" />
<glyph unicode="&#xe2;" horiz-adv-x="525" d="M157 153q-1 -37 21 -55t61 -18q72 0 113 60v88h-110q-43 0 -64 -17.5t-21 -57.5zM464 381v-203q0 -101 27 -155l-98 -33q-18 27 -24 57q-26 -26 -67.5 -41.5t-81.5 -15.5q-84 0 -130.5 40.5t-46.5 119.5q0 84 48 120.5t140 36.5h121v62q0 55 -22 79t-70 24 q-39 0 -63.5 -18t-30.5 -48l-107 26q13 60 66.5 99t134.5 39q100 0 152.5 -48t51.5 -141zM140 640l75 104h90l75 -104l-79 -24l-41 69l-40 -69z" />
<glyph unicode="&#xe3;" horiz-adv-x="525" d="M155 625l-79 18q4 49 31 80t71 31q34 0 85.5 -22.5t63.5 -22.5q34 0 36 39l79 -17q-4 -50 -29.5 -80.5t-72.5 -30.5q-33 0 -82 22t-66 22q-35 0 -37 -39zM157 153q-1 -37 21 -55t61 -18q72 0 113 60v88h-110q-43 0 -64 -17.5t-21 -57.5zM464 381v-203q0 -101 27 -155 l-98 -33q-18 27 -24 57q-26 -26 -67.5 -41.5t-81.5 -15.5q-84 0 -130.5 40.5t-46.5 119.5q0 84 48 120.5t140 36.5h121v62q0 55 -22 79t-70 24q-39 0 -63.5 -18t-30.5 -48l-107 26q13 60 66.5 99t134.5 39q100 0 152.5 -48t51.5 -141z" />
<glyph unicode="&#xe4;" horiz-adv-x="530" d="M368 609q-58 0 -58 66q0 70 58 70q61 0 61 -70q0 -66 -61 -66zM151 609q-29 0 -44 17.5t-15 48.5q0 70 59 70q60 0 60 -70q0 -31 -15.5 -48.5t-44.5 -17.5zM157 153q-1 -37 21 -55t61 -18q72 0 113 60v88h-110q-43 0 -64 -17.5t-21 -57.5zM464 381v-203q0 -101 27 -155 l-98 -33q-18 27 -24 57q-26 -26 -67.5 -41.5t-81.5 -15.5q-84 0 -130.5 40.5t-46.5 119.5q0 84 48 120.5t140 36.5h121v62q0 55 -22 79t-70 24q-39 0 -63.5 -18t-30.5 -48l-107 26q13 60 66.5 99t134.5 39q100 0 152.5 -48t51.5 -141z" />
<glyph unicode="&#xe5;" horiz-adv-x="530" d="M189 683v10q0 35 22 56t57 21q36 0 59 -21t23 -56v-10q0 -37 -22.5 -57.5t-59.5 -20.5q-35 0 -57 20.5t-22 57.5zM268 649q33 0 33 38t-33 38q-31 0 -31 -38t31 -38zM157 153q-1 -37 21 -55t61 -18q72 0 113 60v88h-110q-43 0 -64 -17.5t-21 -57.5zM464 381v-203 q0 -101 27 -155l-98 -33q-18 27 -24 57q-26 -26 -67.5 -41.5t-81.5 -15.5q-84 0 -130.5 40.5t-46.5 119.5q0 84 48 120.5t140 36.5h121v62q0 55 -22 79t-70 24q-39 0 -63.5 -18t-30.5 -48l-107 26q13 60 66.5 99t134.5 39q100 0 152.5 -48t51.5 -141z" />
<glyph unicode="&#xe6;" horiz-adv-x="838" d="M357 139v104h-116q-79 0 -79 -78q0 -39 20.5 -60t55.5 -21q75 0 119 55zM469 323h202v31q0 58 -25.5 88.5t-74.5 30.5q-102 0 -102 -116v-34zM773 134q-15 -67 -67 -105.5t-135 -38.5q-120 0 -172 79q-73 -79 -189 -79q-77 0 -120 46t-43 124q0 162 179 162h131v43 q0 107 -91 107q-39 0 -63.5 -18.5t-30.5 -48.5l-108 27q14 60 67 99t135 39q101 0 152 -69q49 69 153 69q98 0 155 -56.5t57 -153.5v-116h-314v-38q0 -58 26.5 -88.5t75.5 -30.5q81 0 96 72z" />
<glyph unicode="&#xe7;" horiz-adv-x="527" d="M171 349v-138q0 -122 99 -122q81 0 97 71l106 -26q-14 -59 -55.5 -96t-108.5 -45l-9 -27q60 -7 60 -62q0 -37 -31.5 -53.5t-74.5 -16.5q-36 0 -63 9l8 44q18 -4 30 -4q40 0 40 25q0 14 -14.5 21t-29.5 7l-15 -1l23 58q-82 11 -128.5 65t-46.5 142v160q0 97 57 153t155 56 q83 0 135.5 -37.5t67.5 -104.5l-106 -27q-15 71 -97 71q-99 0 -99 -122z" />
<glyph unicode="&#xe8;" horiz-adv-x="537" d="M143 736l84 52l83 -146l-56 -36zM58 199v161q0 98 57 154t155 56q99 0 156 -56t57 -154v-116h-313v-39q0 -118 100 -118q81 0 97 72l106 -26q-15 -66 -67.5 -104.5t-135.5 -38.5q-98 0 -155 56t-57 153zM169 325h202v28q0 120 -101 120q-100 0 -101 -120v-28z" />
<glyph unicode="&#xe9;" horiz-adv-x="537" d="M238 642l83 146l83 -52l-110 -130zM58 199v161q0 98 57 154t155 56q99 0 156 -56t57 -154v-116h-313v-39q0 -118 100 -118q81 0 97 72l106 -26q-15 -66 -67.5 -104.5t-135.5 -38.5q-98 0 -155 56t-57 153zM169 325h202v28q0 120 -101 120q-100 0 -101 -120v-28z" />
<glyph unicode="&#xea;" horiz-adv-x="537" d="M154 640l75 104h90l75 -104l-79 -24l-42 69l-40 -69zM58 199v161q0 98 57 154t155 56q99 0 156 -56t57 -154v-116h-313v-39q0 -118 100 -118q81 0 97 72l106 -26q-15 -66 -67.5 -104.5t-135.5 -38.5q-98 0 -155 56t-57 153zM169 325h202v28q0 120 -101 120 q-100 0 -101 -120v-28z" />
<glyph unicode="&#xeb;" horiz-adv-x="537" d="M156 609q-58 0 -58 66q0 70 58 70q61 0 61 -70q0 -66 -61 -66zM384 609q-59 0 -59 66q0 70 59 70q30 0 45.5 -18.5t15.5 -51.5q0 -31 -16 -48.5t-45 -17.5zM58 199v161q0 98 57 154t155 56q99 0 156 -56t57 -154v-116h-313v-39q0 -118 100 -118q81 0 97 72l106 -26 q-15 -66 -67.5 -104.5t-135.5 -38.5q-98 0 -155 56t-57 153zM169 325h202v28q0 120 -101 120q-100 0 -101 -120v-28z" />
<glyph unicode="&#xec;" horiz-adv-x="238" d="M-4 736l84 52l83 -146l-56 -36zM7 560h169v-560h-113v467h-56v93z" />
<glyph unicode="&#xed;" horiz-adv-x="238" d="M80 642l84 146l83 -52l-110 -130zM7 560h169v-560h-113v467h-56v93z" />
<glyph unicode="&#xee;" horiz-adv-x="238" d="M0 640l75 104h90l75 -104l-79 -24l-42 69l-40 -69zM7 560h169v-560h-113v467h-56v93z" />
<glyph unicode="&#xef;" horiz-adv-x="238" d="M36 615q-26 0 -40 16t-14 44q0 30 14 47t40 17q27 0 41.5 -17t14.5 -47q0 -28 -14.5 -44t-41.5 -16zM185 615q-54 0 -54 60q0 64 54 64q27 0 41 -17t14 -47q0 -60 -55 -60zM7 560h169v-560h-113v467h-56v93z" />
<glyph unicode="&#xf0;" horiz-adv-x="535" d="M58 187v149q0 190 183 190q73 0 128 -41v23q0 40 -15 69l-51 -40l-46 60l39 31q-28 12 -58 12q-31 0 -58 -9l-22 89q43 15 87 15q81 0 134 -34l64 51l44 -60l-49 -41q39 -51 39 -126v-330q0 -98 -55.5 -151.5t-158.5 -53.5q-94 0 -149.5 51t-55.5 146zM161 310v-97 q0 -68 25 -99.5t79 -31.5q53 0 78.5 32t25.5 99v171q-19 22 -50.5 36t-63.5 14q-52 0 -73 -29t-21 -95z" />
<glyph unicode="&#xf1;" horiz-adv-x="540" d="M169 625l-79 18q4 48 30.5 79.5t70.5 31.5q35 0 86.5 -22.5t62.5 -22.5q34 0 37 39l78 -17q-4 -50 -29.5 -80.5t-72.5 -30.5q-32 0 -81.5 22t-66.5 22q-34 0 -36 -39zM63 0v555l111 15v-61q61 61 136 61q169 0 169 -192v-378h-113v365q0 55 -18.5 80t-63.5 25 q-59 0 -108 -63v-407h-113z" />
<glyph unicode="&#xf2;" d="M170 349v-138q0 -60 26 -91.5t74 -31.5q101 0 101 123v138q0 123 -101 123q-48 0 -74 -31.5t-26 -91.5zM58 199v162q0 97 57 153t155 56q99 0 156 -56t57 -153v-162q0 -97 -57 -153t-156 -56q-98 0 -155 56t-57 153zM152 736l84 52l83 -146l-56 -36z" />
<glyph unicode="&#xf3;" d="M170 349v-138q0 -60 26 -91.5t74 -31.5q101 0 101 123v138q0 123 -101 123q-48 0 -74 -31.5t-26 -91.5zM58 199v162q0 97 57 153t155 56q99 0 156 -56t57 -153v-162q0 -97 -57 -153t-156 -56q-98 0 -155 56t-57 153zM239 642l83 146l84 -52l-111 -130z" />
<glyph unicode="&#xf4;" d="M170 349v-138q0 -60 26 -91.5t74 -31.5q101 0 101 123v138q0 123 -101 123q-48 0 -74 -31.5t-26 -91.5zM58 199v162q0 97 57 153t155 56q99 0 156 -56t57 -153v-162q0 -97 -57 -153t-156 -56q-98 0 -155 56t-57 153zM150 640l74 104h91l75 -104l-79 -24l-42 69l-40 -69z " />
<glyph unicode="&#xf5;" d="M170 349v-138q0 -60 26 -91.5t74 -31.5q101 0 101 123v138q0 123 -101 123q-48 0 -74 -31.5t-26 -91.5zM58 199v162q0 97 57 153t155 56q99 0 156 -56t57 -153v-162q0 -97 -57 -153t-156 -56q-98 0 -155 56t-57 153zM167 625l-80 18q4 49 31 80t71 31q34 0 86 -22.5 t63 -22.5q34 0 36 39l79 -17q-4 -50 -29.5 -80.5t-72.5 -30.5q-32 0 -81.5 22t-66.5 22q-36 0 -36 -39z" />
<glyph unicode="&#xf6;" d="M170 349v-138q0 -123 101 -123q48 0 74 31.5t26 91.5v138q0 60 -26 91.5t-74 31.5q-101 0 -101 -123zM58 199v162q0 97 57 153t156 56q98 0 155 -56t57 -153v-162q0 -97 -57 -153t-155 -56q-99 0 -156 56t-57 153zM155 609q-29 0 -44 18t-15 49q0 32 15 50.5t44 18.5 t45 -18.5t16 -50.5q0 -31 -15.5 -49t-45.5 -18zM382 609q-28 0 -43 18t-15 49q0 32 15 50.5t43 18.5q61 0 61 -69q0 -67 -61 -67z" />
<glyph unicode="&#xf7;" horiz-adv-x="555" d="M272 -10q-64 0 -64 67q0 35 17 52.5t47 17.5q68 0 68 -70q0 -67 -68 -67zM272 433q-29 0 -46.5 17t-17.5 50q0 35 17 52.5t47 17.5q68 0 68 -70q0 -33 -18 -50t-50 -17zM43 229v102h470v-102h-470z" />
<glyph unicode="&#xf8;" d="M57 30l-52 95l54 45q-1 10 -1 30v160q0 98 57 154t156 56q114 0 170 -76l47 39l48 -98l-55 -45q2 -10 2 -30v-160q0 -97 -57 -153.5t-155 -56.5q-118 0 -172 76zM371 211v82l-189 -155q25 -51 89 -51q48 0 74 32t26 92zM358 421q-23 51 -87 51q-49 0 -75.5 -31.5 t-26.5 -91.5v-82z" />
<glyph unicode="&#xf9;" horiz-adv-x="530" d="M156 736l84 52l83 -146l-56 -36zM374 49q-28 -26 -67.5 -42.5t-79.5 -16.5q-88 0 -127.5 51t-39.5 152v362l113 15v-366q0 -62 17 -89t59 -27q74 0 108 58v409l113 15v-392q0 -103 27 -155l-98 -33q-17 26 -25 59z" />
<glyph unicode="&#xfa;" horiz-adv-x="530" d="M225 642l84 146l84 -52l-111 -130zM374 49q-28 -26 -67.5 -42.5t-79.5 -16.5q-88 0 -127.5 51t-39.5 152v362l113 15v-366q0 -62 17 -89t59 -27q74 0 108 58v409l113 15v-392q0 -103 27 -155l-98 -33q-17 26 -25 59z" />
<glyph unicode="&#xfb;" horiz-adv-x="530" d="M145 640l74 104h90l76 -104l-80 -24l-41 69l-40 -69zM374 49q-28 -26 -67.5 -42.5t-79.5 -16.5q-88 0 -127.5 51t-39.5 152v362l113 15v-366q0 -62 17 -89t59 -27q74 0 108 58v409l113 15v-392q0 -103 27 -155l-98 -33q-17 26 -25 59z" />
<glyph unicode="&#xfc;" horiz-adv-x="530" d="M151 609q-29 0 -44 17.5t-15 48.5q0 70 59 70q30 0 45.5 -18.5t15.5 -51.5q0 -31 -16 -48.5t-45 -17.5zM378 609q-58 0 -58 66q0 70 58 70q61 0 61 -70q0 -66 -61 -66zM374 49q-28 -26 -67.5 -42.5t-79.5 -16.5q-88 0 -127.5 51t-39.5 152v362l113 15v-366q0 -62 17 -89 t59 -27q74 0 108 58v409l113 15v-392q0 -103 27 -155l-98 -33q-17 26 -25 59z" />
<glyph unicode="&#xfd;" d="M218 642l83 146l83 -52l-110 -130zM68 -20l107 17q5 -31 28 -45t71 -14q47 0 71 24t24 78v63q-57 -60 -144 -60q-83 0 -123 42.5t-39 133.5v336l112 15v-324q-1 -54 18 -78t66 -24q62 0 106 55v356l112 15v-540q0 -93 -53.5 -141.5t-149.5 -48.5q-195 0 -206 140z" />
<glyph unicode="&#xfe;" horiz-adv-x="542" d="M176 408v-301q41 -19 100 -19q47 0 71.5 30t24.5 86v154q1 57 -19.5 84.5t-66.5 27.5q-29 0 -59.5 -18.5t-50.5 -43.5zM63 -155v875l113 15v-222q59 57 133 57q91 0 133.5 -50.5t42.5 -150.5v-179q0 -90 -53 -145t-146 -55q-68 0 -110 19v-149z" />
<glyph unicode="&#xff;" d="M159 609q-59 0 -59 66q0 70 59 70q61 0 61 -70q0 -66 -61 -66zM386 609q-28 0 -43 17.5t-15 48.5q0 33 15 51.5t43 18.5q61 0 61 -70q0 -66 -61 -66zM68 -20l107 17q5 -31 28 -45t71 -14q47 0 71 24t24 78v63q-57 -60 -144 -60q-83 0 -123 42.5t-39 133.5v336l112 15 v-324q-1 -54 18 -78t66 -24q62 0 106 55v356l112 15v-540q0 -93 -53.5 -141.5t-149.5 -48.5q-195 0 -206 140z" />
<glyph unicode="&#x152;" horiz-adv-x="848" d="M57 212v276q0 104 63 165t168 61q37 0 73.5 -14t55.5 -38v38h391v-106h-273v-186h224v-104h-224v-199h280v-105h-398v36q-44 -50 -129 -50q-105 0 -168 61t-63 165zM175 476v-251q0 -64 33 -98.5t88 -34.5q53 0 87 35t34 96v255q0 61 -34 96t-87 35q-55 0 -88 -34.5 t-33 -98.5z" />
<glyph unicode="&#x153;" horiz-adv-x="851" d="M170 349v-138q0 -123 101 -123q97 0 100 108v164q0 112 -100 112q-101 0 -101 -123zM483 337h201v19q0 117 -100 117q-101 0 -101 -107v-29zM787 134q-15 -67 -68 -105.5t-136 -38.5q-109 0 -156 69q-50 -69 -157 -69q-98 0 -155 56t-57 153v162q0 97 57 153t155 56 q102 0 157 -70q52 70 156 70q99 0 156 -56t57 -154v-103h-313v-57q1 -113 100 -113q83 0 99 72z" />
<glyph unicode="&#x178;" horiz-adv-x="548" d="M386 749q-57 0 -57 66q0 70 57 70q61 0 61 -70q0 -66 -61 -66zM159 749q-58 0 -58 66q0 70 58 70q61 0 61 -70q0 -66 -61 -66zM216 0v239l-211 456l133 15l138 -350l132 340h138l-212 -459v-241h-118z" />
<glyph unicode="&#x2c6;" horiz-adv-x="364" d="M63 640l74 104h91l75 -104l-80 -24l-41 69l-40 -69z" />
<glyph unicode="&#x2dc;" horiz-adv-x="448" d="M121 625l-79 18q4 48 30.5 79.5t70.5 31.5q35 0 86.5 -22.5t63.5 -22.5q33 0 36 40l79 -19q-5 -50 -30.5 -80.5t-71.5 -30.5q-33 0 -82.5 22.5t-66.5 22.5q-34 0 -36 -39z" />
<glyph unicode="&#x2000;" horiz-adv-x="464" />
<glyph unicode="&#x2001;" horiz-adv-x="928" />
<glyph unicode="&#x2002;" horiz-adv-x="464" />
<glyph unicode="&#x2003;" horiz-adv-x="928" />
<glyph unicode="&#x2004;" horiz-adv-x="309" />
<glyph unicode="&#x2005;" horiz-adv-x="232" />
<glyph unicode="&#x2006;" horiz-adv-x="154" />
<glyph unicode="&#x2007;" horiz-adv-x="154" />
<glyph unicode="&#x2008;" horiz-adv-x="116" />
<glyph unicode="&#x2009;" horiz-adv-x="185" />
<glyph unicode="&#x200a;" horiz-adv-x="51" />
<glyph unicode="&#x2010;" horiz-adv-x="389" d="M48 251v101h293v-101h-293z" />
<glyph unicode="&#x2011;" horiz-adv-x="389" d="M48 251v101h293v-101h-293z" />
<glyph unicode="&#x2012;" horiz-adv-x="389" d="M48 251v101h293v-101h-293z" />
<glyph unicode="&#x2013;" horiz-adv-x="490" d="M8 251v101h476v-101h-476z" />
<glyph unicode="&#x2014;" horiz-adv-x="794" d="M8 251v101h780v-101h-780z" />
<glyph unicode="&#x2018;" horiz-adv-x="218" d="M190 578l-22 -58q-50 12 -81 43t-39.5 59.5t-8.5 59.5q0 33 18 50.5t49 17.5q29 0 46.5 -17.5t17.5 -50.5q0 -38 -23 -54q-1 -34 43 -50z" />
<glyph unicode="&#x2019;" horiz-adv-x="218" d="M51 520l-22 58q18 7 30.5 20t12.5 30q-24 16 -24 54q0 33 17.5 50.5t47.5 17.5q31 0 49 -17.5t18 -50.5q0 -31 -9 -59.5t-39.5 -59.5t-80.5 -43z" />
<glyph unicode="&#x201a;" horiz-adv-x="218" d="M51 -106l-22 59q18 7 30.5 20t12.5 29q-24 16 -24 54q0 33 17.5 51t47.5 18q31 0 49 -18t18 -51q0 -22 -5.5 -43.5t-18.5 -46t-40 -44t-65 -28.5z" />
<glyph unicode="&#x201c;" horiz-adv-x="392" d="M190 578l-22 -58q-50 12 -81 43t-39.5 59.5t-8.5 59.5q0 33 18 50.5t49 17.5q29 0 46.5 -17.5t17.5 -50.5q0 -38 -23 -54q-1 -34 43 -50zM365 578l-22 -58q-50 12 -80.5 43t-39.5 59.5t-9 59.5q0 33 18 50.5t49 17.5q30 0 47.5 -17.5t17.5 -50.5q0 -38 -24 -54 q0 -17 12.5 -30t30.5 -20z" />
<glyph unicode="&#x201d;" horiz-adv-x="392" d="M226 520l-22 58q18 7 30.5 20t12.5 30q-24 16 -24 54q0 33 17.5 50.5t47.5 17.5q31 0 49 -17.5t18 -50.5q0 -31 -9 -59.5t-39.5 -59.5t-80.5 -43zM51 520l-22 58q18 7 30.5 20t12.5 30q-24 16 -24 54q0 33 17.5 50.5t47.5 17.5q31 0 49 -17.5t18 -50.5q0 -31 -9 -59.5 t-39.5 -59.5t-80.5 -43z" />
<glyph unicode="&#x201e;" horiz-adv-x="392" d="M226 -106l-22 59q18 7 30.5 20t12.5 29q-24 16 -24 54q0 33 17.5 51t47.5 18q31 0 49 -18t18 -51q0 -22 -5.5 -43.5t-18.5 -46t-40 -44t-65 -28.5zM51 -106l-22 59q18 7 30.5 20t12.5 29q-24 16 -24 54q0 33 17.5 51t47.5 18q31 0 49 -18t18 -51q0 -22 -5.5 -43.5 t-18.5 -46t-40 -44t-65 -28.5z" />
<glyph unicode="&#x2022;" horiz-adv-x="422" d="M209 158q-72 0 -113 41.5t-41 122.5q0 85 41 128t113 43q74 0 116.5 -43t42.5 -128q0 -81 -42.5 -122.5t-116.5 -41.5z" />
<glyph unicode="&#x2026;" horiz-adv-x="544" d="M99 -12q-28 0 -44 17.5t-16 49.5q0 33 16 51.5t44 18.5q30 0 46.5 -18t16.5 -52q0 -32 -16.5 -49.5t-46.5 -17.5zM271 -12q-29 0 -45 17.5t-16 49.5q0 33 16 51.5t45 18.5q30 0 46.5 -18t16.5 -52q0 -32 -16.5 -49.5t-46.5 -17.5zM444 -12q-29 0 -45.5 17.5t-16.5 49.5 q0 34 16.5 52t45.5 18t45.5 -18t16.5 -52q0 -32 -16.5 -49.5t-45.5 -17.5z" />
<glyph unicode="&#x202f;" horiz-adv-x="185" />
<glyph unicode="&#x2039;" horiz-adv-x="283" d="M135 279l112 -118l-52 -68l-147 151v70l147 152l52 -68z" />
<glyph unicode="&#x203a;" horiz-adv-x="283" d="M89 93l-52 68l112 118l-112 119l52 68l148 -152v-70z" />
<glyph unicode="&#x205f;" horiz-adv-x="232" />
<glyph unicode="&#x20ac;" horiz-adv-x="547" d="M4 231l36 84h40v73h-75l35 84h40v22q0 95 70 157.5t173 62.5q61 0 113 -14l-17 -101q-39 8 -85 8q-63 0 -98.5 -32.5t-35.5 -86.5v-16h215l-33 -84h-182v-73h215l-33 -84h-182v-18q0 -54 36.5 -87.5t97.5 -33.5q54 0 85 8l17 -100q-52 -14 -113 -14q-105 0 -174 62 t-69 160v23h-76z" />
<glyph unicode="&#x2122;" horiz-adv-x="870" d="M387 236v465h88l131 -239l129 239h90v-465h-90l3 289l-96 -172h-74l-94 170l2 -287h-89zM152 236v385h-121v80h329v-80h-119v-385h-89z" />
<glyph unicode="&#xfb01;" horiz-adv-x="526" d="M64 0v463h-56v97h56v24q0 85 47.5 118t143.5 33q40 0 92 -10.5t83 -22.5l-24 -83q-75 22 -149 22q-42 0 -61 -13t-19 -43v-25h283v-560h-113v463h-171v-463h-112z" />
<glyph unicode="&#xfb02;" horiz-adv-x="523" d="M64 0v431h-56v93h56l-1 21q-1 89 52.5 137.5t147.5 48.5q108 0 198 -58l-1 -673h-112v620q-37 13 -78 13q-46 0 -70 -23.5t-24 -65.5v-20h123v-93h-123v-431h-112z" />
<glyph unicode="&#xfb03;" horiz-adv-x="771" d="M64 0v467h-56v93h56q0 97 45 139.5t134 42.5q71 0 132 -43q54 61 156 61q83 0 152 -28l-21 -80q-64 18 -122 18q-48 0 -71 -25t-23 -85h263v-560h-113v467h-151v-467h-112v467h-157v-467h-112zM176 560h157q0 38 10 64q-43 25 -83 25q-46 0 -65 -18.5t-19 -70.5z" />
<glyph unicode="&#xfb04;" horiz-adv-x="790" d="M64 0v431h-56v93h56v31q0 187 186 187q68 0 130 -43q55 61 152 61q94 0 196 -57v-703h-113v648q-40 14 -76 14q-94 0 -94 -115v-23h123v-93h-123v-431h-112v431h-157v-431h-112zM176 524h157v34q0 39 10 61q-43 25 -83 25q-45 0 -64.5 -21t-19.5 -79v-20z" />
</font>
</defs>
</svg>
