<?xml version="1.0" standalone="no"?>
<!DOCTYPE svg PUBLIC "-//W3C//DTD SVG 1.1//EN" "http://www.w3.org/Graphics/SVG/1.1/DTD/svg11.dtd" >
<svg xmlns="http://www.w3.org/2000/svg">
<metadata></metadata>
<defs>
<font id="estandar_boldbold" horiz-adv-x="248" >
<font-face units-per-em="1000" ascent="750" descent="-250" />
<missing-glyph horiz-adv-x="226" />
<glyph horiz-adv-x="0" />
<glyph horiz-adv-x="333" />
<glyph unicode=" "  horiz-adv-x="226" />
<glyph unicode="&#x09;" horiz-adv-x="226" />
<glyph unicode="&#xa0;" horiz-adv-x="226" />
<glyph unicode="!" horiz-adv-x="262" d="M77 192l-12 328v180h131v-180l-12 -328h-107zM130 -10q-31 0 -49.5 17.5t-18.5 51.5q0 33 18.5 50t49.5 17q71 0 71 -67q0 -69 -71 -69z" />
<glyph unicode="&#x22;" horiz-adv-x="326" d="M44 549l-14 201h118l-15 -201h-89zM194 549l-14 201h118l-15 -201h-89z" />
<glyph unicode="#" horiz-adv-x="623" d="M63 0l39 185h-91l23 108h89l25 114h-92l23 107h91l38 186h119l-39 -186h113l38 186h119l-39 -186h94l-23 -107h-92l-26 -114h95l-24 -108h-92l-38 -185h-119l39 185h-114l-37 -185h-119zM241 293h114l24 114h-112z" />
<glyph unicode="$" horiz-adv-x="590" d="M256 -100v96q-84 10 -137.5 55t-67.5 113l119 27q6 -31 29.5 -54t56.5 -27v184q-196 39 -196 195v17q0 84 49 136.5t147 61.5v96h82v-98q79 -10 126.5 -53.5t60.5 -107.5l-116 -25q-6 27 -25 47.5t-46 25.5v-182q43 -8 76.5 -20t64.5 -33t48 -55.5t17 -79.5v-21 q0 -87 -53 -140.5t-153 -62.5v-95h-82zM338 277v-170q40 3 61 27t21 61v11q0 54 -82 71zM256 425v167q-37 -1 -54.5 -23.5t-17.5 -56.5v-11q0 -58 72 -76z" />
<glyph unicode="%" horiz-adv-x="937" d="M46 445v109q0 73 46 115.5t122 42.5t122 -42.5t46 -115.5v-109q0 -73 -46 -116t-122 -43t-122 43t-46 116zM168 546v-94q0 -64 46 -64t46 64v94q0 64 -46 64t-46 -64zM556 147v110q0 73 46 115.5t122 42.5t121.5 -42.5t45.5 -115.5v-110q0 -72 -46 -115.5t-121 -43.5 q-76 0 -122 43.5t-46 115.5zM677 248v-94q0 -63 47 -63q21 0 33.5 16.5t12.5 46.5v94q0 31 -12.5 47.5t-33.5 16.5q-47 0 -47 -64zM172 0l493 761l100 -61l-498 -763z" />
<glyph unicode="&#x26;" horiz-adv-x="640" d="M42 170v11q0 95 125 190q-82 90 -82 166q0 77 51 127t142 50q101 0 147.5 -45t46.5 -122q0 -56 -33.5 -97t-98.5 -88l103 -125q14 22 21 55.5t5 57.5l119 -17q-6 -101 -64 -194l66 -73l-91 -80l-55 62q-69 -62 -179 -62q-105 0 -164 47t-59 137zM176 175v-3 q0 -74 100 -74q55 0 94 36l-128 152q-66 -55 -66 -111zM267 446q76 51 76 96q0 63 -65 63q-30 0 -46 -17t-16 -48q0 -43 51 -94z" />
<glyph unicode="'" horiz-adv-x="176" d="M44 549l-14 201h118l-15 -201h-89z" />
<glyph unicode="(" horiz-adv-x="318" d="M58 133v374q0 97 57.5 166.5t155.5 85.5l23 -111q-51 -7 -78.5 -49t-27.5 -105v-348q0 -63 27.5 -105t78.5 -49l-23 -110q-99 16 -156 84.5t-57 166.5z" />
<glyph unicode=")" horiz-adv-x="318" d="M47 759q99 -16 156.5 -85.5t57.5 -166.5v-374q0 -98 -57 -167t-157 -84l-22 110q51 7 78.5 49t27.5 105v348q0 63 -27.5 105t-78.5 49z" />
<glyph unicode="*" horiz-adv-x="446" d="M76 406l80 101l-122 34l30 98l118 -45l-5 129h96l-5 -127l115 44l31 -99l-121 -35l77 -100l-78 -61l-68 109l-67 -109z" />
<glyph unicode="+" horiz-adv-x="559" d="M220 45v199h-175v118h175v199h120v-199h176v-118h-176v-199h-120z" />
<glyph unicode="," horiz-adv-x="220" d="M41 -106l-22 67q18 5 31 17t13 27q-27 16 -27 58q0 35 20 54.5t54 19.5q35 0 55.5 -19.5t20.5 -54.5q0 -53 -32.5 -102.5t-112.5 -66.5z" />
<glyph unicode="-" horiz-adv-x="395" d="M45 243v116h305v-116h-305z" />
<glyph unicode="." horiz-adv-x="220" d="M110 -13q-34 0 -54 18.5t-20 54.5q0 38 20 57.5t54 19.5q35 0 55.5 -19.5t20.5 -57.5q0 -36 -20.5 -54.5t-55.5 -18.5z" />
<glyph unicode="/" horiz-adv-x="498" d="M8 -110l371 906l113 -46l-372 -904z" />
<glyph unicode="0" horiz-adv-x="567" d="M52 210v280q0 103 63.5 163.5t168.5 60.5t169 -60.5t64 -163.5v-280q0 -103 -64 -163.5t-169 -60.5t-168.5 60.5t-63.5 163.5zM186 478v-256q0 -57 26.5 -87.5t71.5 -30.5q46 0 72 30.5t26 87.5v256q0 57 -26 87.5t-72 30.5q-45 0 -71.5 -30.5t-26.5 -87.5z" />
<glyph unicode="1" horiz-adv-x="298" d="M129 700h113v-700h-133v542l-78 -49l-57 95z" />
<glyph unicode="2" horiz-adv-x="562" d="M47 0v80l267 319q58 65 58 114q0 36 -24 60.5t-68 24.5q-64 0 -87 -61l-130 29q17 65 75 106.5t142 41.5q110 0 169.5 -55t59.5 -145q0 -56 -27 -104t-77 -105l-166 -188h283v-117h-475z" />
<glyph unicode="3" horiz-adv-x="550" d="M265 -14q-89 0 -144.5 40t-71.5 107l126 31q25 -61 90 -61q94 0 94 91v17q0 56 -24 80t-74 24h-80v105h79q93 0 93 94q-2 86 -85 86q-69 0 -87 -59l-125 30q18 64 72.5 103.5t139.5 39.5q106 0 162 -55.5t56 -142.5q0 -38 -18 -78t-49 -64q36 -22 58.5 -65.5t22.5 -87.5 v-29q0 -94 -61.5 -150t-173.5 -56z" />
<glyph unicode="4" horiz-adv-x="571" d="M28 127v77l235 506l136 -17l-211 -450h166v219l134 18v-237h62v-116h-62v-127h-134v127h-326z" />
<glyph unicode="5" horiz-adv-x="545" d="M52 134l127 33q18 -62 90 -62q46 0 70 23t24 66v49q0 55 -23.5 78.5t-70.5 23.5q-57 0 -112 -37l-98 60l43 332h374v-116h-255l-19 -147q31 23 90 23q96 0 153 -51t57 -155v-61q0 -95 -61 -150t-172 -55q-89 0 -143.5 39.5t-73.5 106.5z" />
<glyph unicode="6" horiz-adv-x="576" d="M52 193v297q0 102 64.5 163t170.5 61q95 0 153 -42.5t75 -120.5l-130 -31q-8 77 -98 77q-46 0 -73.5 -31.5t-27.5 -87.5v-82q52 32 129 32q91 0 150.5 -48.5t59.5 -151.5v-30q0 -102 -64.5 -157t-171.5 -55t-172 52.5t-65 154.5zM186 280v-75q0 -103 103 -103 q48 0 75.5 26.5t27.5 82.5q0 53 -22.5 76.5t-71.5 23.5q-65 0 -112 -31z" />
<glyph unicode="7" horiz-adv-x="457" d="M60 8l240 575h-289v117h441v-76l-255 -634z" />
<glyph unicode="8" horiz-adv-x="578" d="M271 422h32q38 0 61 26.5t23 67.5q0 40 -25.5 62t-72.5 22q-98 0 -98 -84q0 -41 21 -67.5t59 -26.5zM45 192v38q0 41 22 82.5t55 64.5q-28 27 -45.5 67.5t-17.5 77.5q0 90 57.5 141t172.5 51t173 -51t58 -141q0 -38 -17 -77.5t-48 -66.5q36 -25 57 -65.5t21 -82.5v-38 q0 -95 -61 -150.5t-183 -55.5q-123 0 -183.5 55t-60.5 151zM185 224v-30q0 -91 104 -91t104 91v30q0 43 -23.5 69.5t-62.5 26.5h-35q-41 0 -64 -26.5t-23 -69.5z" />
<glyph unicode="9" horiz-adv-x="574" d="M64 151l130 29q9 -76 96 -76q47 0 72.5 30.5t25.5 87.5v80q-48 -27 -125 -27q-92 0 -151.5 48t-59.5 151v27q0 102 64 157.5t170 55.5q108 0 172.5 -52t64.5 -154v-298q0 -102 -64 -163t-169 -61q-94 0 -154.5 45t-71.5 120zM388 418v76q0 104 -102 104q-100 0 -100 -108 q0 -53 22 -75.5t71 -22.5q66 0 109 26z" />
<glyph unicode=":" horiz-adv-x="228" d="M114 -10q-34 0 -54 18.5t-20 54.5q0 38 20 57.5t54 19.5q35 0 55.5 -19.5t20.5 -57.5q0 -36 -20.5 -54.5t-55.5 -18.5zM114 420q-34 0 -54 19t-20 55q0 38 20 57t54 19q35 0 55.5 -19t20.5 -57q0 -36 -20.5 -55t-55.5 -19z" />
<glyph unicode=";" horiz-adv-x="231" d="M116 420q-35 0 -54.5 18.5t-19.5 55.5q0 38 20 57t54 19q76 0 76 -76q0 -37 -20 -55.5t-56 -18.5zM46 -106l-23 67q18 5 31 17t13 27q-27 16 -27 58q0 35 20 54.5t54 19.5q35 0 55.5 -19.5t20.5 -54.5q0 -53 -32.5 -102.5t-111.5 -66.5z" />
<glyph unicode="&#x3c;" horiz-adv-x="374" d="M168 279l162 -139l-63 -88l-222 185v85l222 186l63 -88z" />
<glyph unicode="=" horiz-adv-x="559" d="M45 126v115h469v-115h-469zM45 337v116h469v-116h-469z" />
<glyph unicode="&#x3e;" horiz-adv-x="374" d="M109 52l-64 88l162 139l-162 141l64 88l221 -186v-85z" />
<glyph unicode="?" horiz-adv-x="509" d="M169 180v37q0 69 20.5 105.5t71.5 82.5q67 62 67 125v7q0 28 -19.5 45t-58.5 17q-67 0 -80 -58l-126 29q14 68 65.5 106t140.5 38q103 0 158.5 -49t55.5 -126v-15q0 -59 -23.5 -99.5t-70.5 -87.5q-38 -37 -53.5 -63.5t-15.5 -62.5v-31h-132zM235 -14q-32 0 -53 18t-21 52 t21 52t53 18q33 0 53.5 -18t20.5 -52t-20.5 -52t-53.5 -18z" />
<glyph unicode="@" horiz-adv-x="726" d="M304 395l-13 -101q-13 -78 44 -78q23 0 46 11.5t35 28.5l29 221h-71q-59 0 -70 -82zM48 206l38 285q13 98 108.5 157t215.5 59q118 0 199.5 -62t69.5 -158l-28 -213q-9 -59 -42 -92.5t-89 -33.5q-65 0 -87 46q-20 -20 -50 -33t-56 -13q-67 0 -97 36.5t-21 105.5l15 116 q8 67 46 102t97 35h169l-35 -277q-4 -27 1.5 -37t22.5 -10q36 0 45 55l27 210q10 70 -49 109.5t-144 39.5q-87 0 -157.5 -40.5t-80.5 -113.5l-37 -270q-9 -71 49.5 -110t143.5 -39q77 0 140 21l21 -66q-66 -28 -166 -28q-120 0 -201 61t-68 158z" />
<glyph unicode="A" horiz-adv-x="606" d="M460 -10l-51 172h-213l-46 -162h-150l240 700h124l241 -692zM302 534l-74 -258h148z" />
<glyph unicode="B" horiz-adv-x="585" d="M56 0v700h253q224 0 224 -187v-29q0 -31 -18.5 -67t-49.5 -55q35 -16 59 -54t23 -84v-43q-1 -83 -54.5 -132t-158.5 -49h-278zM193 408h139q63 0 63 82v11q0 46 -19.5 63t-63.5 17h-119v-173zM193 118h138q40 0 59.5 20t19.5 54v27q0 37 -18 58t-51 21h-148v-180z" />
<glyph unicode="C" horiz-adv-x="567" d="M189 228q0 -58 29.5 -90t77.5 -32q89 0 105 74l132 -28q-14 -77 -77 -121.5t-160 -44.5q-108 0 -176 62.5t-68 166.5v271q0 103 68 165.5t176 62.5q97 0 160 -44.5t77 -121.5l-132 -28q-16 74 -105 74q-48 0 -77.5 -32t-29.5 -89v-245z" />
<glyph unicode="D" horiz-adv-x="598" d="M56 0v700h259q107 0 169.5 -61.5t62.5 -166.5v-244q0 -105 -62.5 -166.5t-169.5 -61.5h-259zM193 120h122q46 0 70.5 31t24.5 90v218q0 120 -95 120h-122v-459z" />
<glyph unicode="E" horiz-adv-x="514" d="M56 0v700h419v-121h-282v-164h235v-119h-235v-176h289v-120h-426z" />
<glyph unicode="F" horiz-adv-x="503" d="M56 0v700h421v-121h-284v-189h236v-120h-236v-270h-137z" />
<glyph unicode="G" horiz-adv-x="595" d="M428 54q-70 -68 -164 -68q-102 0 -157 59.5t-55 165.5v275q0 103 69.5 165.5t180.5 62.5q97 0 161.5 -44.5t78.5 -121.5l-132 -28q-7 35 -36 54.5t-72 19.5q-51 0 -82 -32t-31 -89v-248q0 -58 26.5 -89t75.5 -31q36 0 68.5 16.5t52.5 42.5v103h-131v117h268v-394h-100z " />
<glyph unicode="H" horiz-adv-x="602" d="M56 0v700h137v-280h217v280h137v-700h-137v301h-217v-301h-137z" />
<glyph unicode="I" d="M56 0v700h137v-700h-137z" />
<glyph unicode="J" horiz-adv-x="294" d="M22 -9l-19 115q100 14 100 126v468h137v-483q0 -98 -57 -156.5t-161 -69.5z" />
<glyph unicode="K" horiz-adv-x="572" d="M431 -10l-171 296l-67 -90v-196h-137v700h137v-289l210 289h167l-225 -299l233 -393z" />
<glyph unicode="L" horiz-adv-x="486" d="M56 0v700h137v-580h279v-120h-416z" />
<glyph unicode="M" horiz-adv-x="706" d="M56 0v700h101l197 -388l196 388h101v-700h-137l5 391l-114 -215h-112l-105 202l4 -378h-136z" />
<glyph unicode="N" horiz-adv-x="619" d="M56 0v700h137l239 -441l-4 441h136v-700h-139l-237 437l3 -437h-135z" />
<glyph unicode="O" horiz-adv-x="612" d="M52 215v271q0 103 73 165.5t182 62.5q108 0 181.5 -62.5t73.5 -165.5v-271q0 -104 -73.5 -166.5t-181.5 -62.5q-109 0 -182 62.5t-73 166.5zM189 473v-245q0 -58 33.5 -90t84.5 -32t84 32t33 90v245q0 57 -33 89t-84 32t-84.5 -32t-33.5 -89z" />
<glyph unicode="P" horiz-adv-x="588" d="M56 0v700h259q106 0 169 -62t63 -166v-45q0 -104 -63 -166t-169 -62h-122v-199h-137zM193 318h122q46 0 70.5 31.5t24.5 90.5v19q0 120 -95 120h-122v-261z" />
<glyph unicode="Q" horiz-adv-x="612" d="M568 7l-81 -70l-63 72q-54 -23 -117 -23q-109 0 -182 62.5t-73 166.5v271q0 103 73 165.5t182 62.5q108 0 181.5 -62.5t73.5 -165.5v-271q0 -82 -50 -143zM189 473v-245q0 -58 33.5 -90t84.5 -32q14 0 29 5l-57 67l81 70l55 -64q9 18 9 44v245q0 57 -33 89t-84 32 t-84.5 -32t-33.5 -89z" />
<glyph unicode="R" horiz-adv-x="588" d="M413 -10l-135 264h-85v-254h-137v700h259q105 0 168.5 -58t63.5 -148v-34q0 -65 -34.5 -114.5t-95.5 -72.5l142 -265zM193 579v-206h122q44 0 69.5 28t25.5 71v10q0 44 -25 70.5t-70 26.5h-122z" />
<glyph unicode="S" horiz-adv-x="570" d="M172 182q9 -33 40.5 -54t76.5 -21q56 0 84.5 23.5t28.5 64.5v7q0 74 -119 85q-227 25 -227 202v21q0 92 58.5 147.5t172.5 55.5q100 0 159.5 -45t75.5 -120l-130 -29q-19 74 -105 74q-49 0 -73 -23t-24 -61v-7q0 -45 28 -63t84 -24q46 -5 84 -16.5t73.5 -33.5t56 -59.5 t20.5 -87.5v-25q0 -96 -62.5 -151t-182.5 -55q-103 0 -169 46t-82 120z" />
<glyph unicode="T" horiz-adv-x="507" d="M186 0v580h-175v120h487v-120h-175v-580h-137z" />
<glyph unicode="U" horiz-adv-x="597" d="M284 104q38 0 71 17t51 43v536h137v-517q0 -101 27 -159l-123 -34q-13 23 -24 65q-26 -30 -71.5 -49.5t-90.5 -19.5q-207 0 -207 220v487l138 17v-493q0 -59 21.5 -86t70.5 -27z" />
<glyph unicode="V" horiz-adv-x="589" d="M150 710l146 -544l141 534h150l-229 -700h-124l-230 693z" />
<glyph unicode="W" horiz-adv-x="900" d="M202 0l-198 693l144 17l120 -540l115 530h134l116 -529l118 529h148l-201 -700h-133l-116 508l-114 -508h-133z" />
<glyph unicode="X" horiz-adv-x="578" d="M404 700h171l-196 -345l199 -355h-172l-116 256l-118 -256h-171l199 352l-192 341l162 17l118 -258z" />
<glyph unicode="Y" horiz-adv-x="563" d="M214 0v241l-211 452l155 17l125 -331l121 321h160l-213 -458v-242h-137z" />
<glyph unicode="Z" horiz-adv-x="543" d="M29 0v115l305 465h-295v120h462v-117l-302 -463h317v-120h-487z" />
<glyph unicode="[" horiz-adv-x="282" d="M59 -110v860h203v-111h-84v-637h84v-112h-203z" />
<glyph unicode="\" horiz-adv-x="499" d="M8 750l113 46l371 -906l-112 -44z" />
<glyph unicode="]" horiz-adv-x="282" d="M21 -110v112h84v637h-84v111h203v-860h-203z" />
<glyph unicode="^" horiz-adv-x="428" d="M43 512l118 226h108l116 -226l-104 -32l-67 158l-67 -158z" />
<glyph unicode="_" horiz-adv-x="492" d="M8 -131v90h477v-90h-477z" />
<glyph unicode="`" horiz-adv-x="311" d="M59 736l93 59l84 -150l-62 -39z" />
<glyph unicode="a" horiz-adv-x="523" d="M166 155q-1 -31 17.5 -47t51.5 -16q65 0 101 56v71h-97q-72 0 -73 -64zM466 378v-198q0 -103 27 -156l-115 -34q-17 25 -23 55q-25 -25 -66 -40t-80 -15q-82 0 -128.5 41.5t-46.5 118.5q0 157 188 157h114v59q0 49 -19 70.5t-60 21.5q-35 0 -55.5 -16.5t-26.5 -44.5 l-125 29q13 63 67.5 103.5t139.5 40.5q102 0 156 -49.5t53 -142.5z" />
<glyph unicode="b" horiz-adv-x="545" d="M190 403v-284q34 -17 84 -17q85 0 85 111v145q0 51 -16.5 73.5t-56.5 22.5q-25 0 -51.5 -14.5t-44.5 -36.5zM59 53v667l131 17v-220q53 53 126 53q93 0 133.5 -50t40.5 -152v-167q0 -98 -57.5 -154.5t-158.5 -56.5q-127 0 -215 63z" />
<glyph unicode="c" horiz-adv-x="510" d="M480 142q-14 -72 -67.5 -111.5t-141.5 -39.5q-101 0 -159 56.5t-58 154.5v156q0 98 58 154.5t159 56.5q88 0 141.5 -39t67.5 -112l-123 -28q-14 67 -86 67q-86 0 -86 -110v-134q0 -110 86 -110q72 0 86 67z" />
<glyph unicode="d" horiz-adv-x="545" d="M514 24l-115 -34q-17 26 -23 54q-59 -54 -142 -54q-87 0 -132.5 55.5t-45.5 155.5v167q0 99 44.5 150.5t130.5 51.5q65 0 126 -24v174l130 17v-557q0 -103 27 -156zM357 156v278q-43 20 -97 20q-74 0 -74 -96v-145q0 -57 17.5 -84t59.5 -27q65 0 94 54z" />
<glyph unicode="e" horiz-adv-x="540" d="M54 201v157q0 98 58.5 155t159.5 57t159.5 -57t58.5 -155v-118h-305v-35q-3 -104 87 -104q71 0 85 68l123 -27q-14 -72 -67.5 -112t-140.5 -40q-101 0 -159.5 56.5t-58.5 154.5zM182 329h178v24q0 106 -88 106q-89 0 -90 -106v-24z" />
<glyph unicode="f" horiz-adv-x="350" d="M60 0v375h-52v105h52v70q-1 91 46.5 135.5t139.5 44.5q53 0 98 -15l-21 -101q-22 6 -59 6q-74 0 -74 -74l1 -66h124v-105h-124v-375h-131z" />
<glyph unicode="g" horiz-adv-x="545" d="M357 205v228q-48 21 -97 21q-74 0 -74 -96v-99q0 -50 16.5 -72.5t56.5 -22.5q49 0 98 41zM395 560h92v-529q0 -92 -57 -141.5t-158 -49.5q-99 0 -153.5 37.5t-58.5 109.5l124 18q9 -52 88 -52q85 0 85 89v51q-50 -45 -126 -45q-93 0 -134 49.5t-41 151.5v119 q0 99 44.5 150.5t130.5 51.5q71 0 135 -29z" />
<glyph unicode="h" horiz-adv-x="542" d="M59 0v720l131 17v-220q53 53 129 53q90 0 128.5 -47.5t38.5 -141.5v-381h-131v368q0 45 -16.5 65.5t-55.5 20.5q-52 0 -93 -50v-404h-131z" />
<glyph unicode="i" d="M199 664q0 -69 -77 -69q-74 0 -74 69q0 71 74 71q77 0 77 -71zM7 560h183v-560h-131v455h-52v105z" />
<glyph unicode="j" horiz-adv-x="256" d="M130 595q-74 0 -74 69q0 71 74 71q76 0 76 -71q0 -69 -76 -69zM14 560h183v-520q0 -94 -57.5 -145t-165.5 -55l-17 103q59 2 84 26.5t25 79.5v405h-52v106z" />
<glyph unicode="k" horiz-adv-x="511" d="M374 -10l-128 228l-56 -73v-145h-131v720l131 17v-392l157 215h157l-175 -231l187 -323z" />
<glyph unicode="l" d="M94 -10q-35 57 -35 170v560l131 17v-557q0 -103 27 -156z" />
<glyph unicode="m" horiz-adv-x="805" d="M338 374q0 38 -16 59t-43 21q-49 0 -89 -53v-401h-131v553l127 17v-57q54 57 128 57q85 0 119 -68q56 68 145 68q168 0 168 -186v-384h-130v374q0 84 -70 84q-36 0 -57 -23t-21 -57v-378h-130v374z" />
<glyph unicode="n" horiz-adv-x="543" d="M59 0v553l128 17v-57q25 24 61.5 40.5t70.5 16.5q167 0 167 -190v-380h-131v367q0 46 -16 66.5t-55 20.5q-50 0 -94 -53v-401h-131z" />
<glyph unicode="o" horiz-adv-x="542" d="M184 347v-134q0 -111 88 -111q42 0 65 28.5t23 82.5v134q0 54 -23 82.5t-65 28.5q-88 0 -88 -111zM54 201v158q0 98 58.5 154.5t159.5 56.5t159.5 -56.5t58.5 -154.5v-158q0 -98 -58.5 -154.5t-159.5 -56.5t-159.5 56.5t-58.5 154.5z" />
<glyph unicode="p" horiz-adv-x="545" d="M187 570v-56q23 24 58.5 40t71.5 16q92 0 132.5 -50t40.5 -152v-167q0 -99 -53.5 -155t-149.5 -56q-55 0 -97 15v-137l-131 -18v703zM359 213v145q0 51 -16.5 73.5t-56.5 22.5q-52 0 -96 -53v-282q34 -17 84 -17q85 0 85 111z" />
<glyph unicode="q" horiz-adv-x="545" d="M356 157v287q-32 14 -85 14q-85 0 -85 -111v-145q0 -51 16.5 -73.5t56.5 -22.5q52 0 97 51zM486 519v-651l-130 -18v193q-55 -53 -126 -53q-93 0 -134 50t-41 152v167q0 98 57.5 154.5t158.5 56.5q129 0 215 -51z" />
<glyph unicode="r" horiz-adv-x="355" d="M59 0v553l128 17v-67q26 28 66.5 47.5t78.5 19.5l11 -119q-91 0 -153 -60v-391h-131z" />
<glyph unicode="s" horiz-adv-x="495" d="M37 134l120 27q2 -30 28.5 -48.5t67.5 -18.5q40 0 61 17t21 44v5q0 33 -30.5 46.5t-94.5 20.5q-160 20 -160 161v22q1 74 51.5 117t149.5 43q90 0 141 -40.5t60 -105.5l-118 -26q-3 68 -83 68q-36 0 -54 -17.5t-18 -45.5v-5q0 -28 23 -40.5t80 -21.5q93 -14 138 -47 t45 -109v-28q-1 -72 -57 -117t-155 -45q-94 0 -150 38.5t-66 105.5z" />
<glyph unicode="t" horiz-adv-x="343" d="M63 174v281h-51v105h57l20 90l104 17l1 -107h136v-105h-136l-1 -270q0 -48 14 -67t52 -19q30 0 60 7l19 -103q-51 -14 -105 -14q-95 0 -132.5 42.5t-37.5 142.5z" />
<glyph unicode="u" horiz-adv-x="532" d="M365 48q-28 -25 -68 -41.5t-77 -16.5q-89 0 -126.5 50.5t-37.5 153.5v359l131 17v-364q0 -56 14 -80t50 -24q66 0 95 54v397l130 17v-390q0 -103 27 -156l-115 -34q-16 24 -23 58z" />
<glyph unicode="v" horiz-adv-x="497" d="M189 0l-187 553l139 17l109 -405l103 395h142l-188 -560h-118z" />
<glyph unicode="w" horiz-adv-x="768" d="M160 0l-158 553l136 17l89 -400l85 390h137l92 -386l87 386h138l-160 -560h-137l-90 381l-81 -381h-138z" />
<glyph unicode="x" horiz-adv-x="516" d="M340 560h169l-164 -273l171 -287h-167l-92 194l-89 -194h-167l171 286l-159 267l161 17l84 -189z" />
<glyph unicode="y" horiz-adv-x="538" d="M63 -13l124 18q9 -52 87 -52q42 0 62 20.5t20 68.5v63q-53 -58 -141 -58q-82 0 -120 40t-37 128v338l131 17v-322q-1 -46 15 -65.5t55 -19.5q53 0 92 46l-1 344l131 17v-537q0 -94 -53.5 -143.5t-153.5 -49.5t-153 38t-58 109z" />
<glyph unicode="z" horiz-adv-x="466" d="M31 0v107l236 343h-231v110h394v-105l-238 -345h250v-110h-411z" />
<glyph unicode="{" horiz-adv-x="343" d="M122 43v148q0 70 -56 70h-31v118h31q56 0 56 70v149q0 79 38.5 115.5t113.5 36.5h25l14 -110h-16q-26 0 -36.5 -13t-10.5 -41v-133q0 -92 -65 -133q30 -18 47.5 -54t17.5 -80v-132q0 -28 10.5 -40.5t36.5 -12.5h16l-15 -111h-24q-75 0 -113.5 36.5t-38.5 116.5z" />
<glyph unicode="|" horiz-adv-x="236" d="M60 -170v940h116v-940h-116z" />
<glyph unicode="}" horiz-adv-x="343" d="M278 261q-55 0 -55 -70v-148q0 -80 -38.5 -116.5t-113.5 -36.5h-24l-15 111h16q26 0 36 12.5t10 40.5v132q0 44 17.5 80t48.5 54q-66 41 -66 133v133q0 29 -10 41.5t-36 12.5h-16l14 110h25q75 0 113.5 -36.5t38.5 -115.5v-149q0 -70 55 -70h31v-118h-31z" />
<glyph unicode="~" horiz-adv-x="570" d="M143 260l-96 17q9 58 46 94t96 36q41 0 103.5 -26.5t81.5 -26.5q49 0 52 50l97 -15q-19 -132 -142 -132q-41 0 -101 26t-84 26q-51 0 -53 -49z" />
<glyph unicode="&#xa1;" horiz-adv-x="262" d="M65 0v180l12 328h107l12 -328v-180h-131zM130 574q-31 0 -49.5 17t-18.5 50q0 34 18.5 51.5t49.5 17.5q71 0 71 -69q0 -67 -71 -67z" />
<glyph unicode="&#xa2;" horiz-adv-x="539" d="M244 0v76q-88 8 -138.5 64t-50.5 146v128q0 90 50.5 145.5t138.5 63.5v77h61v-77q75 -7 122 -46t58 -99l-121 -27q-9 51 -59 57v-317q51 7 60 62l121 -27q-11 -61 -58.5 -101.5t-122.5 -47.5v-77h-61zM244 191v317q-62 -10 -62 -106v-104q0 -94 62 -107z" />
<glyph unicode="&#xa3;" horiz-adv-x="562" d="M33 0v94q34 21 53.5 54.5t19.5 71.5v62h-73v113h73v95q0 105 53 164.5t157 59.5q89 0 139.5 -41.5t61.5 -113.5l-128 -30q-9 68 -73 68q-41 0 -58 -28t-17 -88v-86h130v-113h-130v-48q0 -33 -10 -62t-20 -42l-10 -13h329v-117h-497z" />
<glyph unicode="&#xa4;" horiz-adv-x="588" d="M39 159l68 69q-19 41 -19 89v42q0 46 19 87l-68 71l83 87l67 -69q47 22 105 22q62 0 106 -22l66 69l83 -87l-68 -70q18 -40 18 -88v-42q0 -46 -18 -89l68 -69l-83 -88l-66 70q-46 -23 -106 -23t-106 23l-66 -71zM201 350v-24q0 -48 26 -72.5t67 -24.5t66.5 24.5 t25.5 72.5v24q0 48 -25.5 72.5t-66.5 24.5t-67 -25t-26 -72z" />
<glyph unicode="&#xa5;" horiz-adv-x="567" d="M52 86v96h168v62h-168v96h143l-183 353l138 17l138 -283l133 273h140l-185 -360h145v-96h-167v-62h167v-96h-167v-86h-134v86h-168z" />
<glyph unicode="&#xa6;" horiz-adv-x="236" d="M60 -170v356h116v-356h-116zM60 411v359h116v-359h-116z" />
<glyph unicode="&#xa7;" horiz-adv-x="519" d="M55 34l125 28q16 -51 80 -51q36 0 53 16.5t17 42.5v11q0 41 -91 58q-39 7 -69.5 17.5t-61 28.5t-47 48t-16.5 70v15q0 30 18.5 63t46.5 52q-53 38 -53 101v18q0 72 50.5 117t145.5 45q83 0 131 -36.5t60 -95.5l-124 -28q-7 51 -67 51q-63 0 -63 -55v-12q0 -43 94 -62 q38 -8 67 -17.5t59.5 -27t47.5 -46.5t17 -67v-18q0 -27 -21 -58.5t-50 -52.5q59 -38 59 -105v-17q0 -72 -53.5 -119t-149.5 -47q-82 0 -135.5 36.5t-69.5 96.5zM179 320v-6q0 -11 3 -19.5t11 -15t14 -11t21 -9t22 -6t26.5 -6t25.5 -5.5q17 11 28.5 27t11.5 30v7 q0 19 -16.5 32.5t-33.5 18.5t-46.5 11t-36.5 8q-30 -21 -30 -56z" />
<glyph unicode="&#xa8;" horiz-adv-x="446" d="M340 607q-31 0 -47.5 20t-16.5 53q0 34 16.5 55t47.5 21q34 0 51 -20.5t17 -55.5q0 -73 -68 -73zM104 607q-64 0 -64 73q0 35 16 55.5t48 20.5q33 0 50 -20.5t17 -55.5q0 -34 -17 -53.5t-50 -19.5z" />
<glyph unicode="&#xa9;" horiz-adv-x="690" d="M203 284v130q0 64 38 102t104 38t103 -33t37 -85l-93 -13q0 18 -13 29.5t-34 11.5q-46 0 -46 -50v-131q0 -50 47 -50q21 0 33.5 11.5t12.5 30.5l93 -9q0 -52 -37.5 -87.5t-102.5 -35.5q-66 0 -104 38t-38 103zM52 209v279q0 100 86 161t208 61q121 0 207 -61t86 -161 v-279q0 -101 -86 -162t-207 -61q-122 0 -208 61t-86 162zM141 488v-280q0 -63 62 -99.5t143 -36.5q80 0 142 36.5t62 99.5v280q0 62 -62.5 99.5t-141.5 37.5q-80 0 -142.5 -37.5t-62.5 -99.5z" />
<glyph unicode="&#xaa;" horiz-adv-x="426" d="M322 255q-20 15 -25 40q-49 -36 -104 -36q-138 0 -138 132q0 126 157 126h81v31q0 84 -67 84q-58 0 -70 -44l-82 32q14 41 54.5 67t99.5 26q76 0 115 -40.5t39 -115.5v-190q0 -52 20 -80zM293 378v65h-86q-62 0 -62 -50q0 -26 15.5 -39.5t40.5 -13.5q60 0 92 38z" />
<glyph unicode="&#xab;" horiz-adv-x="476" d="M330 279l111 -116l-58 -77l-153 154v79l153 154l58 -77zM134 279l113 -116l-59 -77l-153 154v79l153 154l59 -77z" />
<glyph unicode="&#xac;" horiz-adv-x="619" d="M48 333v116h524v-259h-128v143h-396z" />
<glyph unicode="&#xad;" horiz-adv-x="391" d="M62 243v116h306v-116h-306z" />
<glyph unicode="&#xae;" horiz-adv-x="690" d="M206 150v398h151q64 0 100 -31.5t36 -91.5v-20q0 -85 -69 -111l80 -139l-116 -9l-63 134h-23v-130h-96zM302 358h42q27 0 40 12t13 40v8q0 28 -12.5 39t-40.5 11h-42v-110zM52 209v279q0 100 86 161t208 61q121 0 207 -61t86 -161v-279q0 -101 -86 -162t-207 -61 q-122 0 -208 61t-86 162zM141 488v-280q0 -63 62 -99.5t143 -36.5q80 0 142 36.5t62 99.5v280q0 62 -62.5 99.5t-141.5 37.5q-80 0 -142.5 -37.5t-62.5 -99.5z" />
<glyph unicode="&#xaf;" horiz-adv-x="389" d="M42 619v115h306v-115h-306z" />
<glyph unicode="&#xb0;" horiz-adv-x="356" d="M44 564v17q0 62 36 99t96 37q63 0 100.5 -37t37.5 -99v-17q0 -65 -37 -101t-101 -36q-61 0 -96.5 36t-35.5 101zM175 504q60 0 60 66q0 68 -60 68q-53 0 -53 -68q0 -31 13.5 -48.5t39.5 -17.5z" />
<glyph unicode="&#xb1;" horiz-adv-x="565" d="M48 310v108h179v142h112v-142h179v-108h-179v-142h-112v142h-179zM48 18v105h470v-105h-470z" />
<glyph unicode="&#xb2;" horiz-adv-x="419" d="M202 326h171v-93h-327v66l181 200q36 42 36 71q0 20 -13.5 33.5t-39.5 13.5q-27 0 -40.5 -18.5t-15.5 -44.5l-100 23q6 57 46.5 95t109.5 38q76 0 116.5 -38.5t40.5 -100.5q0 -64 -72 -144z" />
<glyph unicode="&#xb3;" horiz-adv-x="412" d="M48 349l101 25q4 -56 54 -56q56 0 56 54v11q0 61 -34 61h-68v73h68q30 0 30 54q0 19 -12.5 33.5t-35.5 14.5q-51 0 -53 -54l-99 23q6 54 45 88t107 34q72 0 111 -38t39 -98q0 -51 -36 -90q20 -15 32.5 -42t12.5 -54v-19q0 -66 -43.5 -105.5t-119.5 -39.5q-69 0 -108.5 35 t-46.5 90z" />
<glyph unicode="&#xb4;" horiz-adv-x="311" d="M62 645l84 150l93 -59l-115 -130z" />
<glyph unicode="&#xb5;" horiz-adv-x="555" d="M369 553l131 17v-369q-1 -98 -53 -154.5t-142 -56.5q-57 0 -94 35l-1 -42q0 -34 -5.5 -67.5t-10.5 -49.5l-6 -16l-129 18q21 52 21 126v559l131 17l-1 -357q0 -56 19 -83.5t61 -27.5q37 0 58 28.5t21 82.5v340z" />
<glyph unicode="&#xb6;" horiz-adv-x="563" d="M272 -110v373h-19q-91 0 -146.5 54t-55.5 152v25q0 99 57 152.5t163 53.5h235v-810h-79v721h-77v-721h-78z" />
<glyph unicode="&#xb7;" horiz-adv-x="220" d="M110 266q-34 0 -54 18.5t-20 54.5q0 38 20 57.5t54 19.5q35 0 55.5 -19.5t20.5 -57.5q0 -36 -20.5 -54.5t-55.5 -18.5z" />
<glyph unicode="&#xb8;" horiz-adv-x="260" d="M42 -157l7 47q17 -5 33 -5q36 0 36 23q0 14 -15 20.5t-30 5.5h-15l27 66h84l-11 -33q26 -5 43 -20.5t18 -41.5q-1 -39 -33.5 -55.5t-77.5 -16.5q-33 0 -66 10z" />
<glyph unicode="&#xb9;" horiz-adv-x="254" d="M107 237v345l-56 -36l-42 73l117 85h83v-467h-102z" />
<glyph unicode="&#xba;" horiz-adv-x="428" d="M46 416v126q0 78 45.5 123.5t123.5 45.5t123 -45t45 -124v-126q0 -78 -45 -123t-123 -45t-123.5 45t-45.5 123zM140 533v-108q0 -92 75 -92q76 0 76 92v108q0 94 -76 94q-75 0 -75 -94z" />
<glyph unicode="&#xbb;" horiz-adv-x="475" d="M93 86l-58 77l111 116l-111 117l58 77l153 -154v-79zM287 86l-58 77l112 116l-112 117l58 77l153 -154v-79z" />
<glyph unicode="&#xbc;" horiz-adv-x="860" d="M459 83v61l140 336l99 -16l-116 -290h98v132l102 17v-149h33v-91h-33v-83h-102v83h-221zM115 0l491 761l100 -61l-496 -767zM108 237v345l-55 -36l-43 73l118 85h82v-467h-102z" />
<glyph unicode="&#xbd;" horiz-adv-x="888" d="M587 761l100 -61l-495 -767l-95 67zM108 237v345l-55 -36l-43 73l118 85h82v-467h-102zM666 93h171v-93h-327v66l180 200q37 41 37 71q0 20 -13.5 33t-39.5 13q-27 0 -40.5 -18t-15.5 -44l-100 23q6 56 46.5 94t109.5 38q76 0 116.5 -38.5t40.5 -99.5q0 -68 -72 -144z " />
<glyph unicode="&#xbe;" horiz-adv-x="965" d="M220 0l490 761l100 -61l-495 -767zM54 349l101 25q2 -56 53 -56q27 0 42 14t15 40v11q0 61 -34 61h-68v73h68q30 0 30 54q0 19 -13 33.5t-36 14.5q-49 0 -53 -54l-98 23q6 54 45 88t106 34q72 0 111.5 -38t39.5 -98q0 -49 -36 -90q19 -15 31 -42t12 -54v-19 q0 -66 -42.5 -105.5t-119.5 -39.5q-69 0 -108 35t-46 90zM562 83v61l141 336l99 -16l-116 -290h98l-1 132l103 17v-149h32v-91h-32v-83h-102v83h-222z" />
<glyph unicode="&#xbf;" horiz-adv-x="509" d="M208 489v31h132v-37q0 -68 -24 -108t-83 -96q-51 -48 -51 -109v-7q0 -62 77 -62q67 0 80 59l127 -29q-15 -68 -66.5 -106.5t-140.5 -38.5q-102 0 -158 49t-56 126v15q0 59 23.5 99.5t71.5 87.5q38 37 53 63.5t15 62.5zM274 574q-32 0 -53 18t-21 52t20.5 51.5t53.5 17.5 t53.5 -17.5t20.5 -51.5t-20.5 -52t-53.5 -18z" />
<glyph unicode="&#xc0;" horiz-adv-x="606" d="M172 869l94 59l83 -149l-62 -39zM460 -10l-51 172h-213l-45 -162h-151l240 700h124l241 -692zM302 534l-74 -258h148z" />
<glyph unicode="&#xc1;" horiz-adv-x="606" d="M264 785l83 150l94 -59l-115 -130zM460 -10l-51 172h-213l-45 -162h-151l240 700h124l241 -692zM302 534l-74 -258h148z" />
<glyph unicode="&#xc2;" horiz-adv-x="606" d="M460 -10l-51 172h-213l-45 -162h-151l240 700h124l241 -692zM302 534l-74 -258h148zM173 781l78 106h103l80 -106l-90 -25l-41 67l-41 -67z" />
<glyph unicode="&#xc3;" horiz-adv-x="606" d="M460 -10l-51 172h-213l-45 -162h-151l240 700h124l241 -692zM302 534l-74 -258h148zM197 763l-90 21q5 54 33 88t75 34q38 0 92 -22.5t66 -22.5q36 0 37 40l89 -20q-11 -123 -109 -123q-36 0 -88 22.5t-69 22.5q-37 0 -36 -40z" />
<glyph unicode="&#xc4;" horiz-adv-x="606" d="M428 746q-32 0 -48.5 20t-16.5 54q0 35 16.5 55.5t48.5 20.5q33 0 49.5 -20.5t16.5 -55.5q0 -74 -66 -74zM173 746q-33 0 -49.5 20t-16.5 54t16.5 55t49.5 21t50 -21t17 -55t-17 -54t-50 -20zM460 -10l-51 172h-213l-45 -162h-151l240 700h124l241 -692zM302 534 l-74 -258h148z" />
<glyph unicode="&#xc5;" horiz-adv-x="606" d="M460 -10l-51 172h-213l-45 -162h-151l240 700h124l241 -692zM302 534l-74 -258h148zM220 823v10q0 36 23 58t59 22q37 0 60.5 -22t23.5 -58v-10q0 -37 -23 -58t-61 -21q-36 0 -59 21t-23 58zM302 792q33 0 33 35q0 37 -33 37q-29 0 -29 -37q0 -35 29 -35z" />
<glyph unicode="&#xc6;" horiz-adv-x="920" d="M-6 0l367 700h519v-121h-289v-206h240v-119h-240v-134h295v-120h-432v184h-207l-87 -184h-166zM303 304h151v280h-20z" />
<glyph unicode="&#xc7;" horiz-adv-x="582" d="M189 473v-245q0 -58 29.5 -90t77.5 -32q89 0 105 74l132 -28q-12 -67 -63.5 -110.5t-130.5 -52.5l-7 -22q60 -11 60 -62q0 -39 -32.5 -55.5t-77.5 -16.5q-34 0 -66 10l6 47q17 -5 33 -5q36 0 36 23q0 14 -15 20.5t-30 5.5h-15l23 55q-91 12 -146.5 73t-55.5 153v271 q0 103 68 165.5t176 62.5q97 0 160 -44.5t77 -121.5l-132 -28q-16 74 -105 74q-48 0 -77.5 -32t-29.5 -89z" />
<glyph unicode="&#xc8;" horiz-adv-x="514" d="M57 0v700h418v-121h-282v-164h235v-119h-235v-176h289v-120h-425zM161 866l93 59l84 -150l-62 -39z" />
<glyph unicode="&#xc9;" horiz-adv-x="514" d="M57 0v700h418v-121h-282v-165h235v-116h-235v-178h289v-120h-425zM216 780l83 149l93 -59l-115 -130z" />
<glyph unicode="&#xca;" horiz-adv-x="514" d="M57 0v700h418v-121h-282v-164h235v-119h-235v-176h289v-120h-425zM140 781l79 106h102l80 -106l-89 -25l-42 67l-40 -67z" />
<glyph unicode="&#xcb;" horiz-adv-x="514" d="M141 747q-65 0 -65 73q0 35 16.5 55.5t48.5 20.5q33 0 50 -20.5t17 -55.5q0 -34 -17 -53.5t-50 -19.5zM377 747q-32 0 -48.5 20t-16.5 53q0 34 16.5 55t48.5 21q33 0 50 -20.5t17 -55.5q0 -34 -17 -53.5t-50 -19.5zM56 0v700h419v-121h-282v-164h235v-119h-235v-176h289 v-120h-426z" />
<glyph unicode="&#xcc;" d="M57 0v700h136v-700h-136zM5 870l93 59l84 -150l-62 -39z" />
<glyph unicode="&#xcd;" d="M57 0v700h136v-700h-136zM67 777l83 150l93 -59l-115 -130z" />
<glyph unicode="&#xce;" d="M57 0v700h136v-700h-136zM-6 781l79 106h102l80 -106l-89 -25l-42 67l-41 -67z" />
<glyph unicode="&#xcf;" d="M44 747q-63 0 -63 73q0 76 63 76q65 0 65 -76q0 -73 -65 -73zM56 0v700h137v-700h-137zM206 747q-62 0 -62 73q0 76 62 76q64 0 64 -76q0 -73 -64 -73z" />
<glyph unicode="&#xd0;" horiz-adv-x="599" d="M56 0v295h-47v111h47v294h260q106 0 169 -62t63 -166v-244q0 -104 -63 -166t-169 -62h-260zM193 120h123q94 0 94 121v218q0 120 -94 120h-123v-173h127v-111h-127v-175z" />
<glyph unicode="&#xd1;" horiz-adv-x="619" d="M57 0v700h136l239 -441l-4 441h136v-700h-139l-237 437l3 -437h-134zM203 763l-89 21q4 54 32 88t75 34q38 0 92.5 -22.5t66.5 -22.5q35 0 36 40l89 -20q-4 -56 -31 -89.5t-78 -33.5q-36 0 -87.5 22.5t-68.5 22.5q-37 0 -37 -40z" />
<glyph unicode="&#xd2;" horiz-adv-x="612" d="M52 215v271q0 103 73 165.5t182 62.5q108 0 181.5 -62.5t73.5 -165.5v-271q0 -104 -73.5 -166.5t-181.5 -62.5q-109 0 -182 62.5t-73 166.5zM189 473v-245q0 -58 33.5 -89.5t84.5 -31.5t84 31.5t33 89.5v245q0 57 -33 89t-84 32t-84.5 -32t-33.5 -89zM182 873l93 59 l83 -150l-62 -39z" />
<glyph unicode="&#xd3;" horiz-adv-x="612" d="M52 215v271q0 103 73 165.5t182 62.5q108 0 181.5 -62.5t73.5 -165.5v-271q0 -104 -73.5 -166.5t-181.5 -62.5q-109 0 -182 62.5t-73 166.5zM189 473v-245q0 -58 33.5 -89.5t84.5 -31.5t84 31.5t33 89.5v245q0 57 -33 89t-84 32t-84.5 -32t-33.5 -89zM276 782l84 149 l93 -59l-115 -130z" />
<glyph unicode="&#xd4;" horiz-adv-x="612" d="M52 215v271q0 103 73 165.5t182 62.5q108 0 181.5 -62.5t73.5 -165.5v-271q0 -104 -73.5 -166.5t-181.5 -62.5q-109 0 -182 62.5t-73 166.5zM189 473v-245q0 -58 33.5 -89.5t84.5 -31.5t84 31.5t33 89.5v245q0 57 -33 89t-84 32t-84.5 -32t-33.5 -89zM177 781l79 106h102 l80 -106l-89 -25l-42 67l-41 -67z" />
<glyph unicode="&#xd5;" horiz-adv-x="612" d="M52 215v271q0 103 73 165.5t182 62.5q108 0 181.5 -62.5t73.5 -165.5v-271q0 -104 -73.5 -166.5t-181.5 -62.5q-109 0 -182 62.5t-73 166.5zM189 473v-245q0 -58 33.5 -89.5t84.5 -31.5t84 31.5t33 89.5v245q0 57 -33 89t-84 32t-84.5 -32t-33.5 -89zM201 763l-89 21 q5 54 33 88t75 34q38 0 92 -22.5t66 -22.5q36 0 37 41l89 -20q-5 -57 -31.5 -90t-77.5 -33q-36 0 -88 22.5t-69 22.5q-37 0 -37 -41z" />
<glyph unicode="&#xd6;" horiz-adv-x="616" d="M54 215v271q0 103 73 165.5t182 62.5q108 0 181 -62.5t73 -165.5v-271q0 -104 -73 -166.5t-181 -62.5q-109 0 -182 62.5t-73 166.5zM191 473v-245q0 -58 33 -89.5t85 -31.5q50 0 83.5 31.5t33.5 89.5v245q0 57 -33.5 89t-83.5 32q-52 0 -85 -32t-33 -89zM425 747 q-64 0 -64 73q0 35 16 55.5t48 20.5q67 0 67 -76q0 -73 -67 -73zM189 747q-32 0 -48.5 20t-16.5 53q0 34 16.5 55t48.5 21q33 0 50 -21t17 -55q0 -33 -17 -53t-50 -20z" />
<glyph unicode="&#xd7;" horiz-adv-x="557" d="M38 110l162 167l-162 168l79 86l161 -169l163 169l79 -86l-163 -168l163 -167l-79 -86l-163 168l-161 -168z" />
<glyph unicode="&#xd8;" horiz-adv-x="612" d="M66 65l-63 112l49 39v268q0 104 73 167t182 63q70 0 126.5 -26.5t87.5 -75.5l27 23l60 -114l-46 -38v-267q0 -104 -73.5 -167t-181.5 -63q-148 0 -215 101zM424 228v135l-227 -185q12 -34 41.5 -52.5t68.5 -18.5q51 0 84 32t33 89zM189 337l227 184q-13 35 -42 54t-67 19 q-51 0 -84.5 -32.5t-33.5 -89.5v-135z" />
<glyph unicode="&#xd9;" horiz-adv-x="597" d="M153 876l93 59l84 -150l-62 -39zM284 104q38 0 71 17t51 43v536h137v-517q0 -102 27 -159l-123 -34q-13 23 -24 65q-26 -30 -71.5 -49.5t-90.5 -19.5q-207 0 -207 220v486l138 18v-493q0 -59 22 -86t70 -27z" />
<glyph unicode="&#xda;" horiz-adv-x="597" d="M259 785l84 150l93 -59l-115 -130zM284 104q38 0 71 17t51 43v536h137v-517q0 -102 27 -159l-123 -34q-13 23 -24 65q-26 -30 -71.5 -49.5t-90.5 -19.5q-207 0 -207 220v486l138 18v-493q0 -59 22 -86t70 -27z" />
<glyph unicode="&#xdb;" horiz-adv-x="597" d="M170 781l80 106h102l80 -106l-90 -25l-41 67l-41 -67zM284 104q38 0 71 17t51 43v536h137v-517q0 -102 27 -159l-123 -34q-13 23 -24 65q-26 -30 -71.5 -49.5t-90.5 -19.5q-207 0 -207 220v486l138 18v-493q0 -59 22 -86t70 -27z" />
<glyph unicode="&#xdc;" horiz-adv-x="597" d="M422 746q-31 0 -47.5 20t-16.5 54t16.5 55t47.5 21q34 0 51 -20.5t17 -55.5q0 -34 -17 -54t-51 -20zM185 746q-31 0 -47 20t-16 54t16 55t47 21q34 0 51 -20.5t17 -55.5q0 -34 -17 -54t-51 -20zM284 104q38 0 71 17t51 43v536h137v-517q0 -102 27 -159l-123 -34 q-13 23 -24 65q-26 -30 -71.5 -49.5t-90.5 -19.5q-207 0 -207 220v486l138 18v-493q0 -59 22 -86t70 -27z" />
<glyph unicode="&#xdd;" horiz-adv-x="563" d="M238 785l83 150l94 -59l-115 -130zM213 0v241l-210 451l155 18l126 -331l120 321h160l-213 -458v-242h-138z" />
<glyph unicode="&#xde;" horiz-adv-x="580" d="M56 0v700h137v-119h112q108 0 170 -56t62 -159v-32q0 -103 -62 -159t-170 -56h-112v-119h-137zM193 237h112q94 0 94 108v10q0 107 -94 107h-112v-225z" />
<glyph unicode="&#xdf;" horiz-adv-x="569" d="M60 0v352h-52v111h52v86q0 99 51.5 155t147.5 56q82 0 130.5 -39t48.5 -111q0 -32 -13 -61.5t-28.5 -48t-28.5 -41.5t-13 -44t18 -43.5t43.5 -44.5t50.5 -47.5t43 -61.5t18 -76q0 -70 -47 -113t-144 -43q-56 0 -98 15l21 108q37 -9 66 -9q30 0 51 13.5t21 40.5 q0 22 -17 43.5t-41 41t-48 42.5t-41 56.5t-17 73.5q0 38 19.5 70t39 61t19.5 59q0 49 -56 49q-65 0 -65 -112v-538h-131z" />
<glyph unicode="&#xe0;" horiz-adv-x="530" d="M140 736l93 59l84 -150l-62 -39zM173 155q-1 -31 17.5 -47t51.5 -16q65 0 101 56v71h-97q-72 0 -73 -64zM473 378v-198q0 -102 27 -156l-115 -34q-17 25 -23 55q-25 -25 -66 -40t-80 -15q-82 0 -129 41t-47 118q0 158 189 158h114v59q0 49 -19 70t-60 21q-70 0 -82 -60 l-125 29q13 63 67.5 103.5t139.5 40.5q102 0 156 -49.5t53 -142.5z" />
<glyph unicode="&#xe1;" horiz-adv-x="530" d="M210 645l83 150l93 -59l-115 -130zM173 155q-1 -31 17.5 -47t51.5 -16q65 0 101 56v71h-97q-72 0 -73 -64zM473 378v-198q0 -102 27 -156l-115 -34q-17 25 -23 55q-25 -25 -66 -40t-80 -15q-82 0 -129 41t-47 118q0 158 189 158h114v59q0 49 -19 70t-60 21q-70 0 -82 -60 l-125 29q13 63 67.5 103.5t139.5 40.5q102 0 156 -49.5t53 -142.5z" />
<glyph unicode="&#xe2;" horiz-adv-x="530" d="M173 155q-1 -31 17.5 -47t51.5 -16q65 0 101 56v71h-97q-72 0 -73 -64zM473 378v-198q0 -102 27 -156l-115 -34q-17 25 -23 55q-25 -25 -66 -40t-80 -15q-82 0 -129 41t-47 118q0 158 189 158h114v59q0 49 -19 70t-60 21q-70 0 -82 -60l-125 29q13 63 67.5 103.5 t139.5 40.5q102 0 156 -49.5t53 -142.5zM133 641l79 106h103l80 -106l-90 -25l-41 67l-41 -67z" />
<glyph unicode="&#xe3;" horiz-adv-x="530" d="M158 623l-90 21q5 54 33 88t75 34q38 0 92 -22.5t66 -22.5q36 0 37 40l89 -20q-11 -123 -109 -123q-36 0 -87.5 22.5t-68.5 22.5q-38 0 -37 -40zM173 155q-1 -31 17.5 -47t51.5 -16q65 0 101 56v71h-97q-72 0 -73 -64zM473 378v-198q0 -102 27 -156l-115 -34 q-17 25 -23 55q-25 -25 -66 -40t-80 -15q-82 0 -129 41t-47 118q0 158 189 158h114v59q0 49 -19 70t-60 21q-70 0 -82 -60l-125 29q13 63 67.5 103.5t139.5 40.5q102 0 156 -49.5t53 -142.5z" />
<glyph unicode="&#xe4;" horiz-adv-x="533" d="M375 606q-32 0 -48 20t-16 54q0 35 16 55.5t48 20.5q67 0 67 -76q0 -74 -67 -74zM148 606q-31 0 -47.5 20t-16.5 54t16.5 55t47.5 21q33 0 50 -20.5t17 -55.5q0 -34 -17 -54t-50 -20zM173 155q-1 -31 17.5 -47t51.5 -16q65 0 101 56v71h-97q-72 0 -73 -64zM473 378v-198 q0 -102 27 -156l-115 -34q-17 25 -23 55q-25 -25 -66 -40t-80 -15q-82 0 -129 41t-47 118q0 158 189 158h114v59q0 49 -19 70t-60 21q-70 0 -82 -60l-125 29q13 63 67.5 103.5t139.5 40.5q102 0 156 -49.5t53 -142.5z" />
<glyph unicode="&#xe5;" horiz-adv-x="533" d="M188 683v10q0 36 23.5 58t58.5 22q38 0 61.5 -22t23.5 -58v-10q0 -37 -23.5 -58t-61.5 -21q-36 0 -59 21t-23 58zM270 652q33 0 33 35q0 37 -33 37q-29 0 -29 -37q0 -35 29 -35zM173 155q-1 -31 17.5 -47t51.5 -16q65 0 101 56v71h-97q-72 0 -73 -64zM473 378v-198 q0 -102 27 -156l-115 -34q-17 25 -23 55q-25 -25 -66 -40t-80 -15q-82 0 -129 41t-47 118q0 158 189 158h114v59q0 49 -19 70t-60 21q-70 0 -82 -60l-125 29q13 63 67.5 103.5t139.5 40.5q102 0 156 -49.5t53 -142.5z" />
<glyph unicode="&#xe6;" horiz-adv-x="833" d="M345 141v98h-101q-69 0 -69 -70q0 -37 18 -55t48 -18q66 0 104 45zM476 326h176v28q0 105 -87 105q-89 0 -89 -103v-30zM773 142q-14 -72 -67.5 -112t-140.5 -40q-119 0 -173 76q-71 -76 -187 -76q-77 0 -119.5 46.5t-42.5 124.5q0 164 179 164h123v40q0 93 -78 93 q-35 0 -55.5 -17t-25.5 -44l-125 29q14 63 67.5 103.5t138.5 40.5q98 0 149 -66q49 66 149 66q101 0 159.5 -57t58.5 -155v-118h-307v-34q0 -105 89 -105q72 0 85 68z" />
<glyph unicode="&#xe7;" horiz-adv-x="530" d="M185 347v-134q0 -110 86 -110q72 0 86 67l123 -28q-13 -63 -55.5 -101.5t-111.5 -46.5l-9 -27q61 -9 61 -62q0 -39 -33 -55.5t-78 -16.5q-34 0 -66 8l8 49q15 -5 31 -5q37 0 37 23q0 14 -15 20.5t-30 5.5h-15l24 60q-82 11 -128 66t-46 142v156q0 98 58 154.5t159 56.5 q88 0 141.5 -39t67.5 -112l-123 -28q-14 67 -86 67q-86 0 -86 -110z" />
<glyph unicode="&#xe8;" horiz-adv-x="540" d="M135 736l93 59l84 -150l-62 -39zM54 202v156q0 98 58.5 155t159.5 57t159.5 -57t58.5 -155v-118h-305v-36q-3 -103 87 -103q71 0 85 68l123 -27q-14 -72 -67.5 -112t-140.5 -40q-101 0 -159.5 56.5t-58.5 155.5zM182 329h177v24q0 106 -87 106t-90 -106v-24z" />
<glyph unicode="&#xe9;" horiz-adv-x="540" d="M235 645l84 150l93 -59l-115 -130zM54 202v156q0 98 58.5 155t159.5 57t159.5 -57t58.5 -155v-118h-305v-36q-3 -103 87 -103q71 0 85 68l123 -27q-14 -72 -67.5 -112t-140.5 -40q-101 0 -159.5 56.5t-58.5 155.5zM182 329h177v24q0 106 -87 106t-90 -106v-24z" />
<glyph unicode="&#xea;" horiz-adv-x="540" d="M146 641l80 106h102l79 -106l-89 -25l-42 67l-40 -67zM54 202v156q0 98 58.5 155t159.5 57t159.5 -57t58.5 -155v-118h-305v-36q-3 -103 87 -103q71 0 85 68l123 -27q-14 -72 -67.5 -112t-140.5 -40q-101 0 -159.5 56.5t-58.5 155.5zM182 329h177v24q0 106 -87 106 t-90 -106v-24z" />
<glyph unicode="&#xeb;" horiz-adv-x="540" d="M153 606q-32 0 -48 20t-16 54q0 35 16 55.5t48 20.5q33 0 50.5 -21t17.5 -55t-17.5 -54t-50.5 -20zM390 606q-32 0 -48.5 20t-16.5 54t16.5 55t48.5 21q33 0 50 -20.5t17 -55.5q0 -34 -17 -54t-50 -20zM54 202v156q0 98 58.5 155t159.5 57t159.5 -57t58.5 -155v-118h-305 v-36q-3 -103 87 -103q71 0 85 68l123 -27q-14 -72 -67.5 -112t-140.5 -40q-101 0 -159.5 56.5t-58.5 155.5zM182 329h177v24q0 106 -87 106t-90 -106v-24z" />
<glyph unicode="&#xec;" d="M-4 736l93 59l83 -150l-61 -39zM7 560h183v-560h-131v454h-52v106z" />
<glyph unicode="&#xed;" d="M80 645l84 150l93 -59l-115 -130zM7 560h183v-560h-131v454h-52v106z" />
<glyph unicode="&#xee;" d="M-6 641l79 106h102l80 -106l-89 -25l-42 67l-40 -67zM7 560h183v-560h-131v454h-52v106z" />
<glyph unicode="&#xef;" d="M39 615q-28 0 -43 18t-15 47q0 30 15 48.5t43 18.5q29 0 44.5 -18.5t15.5 -48.5t-15.5 -47.5t-44.5 -17.5zM194 615q-58 0 -58 65q0 67 58 67q29 0 44 -18.5t15 -48.5t-15 -47.5t-44 -17.5zM7 560h183v-560h-131v454h-52v106z" />
<glyph unicode="&#xf0;" horiz-adv-x="536" d="M54 184v150q0 186 185 186q70 0 120 -35v21q0 31 -12 58l-45 -36l-49 64l33 26q-22 10 -51 10q-34 0 -58 -8l-24 100q47 15 91 15q81 0 135 -33l63 50l46 -64l-46 -38q41 -52 41 -126v-329q0 -98 -56.5 -151.5t-163.5 -53.5q-95 0 -152 49.5t-57 144.5zM172 302v-86 q0 -64 22 -93t71 -29t71.5 29t22.5 93v159q-38 41 -103 41q-47 0 -65.5 -26t-18.5 -88z" />
<glyph unicode="&#xf1;" horiz-adv-x="543" d="M167 623l-89 21q4 54 32.5 88t75.5 34q37 0 91.5 -22.5t66.5 -22.5q36 0 36 40l90 -20q-11 -123 -110 -123q-35 0 -86.5 22.5t-69.5 22.5q-37 0 -37 -40zM59 0v552l128 18v-57q25 24 61.5 40.5t70.5 16.5q167 0 167 -190v-380h-131v367q0 46 -16 66.5t-55 20.5 q-50 0 -94 -53v-401h-131z" />
<glyph unicode="&#xf2;" horiz-adv-x="542" d="M185 347v-134q0 -110 87 -110t87 110v134q0 110 -87 110t-87 -110zM54 202v156q0 99 58.5 155.5t159.5 56.5t159.5 -56.5t58.5 -155.5v-156q0 -99 -58.5 -155.5t-159.5 -56.5t-159.5 56.5t-58.5 155.5zM147 736l93 59l84 -150l-62 -39z" />
<glyph unicode="&#xf3;" horiz-adv-x="542" d="M185 347v-134q0 -110 87 -110t87 110v134q0 110 -87 110t-87 -110zM54 202v156q0 99 58.5 155.5t159.5 56.5t159.5 -56.5t58.5 -155.5v-156q0 -99 -58.5 -155.5t-159.5 -56.5t-159.5 56.5t-58.5 155.5zM237 645l83 150l93 -59l-115 -130z" />
<glyph unicode="&#xf4;" horiz-adv-x="542" d="M185 347v-134q0 -110 87 -110t87 110v134q0 110 -87 110t-87 -110zM54 202v156q0 99 58.5 155.5t159.5 56.5t159.5 -56.5t58.5 -155.5v-156q0 -99 -58.5 -155.5t-159.5 -56.5t-159.5 56.5t-58.5 155.5zM140 641l80 106h102l79 -106l-89 -25l-42 67l-40 -67z" />
<glyph unicode="&#xf5;" horiz-adv-x="542" d="M185 347v-134q0 -110 87 -110t87 110v134q0 110 -87 110t-87 -110zM54 202v156q0 99 58.5 155.5t159.5 56.5t159.5 -56.5t58.5 -155.5v-156q0 -99 -58.5 -155.5t-159.5 -56.5t-159.5 56.5t-58.5 155.5zM164 623l-89 21q5 54 33 88t75 34q38 0 92 -22.5t66 -22.5 q36 0 37 40l89 -20q-11 -123 -109 -123q-36 0 -88 22.5t-69 22.5q-37 0 -37 -40z" />
<glyph unicode="&#xf6;" horiz-adv-x="542" d="M184 347v-134q0 -111 88 -111q42 0 65 28.5t23 82.5v134q0 54 -23 82.5t-65 28.5q-88 0 -88 -111zM54 201v158q0 98 58.5 154.5t159.5 56.5t159.5 -56.5t58.5 -154.5v-158q0 -98 -58.5 -154.5t-159.5 -56.5t-159.5 56.5t-58.5 154.5zM152 607q-32 0 -48.5 20t-16.5 53 q0 34 16.5 55t48.5 21q33 0 50 -21t17 -55q0 -33 -17 -53t-50 -20zM388 607q-31 0 -47.5 20t-16.5 53q0 34 16.5 55t47.5 21q67 0 67 -76q0 -73 -67 -73z" />
<glyph unicode="&#xf7;" horiz-adv-x="559" d="M273 -10q-34 0 -54 18.5t-20 54.5q0 38 20 57.5t54 19.5q35 0 55.5 -19.5t20.5 -57.5q0 -36 -20.5 -54.5t-55.5 -18.5zM273 420q-34 0 -54 19t-20 55q0 38 20 57t54 19q35 0 55.5 -19t20.5 -57q0 -36 -20.5 -55t-55.5 -19zM42 222v116h475v-116h-475z" />
<glyph unicode="&#xf8;" horiz-adv-x="542" d="M63 23l-57 114l49 39q-1 8 -1 26v156q0 98 58.5 155t159.5 57q111 0 168 -68l47 39l50 -118l-49 -39q2 -8 2 -26v-156q0 -98 -58.5 -155t-159.5 -57q-113 0 -170 68zM360 213v57l-163 -129q22 -40 75 -40q42 0 65 29t23 83zM346 418q-22 40 -74 40q-43 0 -66.5 -28.5 t-23.5 -82.5v-57z" />
<glyph unicode="&#xf9;" horiz-adv-x="532" d="M151 736l93 59l84 -150l-62 -39zM365 48q-27 -26 -67 -42t-78 -16q-89 0 -126.5 50.5t-37.5 153.5v358l131 18v-364q0 -56 14 -80t50 -24q66 0 95 54v396l130 18v-390q0 -102 27 -156l-115 -34q-16 24 -23 58z" />
<glyph unicode="&#xfa;" horiz-adv-x="532" d="M227 645l83 150l93 -59l-115 -130zM365 48q-27 -26 -67 -42t-78 -16q-89 0 -126.5 50.5t-37.5 153.5v358l131 18v-364q0 -56 14 -80t50 -24q66 0 95 54v396l130 18v-390q0 -102 27 -156l-115 -34q-16 24 -23 58z" />
<glyph unicode="&#xfb;" horiz-adv-x="532" d="M135 641l79 106h102l80 -106l-89 -25l-42 67l-41 -67zM365 48q-27 -26 -67 -42t-78 -16q-89 0 -126.5 50.5t-37.5 153.5v358l131 18v-364q0 -56 14 -80t50 -24q66 0 95 54v396l130 18v-390q0 -102 27 -156l-115 -34q-16 24 -23 58z" />
<glyph unicode="&#xfc;" horiz-adv-x="532" d="M146 606q-32 0 -48 20t-16 54q0 35 16 55.5t48 20.5q33 0 50.5 -21t17.5 -55t-17.5 -54t-50.5 -20zM383 606q-32 0 -48 20t-16 54q0 35 16 55.5t48 20.5q33 0 50 -20.5t17 -55.5q0 -34 -17 -54t-50 -20zM365 48q-27 -26 -67 -42t-78 -16q-89 0 -126.5 50.5t-37.5 153.5 v358l131 18v-364q0 -56 14 -80t50 -24q66 0 95 54v396l130 18v-390q0 -102 27 -156l-115 -34q-16 24 -23 58z" />
<glyph unicode="&#xfd;" horiz-adv-x="538" d="M217 645l84 150l93 -59l-115 -130zM63 -13l124 18q9 -52 87 -52q42 0 62.5 20.5t20.5 68.5v63q-55 -58 -142 -58q-82 0 -120 40t-37 128v337l131 18v-322q-1 -46 14.5 -65.5t55.5 -19.5q52 0 91 46v343l131 18v-537q0 -93 -54 -143t-153 -50q-100 0 -153 38t-58 109z" />
<glyph unicode="&#xfe;" horiz-adv-x="546" d="M190 403v-284q34 -17 87 -17q41 0 62.5 26.5t21.5 75.5v154q1 51 -16.5 73.5t-57.5 22.5q-52 0 -97 -51zM59 -158v878l131 17v-219q57 52 127 52q93 0 134.5 -50t40.5 -152v-178q0 -90 -53 -145t-147 -55q-61 0 -102 17v-147z" />
<glyph unicode="&#xff;" horiz-adv-x="538" d="M155 606q-32 0 -48.5 20t-16.5 54q0 35 16.5 55.5t48.5 20.5q33 0 50 -20.5t17 -55.5q0 -34 -17 -54t-50 -20zM392 606q-32 0 -49 20.5t-17 53.5q0 34 17 55t49 21q33 0 50 -20.5t17 -55.5q0 -34 -17 -54t-50 -20zM63 -13l124 18q9 -52 87 -52q42 0 62.5 20.5t20.5 68.5 v63q-55 -58 -142 -58q-82 0 -120 40t-37 128v337l131 18v-322q-1 -46 14.5 -65.5t55.5 -19.5q52 0 91 46v343l131 18v-537q0 -93 -54 -143t-153 -50q-100 0 -153 38t-58 109z" />
<glyph unicode="&#x152;" horiz-adv-x="850" d="M54 216v268q0 106 63 168t171 62q33 0 67.5 -12t52.5 -31v29h402v-121h-265v-164h216v-119h-216v-176h272v-120h-409v27q-43 -41 -120 -41q-108 0 -171 62t-63 168zM191 473v-245q0 -59 29.5 -90t79.5 -31q47 0 77.5 32t30.5 87v249q0 55 -30.5 87t-77.5 32 q-50 0 -79.5 -31.5t-29.5 -89.5z" />
<glyph unicode="&#x153;" horiz-adv-x="846" d="M184 347v-134q0 -111 88 -111q85 0 88 95v164q0 97 -88 97t-88 -111zM490 341h175l1 15q0 103 -88 103t-88 -89v-29zM788 142q-14 -72 -68.5 -112t-141.5 -40q-109 0 -153 65q-49 -65 -154 -65q-101 0 -159 56.5t-58 154.5v158q0 98 58 154.5t159 56.5q99 0 154 -66 q51 66 153 66q101 0 159.5 -57t58.5 -155v-104h-306v-51q0 -102 88 -102q73 0 87 68z" />
<glyph unicode="&#x178;" horiz-adv-x="563" d="M399 746q-32 0 -48 20t-16 54q0 35 16 55.5t48 20.5q33 0 50 -20.5t17 -55.5q0 -34 -17 -54t-50 -20zM162 746q-32 0 -48 20t-16 54q0 35 16 55.5t48 20.5q67 0 67 -76q0 -74 -67 -74zM213 0v241l-210 451l155 18l126 -331l120 321h160l-213 -458v-242h-138z" />
<glyph unicode="&#x2c6;" horiz-adv-x="383" d="M61 641l79 106h103l79 -106l-89 -25l-41 67l-41 -67z" />
<glyph unicode="&#x2dc;" horiz-adv-x="471" d="M129 623l-89 20q5 55 33 89t75 34q37 0 91.5 -22.5t66.5 -22.5q36 0 37 40l89 -20q-11 -123 -109 -123q-36 0 -88 23t-69 23q-37 0 -37 -41z" />
<glyph unicode="&#x2000;" horiz-adv-x="467" />
<glyph unicode="&#x2001;" horiz-adv-x="935" />
<glyph unicode="&#x2002;" horiz-adv-x="467" />
<glyph unicode="&#x2003;" horiz-adv-x="935" />
<glyph unicode="&#x2004;" horiz-adv-x="311" />
<glyph unicode="&#x2005;" horiz-adv-x="233" />
<glyph unicode="&#x2006;" horiz-adv-x="155" />
<glyph unicode="&#x2007;" horiz-adv-x="155" />
<glyph unicode="&#x2008;" horiz-adv-x="116" />
<glyph unicode="&#x2009;" horiz-adv-x="187" />
<glyph unicode="&#x200a;" horiz-adv-x="51" />
<glyph unicode="&#x2010;" horiz-adv-x="395" d="M45 243v116h305v-116h-305z" />
<glyph unicode="&#x2011;" horiz-adv-x="395" d="M45 243v116h305v-116h-305z" />
<glyph unicode="&#x2012;" horiz-adv-x="395" d="M45 243v116h305v-116h-305z" />
<glyph unicode="&#x2013;" horiz-adv-x="496" d="M8 243v116h482v-116h-482z" />
<glyph unicode="&#x2014;" horiz-adv-x="793" d="M8 243v116h779v-116h-779z" />
<glyph unicode="&#x2018;" horiz-adv-x="232" d="M202 574l-22 -67q-42 9 -72.5 29t-45 45.5t-20.5 48.5t-6 46q0 35 20.5 54.5t54.5 19.5t54 -19.5t20 -54.5q0 -40 -26 -58q-1 -15 12 -27t31 -17z" />
<glyph unicode="&#x2019;" horiz-adv-x="232" d="M52 507l-22 67q18 5 31 17t12 27q-26 18 -26 58q0 35 20 54.5t54 19.5q35 0 55.5 -19.5t20.5 -54.5q0 -53 -32.5 -102.5t-112.5 -66.5z" />
<glyph unicode="&#x201a;" horiz-adv-x="232" d="M52 -106l-22 67q18 5 31 17t12 27q-26 16 -26 58q0 35 20 54.5t54 19.5q35 0 55.5 -19.5t20.5 -54.5q0 -53 -32.5 -102.5t-112.5 -66.5z" />
<glyph unicode="&#x201c;" horiz-adv-x="423" d="M202 574l-22 -67q-42 9 -72.5 29t-45 45.5t-20.5 48.5t-6 46q0 35 20.5 54.5t54.5 19.5t54 -19.5t20 -54.5q0 -40 -26 -58q-1 -15 12 -27t31 -17zM394 574l-22 -67q-80 17 -112.5 66.5t-32.5 102.5q0 35 20.5 54.5t55.5 19.5q34 0 54 -19.5t20 -54.5q0 -40 -26 -58 q-1 -15 12 -27t31 -17z" />
<glyph unicode="&#x201d;" horiz-adv-x="423" d="M243 507l-22 67q18 5 31 17t12 27q-26 18 -26 58q0 35 20 54.5t54 19.5q35 0 55.5 -19.5t20.5 -54.5q0 -53 -32.5 -102.5t-112.5 -66.5zM52 507l-22 67q18 5 31 17t12 27q-26 18 -26 58q0 35 20 54.5t54 19.5q35 0 55.5 -19.5t20.5 -54.5q0 -53 -32.5 -102.5 t-112.5 -66.5z" />
<glyph unicode="&#x201e;" horiz-adv-x="423" d="M243 -106l-22 67q18 5 31 17t12 27q-26 16 -26 58q0 35 20 54.5t54 19.5q35 0 55.5 -19.5t20.5 -54.5q0 -53 -32.5 -102.5t-112.5 -66.5zM52 -106l-22 67q18 5 31 17t12 27q-26 16 -26 58q0 35 20 54.5t54 19.5q35 0 55.5 -19.5t20.5 -54.5q0 -53 -32.5 -102.5 t-112.5 -66.5z" />
<glyph unicode="&#x2022;" horiz-adv-x="429" d="M212 155q-74 0 -117 42.5t-43 124.5q0 87 43 131t117 44q77 0 121.5 -44t44.5 -131q0 -83 -44.5 -125t-121.5 -42z" />
<glyph unicode="&#x2026;" horiz-adv-x="568" d="M104 -13q-31 0 -49.5 19.5t-18.5 53.5q0 36 18 56.5t50 20.5q34 0 52 -20t18 -57q0 -34 -18.5 -53.5t-51.5 -19.5zM283 -13q-32 0 -50.5 19.5t-18.5 53.5q0 37 18.5 57t50.5 20q34 0 52.5 -20t18.5 -57q0 -34 -18.5 -53.5t-52.5 -19.5zM463 -13q-32 0 -50.5 19.5 t-18.5 53.5q0 37 18.5 57t50.5 20q33 0 51 -20t18 -57q0 -34 -18 -53.5t-51 -19.5z" />
<glyph unicode="&#x202f;" horiz-adv-x="187" />
<glyph unicode="&#x2039;" horiz-adv-x="284" d="M144 279l112 -116l-58 -77l-153 154v79l153 154l58 -77z" />
<glyph unicode="&#x203a;" horiz-adv-x="284" d="M88 86l-58 77l111 116l-111 117l58 77l153 -154v-79z" />
<glyph unicode="&#x205f;" horiz-adv-x="233" />
<glyph unicode="&#x20ac;" horiz-adv-x="600" />
<glyph unicode="&#x2122;" horiz-adv-x="885" d="M398 233v468h98l124 -224l122 224h101v-468h-102l2 259l-83 -144h-81l-81 141l2 -256h-102zM152 233v376h-119v92h338v-92h-117v-376h-102z" />
<glyph unicode="&#x25fc;" horiz-adv-x="570" d="M0 570h570v-570h-570v570z" />
<glyph unicode="&#xfb01;" horiz-adv-x="531" d="M60 0v449h-52v111h52v26q0 83 50 117t147 34q42 0 96 -10t88 -23l-26 -95q-72 20 -155 20q-69 0 -69 -47v-22h280v-560h-131v449h-149v-449h-131z" />
<glyph unicode="&#xfb02;" horiz-adv-x="533" d="M60 0v419h-52v105h52v18q-2 93 51.5 141t151.5 48q114 0 212 -65v-666h-131v606q-30 13 -72 13q-41 0 -61.5 -19.5t-19.5 -54.5v-21h106v-105h-106v-419h-131z" />
<glyph unicode="&#xfb03;" horiz-adv-x="790" d="M60 0v455h-52v105h52q0 96 45 139t136 43q75 0 133 -43q55 61 161 61q95 0 170 -31l-22 -89q-76 19 -134 19q-45 0 -64.5 -21.5t-19.5 -77.5h267v-560h-131v455h-137v-455h-131v455h-142v-455h-131zM191 560h142q0 28 8 52q-38 25 -76 25q-41 0 -57.5 -16.5t-16.5 -60.5z " />
<glyph unicode="&#xfb04;" horiz-adv-x="804" d="M60 0v419h-52v105h52v26q0 192 192 192q66 0 128 -45q54 63 156 63q100 0 210 -65v-695h-131v633q-35 15 -69 15q-42 0 -62 -25t-20 -79v-20h106v-105h-106v-419h-131v419h-142v-419h-131zM191 524h142v31q0 36 8 50q-41 25 -76 25q-41 0 -57.5 -18.5t-16.5 -71.5v-16z " />
</font>
</defs>
</svg>
