<?xml version="1.0" encoding="UTF-8" standalone="no"?>
<svg width="149px" height="149px" viewBox="0 0 149 149" version="1.1" xmlns="http://www.w3.org/2000/svg" xmlns:xlink="http://www.w3.org/1999/xlink" xmlns:sketch="http://www.bohemiancoding.com/sketch/ns">
    <!-- Generator: Sketch 3.4 (15575) - http://www.bohemiancoding.com/sketch -->
    <title>feat-icon-3</title>
    <desc>Created with Sketch.</desc>
    <defs></defs>
    <g id="Maquette-2" stroke="none" stroke-width="1" fill="none" fill-rule="evenodd" sketch:type="MSPage">
        <g id="Desktop-HD" sketch:type="MSArtboardGroup" transform="translate(-889.000000, -2051.000000)" stroke="#CB3030" stroke-width="1.5">
            <g id="Page-Compétance" sketch:type="MSLayerGroup" transform="translate(0.000000, 1682.000000)">
                <g id="Feat.-3" transform="translate(841.000000, 370.000000)" sketch:type="MSShapeGroup">
                    <g id="feat-icon-3" transform="translate(49.000000, 0.000000)">
                        <circle id="Oval-16-Copy-2" fill="#FAFAFA" cx="73.5" cy="73.5" r="73.5"></circle>
                        <path d="M89.5045902,94.6537302 C92.7084426,94.6537302 94.3114754,92.606619 94.3114754,89.5381905 L94.3114754,75.3650794 C94.3114754,75.3650794 94.3114754,72.3809524 95.7868852,72.3809524 L95.7868852,72.2727778 C94.3114754,72.2727778 94.3114754,69.2886508 94.3114754,69.2886508 L94.3114754,55.1155397 C94.3114754,52.0471111 92.6162295,50 89.412377,50 M59.737459,94.6537302 C56.5336066,94.6537302 54.4754098,92.606619 54.4754098,89.5381905 L54.4754098,75.3650794 C54.4754098,75.3650794 54.4754098,72.3809524 53,72.3809524 L53,72.2727778 C54.4754098,72.2727778 54.4754098,69.2886508 54.4754098,69.2886508 L54.4754098,55.1155397 C54.4754098,52.0471111 56.3978689,50 59.602459,50 M67.0163934,72.2727778 L68.4918033,72.2727778 M73.6557377,72.2727778 L75.1311475,72.2727778 M80.295082,72.2727778 L81.7704918,72.2727778" id="Imported-Layers-Copy"></path>
                    </g>
                </g>
            </g>
        </g>
    </g>
</svg>